SplineFontDB: 3.0
FontName: CodifiedPolybius-Regular
FullName: CodifiedPolybius
FamilyName: CodifiedPolybius
Weight: Regular
Copyright: Font based in Carlito, by tyPoland Lukasz Dziedzic. Licensed under the SIL Open Font License, version 1.1
Version: 0.1
ItalicAngle: 0
UnderlinePosition: -200
UnderlineWidth: 194
Ascent: 1536
Descent: 512
InvalidEm: 0
LayerCount: 2
Layer: 0 1 "Back" 1
Layer: 1 1 "Fore" 0
XUID: [1021 514 -681402365 12439991]
StyleMap: 0x0040
FSType: 0
OS2Version: 3
OS2_WeightWidthSlopeOnly: 0
OS2_UseTypoMetrics: 0
CreationTime: -835834854
ModificationTime: 1504973723
PfmFamily: 17
TTFWeight: 400
TTFWidth: 5
LineGap: 452
VLineGap: 0
Panose: 2 15 5 2 2 2 4 3 2 4
OS2TypoAscent: 1536
OS2TypoAOffset: 0
OS2TypoDescent: -512
OS2TypoDOffset: 0
OS2TypoLinegap: 452
OS2WinAscent: 1950
OS2WinAOffset: 0
OS2WinDescent: 550
OS2WinDOffset: 0
HheadAscent: 1536
HheadAOffset: 0
HheadDescent: -512
HheadDOffset: 0
OS2SubXSize: 1433
OS2SubYSize: 1331
OS2SubXOff: 0
OS2SubYOff: 286
OS2SupXSize: 1433
OS2SupYSize: 1331
OS2SupXOff: 0
OS2SupYOff: 976
OS2StrikeYSize: 134
OS2StrikeYPos: 512
OS2CapHeight: 1314
OS2XHeight: 978
OS2Vendor: 'tyPL'
OS2CodePages: 2000019f.00000000
OS2UnicodeRanges: 00000001.00000000.00000000.00000000
MarkAttachClasses: 1
DEI: 91125
TtTable: prep
MPPEM
PUSHW_1
 200
GT
IF
PUSHB_2
 1
 1
INSTCTRL
EIF
PUSHW_2
 2048
 2048
MUL
DUP
PUSHB_1
 1
SWAP
WCVTP
PUSHB_1
 3
SWAP
WCVTF
PUSHB_1
 23
RCVT
DUP
DUP
PUSHB_1
 40
ADD
FLOOR
DUP
ROLL
NEQ
IF
PUSHB_1
 2
CINDEX
SUB
PUSHB_1
 1
RCVT
MUL
SWAP
DIV
PUSHB_1
 2
SWAP
WCVTP
PUSHB_3
 11
 1
 6
LOOPCALL
PUSHB_3
 12
 6
 6
LOOPCALL
PUSHB_3
 20
 6
 6
LOOPCALL
EIF
PUSHB_3
 4
 40
 9
RCVT
GT
WCVTP
PUSHB_3
 12
 8
 7
LOOPCALL
PUSHB_2
 6
 1
WCVTP
PUSHB_2
 36
 1
GETINFO
LTEQ
IF
PUSHB_1
 64
GETINFO
IF
PUSHB_2
 6
 3
WCVTP
PUSHB_2
 38
 1
GETINFO
LTEQ
IF
PUSHW_1
 1024
GETINFO
IF
PUSHB_2
 6
 1
WCVTP
EIF
EIF
EIF
EIF
PUSHW_1
 511
SCANCTRL
PUSHB_1
 4
SCANTYPE
PUSHB_2
 5
 0
WCVTP
EndTTInstrs
TtTable: fpgm
PUSHB_1
 0
FDEF
PUSHB_1
 32
ADD
FLOOR
ENDF

StartChar: glyph1
Encoding: 0 -1 0
AltUni2: 000000.ffffffff.0
Width: 0
Flags: W
LayerCount: 2
Fore
SplineSet
-17 -330 m 0,0,1
 -17 -323 -17 -323 -12 -318 c 128,-1,2
 -7 -313 -7 -313 0 -313 c 0,3,4
 8 -313 8 -313 13 -318 c 128,-1,5
 18 -323 18 -323 18 -330 c 0,6,7
 18 -338 18 -338 13 -343 c 128,-1,8
 8 -348 8 -348 0 -348 c 0,9,10
 -7 -348 -7 -348 -12 -343 c 128,-1,11
 -17 -338 -17 -338 -17 -330 c 0,0,1
EndSplineSet
Validated: 1
EndChar

StartChar: A
Encoding: 65 65 2
Width: 2076
GlyphClass: 2
Flags: W
LayerCount: 2
Fore
SplineSet
1293 128 m 1,0,-1
 1566 128 l 1,1,-1
 1566 1015 l 2,2,3
 1566 1054 1566 1054 1569 1096 c 1,4,-1
 1346 900 l 2,5,6
 1323 880 1323 880 1300 886 c 0,7,8
 1278 893 1278 893 1268 906 c 2,9,-1
 1215 979 l 1,10,-1
 1598 1318 l 1,11,-1
 1734 1318 l 1,12,-1
 1734 128 l 1,13,-1
 1984 128 l 1,14,-1
 1984 0 l 1,15,-1
 1293 0 l 1,16,-1
 1293 128 l 1,0,-1
255 128 m 1,17,-1
 528 128 l 1,18,-1
 528 1015 l 2,19,20
 528 1054 528 1054 531 1096 c 1,21,-1
 308 900 l 2,22,23
 284 880 284 880 261.5 886.5 c 128,-1,24
 239 893 239 893 230 906 c 2,25,-1
 177 979 l 1,26,-1
 560 1318 l 1,27,-1
 696 1318 l 1,28,-1
 696 128 l 1,29,-1
 946 128 l 1,30,-1
 946 0 l 1,31,-1
 255 0 l 1,32,-1
 255 128 l 1,17,-1
EndSplineSet
Validated: 1
EndChar

StartChar: B
Encoding: 66 66 3
Width: 2076
GlyphClass: 2
Flags: W
LayerCount: 2
Fore
SplineSet
1577 1329 m 256,0,1
 1660 1329 1660 1329 1731 1304 c 0,2,3
 1802 1279 1802 1279 1854 1232 c 0,4,5
 1906 1185 1906 1185 1935.5 1117 c 0,6,7
 1965 1049 1965 1049 1965 962 c 0,8,9
 1965 889 1965 889 1944 826 c 0,10,11
 1921 760 1921 760 1886 707 c 0,12,13
 1854 659 1854 659 1801 596 c 0,14,15
 1772 561 1772 561 1700 486 c 2,16,-1
 1363 135 l 1,17,18
 1401 146 1401 146 1439.5 152 c 0,19,20
 1478 158 1478 158 1513 158 c 2,21,-1
 1930 158 l 2,22,23
 1957 158 1957 158 1973 142.5 c 0,24,25
 1989 127 1989 127 1989 101 c 2,26,-1
 1989 0 l 1,27,-1
 1130 0 l 1,28,-1
 1130 57 l 2,29,30
 1130 74 1130 74 1137 94 c 0,31,32
 1143 111 1143 111 1161 129 c 2,33,-1
 1568 549 l 2,34,35
 1625 608 1625 608 1662 651 c 0,36,37
 1703 700 1703 700 1732 749.5 c 0,38,39
 1761 799 1761 799 1777 850 c 0,40,41
 1793 901 1793 901 1793 958 c 256,42,43
 1793 1015 1793 1015 1775.5 1058 c 0,44,45
 1758 1101 1758 1101 1728 1129.5 c 0,46,47
 1698 1158 1698 1158 1657 1172 c 0,48,49
 1616 1186 1616 1186 1568 1186 c 0,50,51
 1521 1186 1521 1186 1481 1171.5 c 0,52,53
 1441 1157 1441 1157 1410 1131.5 c 0,54,55
 1379 1106 1379 1106 1357 1070.5 c 0,56,57
 1335 1035 1335 1035 1325 993 c 0,58,59
 1317 959 1317 959 1298 948 c 0,60,61
 1276 938 1276 938 1243 943 c 2,62,-1
 1156 957 l 1,63,64
 1168 1048 1168 1048 1204.5 1117.5 c 0,65,66
 1241 1187 1241 1187 1296 1234 c 0,67,68
 1351 1281 1351 1281 1422.5 1305 c 0,69,70
 1494 1329 1494 1329 1577 1329 c 256,0,1
255 128 m 1,71,-1
 528 128 l 1,72,-1
 528 1015 l 2,73,74
 528 1054 528 1054 531 1096 c 1,75,-1
 308 900 l 2,76,77
 284 880 284 880 261.5 886.5 c 0,78,79
 239 893 239 893 230 906 c 2,80,-1
 177 979 l 1,81,-1
 560 1318 l 1,82,-1
 696 1318 l 1,83,-1
 696 128 l 1,84,-1
 946 128 l 1,85,-1
 946 0 l 1,86,-1
 255 0 l 1,87,-1
 255 128 l 1,71,-1
EndSplineSet
Refer: 97 -1 N 1 0 0 1 1252 0 0
Validated: 1
EndChar

StartChar: C
Encoding: 67 67 4
Width: 2076
GlyphClass: 2
Flags: W
LayerCount: 2
Fore
SplineSet
1593 1329 m 260,0,1
 1676 1329 1676 1329 1745 1305 c 4,2,3
 1814 1281 1814 1281 1864 1237 c 4,4,5
 1914 1193 1914 1193 1941.5 1131 c 4,6,7
 1969 1069 1969 1069 1969 993 c 4,8,9
 1969 930 1969 930 1953.5 881 c 4,10,11
 1938 832 1938 832 1909 795 c 4,12,13
 1880 758 1880 758 1839 732.5 c 4,14,15
 1798 707 1798 707 1747 691 c 5,16,17
 1872 657 1872 657 1935 577.5 c 4,18,19
 1998 498 1998 498 1998 378 c 4,20,21
 1998 287 1998 287 1964 214.5 c 4,22,23
 1930 142 1930 142 1871.5 91 c 4,24,25
 1813 40 1813 40 1735 13 c 4,26,27
 1657 -14 1657 -14 1569 -14 c 4,28,29
 1467 -14 1467 -14 1395 11.5 c 4,30,31
 1323 37 1323 37 1272 83 c 4,32,33
 1221 129 1221 129 1188 191 c 4,34,35
 1155 253 1155 253 1133 327 c 5,36,-1
 1205 358 l 6,37,38
 1234 370 1234 370 1260.5 365 c 4,39,40
 1287 360 1287 360 1299 335 c 4,41,42
 1311 309 1311 309 1328.5 273.5 c 4,43,44
 1346 238 1346 238 1376 205.5 c 4,45,46
 1406 173 1406 173 1452 150.5 c 4,47,48
 1498 128 1498 128 1567 128 c 4,49,50
 1633 128 1633 128 1682 150.5 c 4,51,52
 1731 173 1731 173 1764 208 c 4,53,54
 1797 243 1797 243 1813.5 287 c 4,55,56
 1830 331 1830 331 1830 373 c 4,57,58
 1830 425 1830 425 1817 469.5 c 4,59,60
 1804 514 1804 514 1768 545.5 c 4,61,62
 1732 577 1732 577 1668.5 595 c 4,63,64
 1605 613 1605 613 1505 613 c 5,65,-1
 1505 734 l 5,66,67
 1587 735 1587 735 1644 752.5 c 4,68,69
 1701 770 1701 770 1737 800 c 4,70,71
 1773 830 1773 830 1789 872 c 4,72,73
 1805 914 1805 914 1805 964 c 4,74,75
 1805 1020 1805 1020 1788.5 1061.5 c 4,76,77
 1772 1103 1772 1103 1742.5 1131 c 4,78,79
 1713 1159 1713 1159 1672.5 1172.5 c 4,80,81
 1632 1186 1632 1186 1584 1186 c 260,82,83
 1536 1186 1536 1186 1496.5 1171.5 c 4,84,85
 1457 1157 1457 1157 1426 1131.5 c 4,86,87
 1395 1106 1395 1106 1373.5 1070.5 c 4,88,89
 1352 1035 1352 1035 1341 993 c 4,90,91
 1333 959 1333 959 1313.5 948.5 c 4,92,93
 1294 938 1294 938 1259 943 c 6,94,-1
 1171 957 l 5,95,96
 1184 1048 1184 1048 1220 1117.5 c 4,97,98
 1256 1187 1256 1187 1311.5 1234 c 4,99,100
 1367 1281 1367 1281 1438.5 1305 c 4,101,102
 1510 1329 1510 1329 1593 1329 c 260,0,1
255 128 m 1,103,-1
 528 128 l 1,104,-1
 528 1015 l 2,105,106
 528 1054 528 1054 531 1096 c 1,107,-1
 308 900 l 2,108,109
 284 880 284 880 261.5 886.5 c 0,110,111
 239 893 239 893 230 906 c 2,112,-1
 177 979 l 1,113,-1
 560 1318 l 1,114,-1
 696 1318 l 1,115,-1
 696 128 l 1,116,-1
 946 128 l 1,117,-1
 946 0 l 1,118,-1
 255 0 l 1,119,-1
 255 128 l 1,103,-1
EndSplineSet
Refer: 97 -1 N 1 0 0 1 1011 0 0
Validated: 1
EndChar

StartChar: D
Encoding: 68 68 5
Width: 2076
GlyphClass: 2
Flags: W
LayerCount: 2
Fore
SplineSet
1852 475 m 5,0,-1
 2042 475 l 5,1,-1
 2042 380 l 6,2,3
 2042 365 2042 365 2032.5 354.5 c 4,4,5
 2023 344 2023 344 2005 344 c 6,6,-1
 1852 344 l 5,7,-1
 1852 0 l 5,8,-1
 1705 0 l 5,9,-1
 1705 344 l 5,10,-1
 1140 344 l 6,11,12
 1120 344 1120 344 1107 354.5 c 4,13,14
 1094 365 1094 365 1090 382 c 6,15,-1
 1073 466 l 5,16,-1
 1695 1315 l 5,17,-1
 1852 1315 l 5,18,-1
 1852 475 l 5,0,-1
1705 1011 m 6,19,20
 1705 1059 1705 1059 1711 1116 c 5,21,-1
 1252 475 l 5,22,-1
 1705 475 l 5,23,-1
 1705 1011 l 6,19,20
255 128 m 1,24,-1
 528 128 l 1,25,-1
 528 1015 l 2,26,27
 528 1054 528 1054 531 1096 c 1,28,-1
 308 900 l 2,29,30
 284 880 284 880 261.5 886.5 c 0,31,32
 239 893 239 893 230 906 c 2,33,-1
 177 979 l 1,34,-1
 560 1318 l 1,35,-1
 696 1318 l 1,36,-1
 696 128 l 1,37,-1
 946 128 l 1,38,-1
 946 0 l 1,39,-1
 255 0 l 1,40,-1
 255 128 l 1,24,-1
EndSplineSet
Refer: 97 -1 N 1 0 0 1 1056 0 0
Validated: 1
EndChar

StartChar: E
Encoding: 69 69 6
Width: 2076
GlyphClass: 2
Flags: W
LayerCount: 2
Fore
SplineSet
1915 1241 m 6,0,1
 1915 1206 1915 1206 1892.5 1183 c 4,2,3
 1870 1160 1870 1160 1817 1160 c 6,4,-1
 1420 1160 l 5,5,-1
 1363 820 l 5,6,7
 1413 831 1413 831 1457.5 836 c 4,8,9
 1502 841 1502 841 1544 841 c 4,10,11
 1644 841 1644 841 1721 810.5 c 4,12,13
 1798 780 1798 780 1850 727 c 4,14,15
 1902 674 1902 674 1928.5 601.5 c 4,16,17
 1955 529 1955 529 1955 444 c 4,18,19
 1955 339 1955 339 1919.5 254.5 c 4,20,21
 1884 170 1884 170 1821.5 110 c 4,22,23
 1759 50 1759 50 1674 18 c 4,24,25
 1589 -14 1589 -14 1491 -14 c 4,26,27
 1434 -14 1434 -14 1382 -2.5 c 4,28,29
 1330 9 1330 9 1284 28 c 4,30,31
 1238 47 1238 47 1199.5 72 c 4,32,33
 1161 97 1161 97 1131 125 c 5,34,-1
 1182 196 l 6,35,36
 1200 220 1200 220 1227 220 c 4,37,38
 1245 220 1245 220 1267.5 206 c 4,39,40
 1290 192 1290 192 1322 174.5 c 4,41,42
 1354 157 1354 157 1397 143 c 4,43,44
 1440 129 1440 129 1500 129 c 4,45,46
 1566 129 1566 129 1619 151 c 4,47,48
 1672 173 1672 173 1709 213 c 4,49,50
 1746 253 1746 253 1766 309.5 c 4,51,52
 1786 366 1786 366 1786 436 c 4,53,54
 1786 497 1786 497 1768.5 546 c 4,55,56
 1751 595 1751 595 1716.5 630 c 4,57,58
 1682 665 1682 665 1630 684 c 4,59,60
 1578 703 1578 703 1509 703 c 4,61,62
 1412 703 1412 703 1303 667 c 5,63,-1
 1199 699 l 5,64,-1
 1303 1314 l 5,65,-1
 1915 1314 l 5,66,-1
 1915 1241 l 6,0,1
255 128 m 1,67,-1
 528 128 l 1,68,-1
 528 1015 l 2,69,70
 528 1054 528 1054 531 1096 c 1,71,-1
 308 900 l 2,72,73
 284 880 284 880 261.5 886.5 c 0,74,75
 239 893 239 893 230 906 c 2,76,-1
 177 979 l 1,77,-1
 560 1318 l 1,78,-1
 696 1318 l 1,79,-1
 696 128 l 1,80,-1
 946 128 l 1,81,-1
 946 0 l 1,82,-1
 255 0 l 1,83,-1
 255 128 l 1,67,-1
EndSplineSet
Refer: 97 -1 N 1 0 0 1 1130 0 0
Validated: 1
EndChar

StartChar: F
Encoding: 70 70 7
Width: 2076
GlyphClass: 2
Flags: W
LayerCount: 2
Fore
SplineSet
1293 128 m 1,0,-1
 1566 128 l 1,1,-1
 1566 1015 l 2,2,3
 1566 1054 1566 1054 1569 1096 c 1,4,-1
 1346 900 l 2,5,6
 1323 880 1323 880 1300 886 c 0,7,8
 1277 893 1277 893 1268 906 c 2,9,-1
 1215 979 l 1,10,-1
 1598 1318 l 1,11,-1
 1734 1318 l 1,12,-1
 1734 128 l 1,13,-1
 1984 128 l 1,14,-1
 1984 0 l 1,15,-1
 1293 0 l 1,16,-1
 1293 128 l 1,0,-1
539 1329 m 256,17,18
 622 1329 622 1329 693 1304 c 0,19,20
 764 1279 764 1279 816 1232 c 0,21,22
 868 1185 868 1185 897.5 1117 c 0,23,24
 927 1049 927 1049 927 962 c 0,25,26
 927 889 927 889 905.5 826.5 c 0,27,28
 884 764 884 764 847.5 707 c 0,29,30
 811 650 811 650 763 595.5 c 0,31,32
 715 541 715 541 662 486 c 2,33,-1
 325 135 l 1,34,35
 363 146 363 146 401.5 152 c 0,36,37
 440 158 440 158 475 158 c 2,38,-1
 892 158 l 2,39,40
 919 158 919 158 935 142.5 c 0,41,42
 951 127 951 127 951 101 c 2,43,-1
 951 0 l 1,44,-1
 92 0 l 1,45,-1
 92 57 l 2,46,47
 92 74 92 74 99 93.5 c 0,48,49
 106 113 106 113 123 129 c 2,50,-1
 530 549 l 2,51,52
 582 602 582 602 623.5 651 c 0,53,54
 665 700 665 700 694 749.5 c 0,55,56
 723 799 723 799 739 850 c 0,57,58
 755 901 755 901 755 958 c 256,59,60
 755 1015 755 1015 737.5 1058 c 0,61,62
 720 1101 720 1101 690 1129.5 c 0,63,64
 660 1158 660 1158 619 1172 c 0,65,66
 578 1186 578 1186 530 1186 c 0,67,68
 483 1186 483 1186 443 1171.5 c 0,69,70
 403 1157 403 1157 372 1131.5 c 0,71,72
 341 1106 341 1106 319 1070.5 c 0,73,74
 297 1035 297 1035 287 993 c 0,75,76
 279 959 279 959 259.5 948.5 c 0,77,78
 240 938 240 938 205 943 c 2,79,-1
 118 957 l 1,80,81
 130 1048 130 1048 166.5 1117.5 c 0,82,83
 203 1187 203 1187 258 1234 c 0,84,85
 313 1281 313 1281 384.5 1305 c 0,86,87
 456 1329 456 1329 539 1329 c 256,17,18
EndSplineSet
Refer: 97 -1 N 1 0 0 1 92 0 0
Validated: 1
EndChar

StartChar: G
Encoding: 71 71 8
Width: 2076
GlyphClass: 2
Flags: W
LayerCount: 2
Fore
SplineSet
1577 1329 m 256,0,1
 1660 1329 1660 1329 1731 1304 c 0,2,3
 1802 1279 1802 1279 1854 1232 c 0,4,5
 1906 1185 1906 1185 1935.5 1117 c 0,6,7
 1965 1049 1965 1049 1965 962 c 0,8,9
 1965 889 1965 889 1944 826 c 0,10,11
 1921 760 1921 760 1886 707 c 0,12,13
 1854 659 1854 659 1801 596 c 0,14,15
 1772 561 1772 561 1700 486 c 2,16,-1
 1363 135 l 1,17,18
 1401 146 1401 146 1439.5 152 c 0,19,20
 1478 158 1478 158 1513 158 c 2,21,-1
 1930 158 l 2,22,23
 1957 158 1957 158 1973 142.5 c 0,24,25
 1989 127 1989 127 1989 101 c 2,26,-1
 1989 0 l 1,27,-1
 1130 0 l 1,28,-1
 1130 57 l 2,29,30
 1130 74 1130 74 1137 94 c 0,31,32
 1143 110 1143 110 1161 129 c 2,33,-1
 1568 549 l 2,34,35
 1626 609 1626 609 1662 651 c 0,36,37
 1703 700 1703 700 1732 749.5 c 0,38,39
 1761 799 1761 799 1777 850 c 0,40,41
 1793 901 1793 901 1793 958 c 256,42,43
 1793 1015 1793 1015 1775.5 1058 c 0,44,45
 1758 1101 1758 1101 1728 1129.5 c 0,46,47
 1698 1158 1698 1158 1657 1172 c 0,48,49
 1616 1186 1616 1186 1568 1186 c 0,50,51
 1521 1186 1521 1186 1481 1171.5 c 0,52,53
 1441 1157 1441 1157 1410 1131.5 c 0,54,55
 1379 1106 1379 1106 1357 1070.5 c 0,56,57
 1335 1035 1335 1035 1325 993 c 0,58,59
 1317 959 1317 959 1298 948 c 0,60,61
 1276 938 1276 938 1243 943 c 2,62,-1
 1156 957 l 1,63,64
 1168 1048 1168 1048 1204.5 1117.5 c 0,65,66
 1241 1187 1241 1187 1296 1234 c 0,67,68
 1351 1281 1351 1281 1422.5 1305 c 0,69,70
 1494 1329 1494 1329 1577 1329 c 256,0,1
539 1329 m 256,71,72
 622 1329 622 1329 693 1304 c 0,73,74
 764 1279 764 1279 816 1232 c 0,75,76
 868 1185 868 1185 897.5 1117 c 0,77,78
 927 1049 927 1049 927 962 c 0,79,80
 927 889 927 889 905.5 826.5 c 0,81,82
 884 764 884 764 847.5 707 c 0,83,84
 811 650 811 650 763 595.5 c 0,85,86
 715 541 715 541 662 486 c 2,87,-1
 325 135 l 1,88,89
 363 146 363 146 401.5 152 c 0,90,91
 440 158 440 158 475 158 c 2,92,-1
 892 158 l 2,93,94
 919 158 919 158 935 142.5 c 4,95,96
 951 127 951 127 951 101 c 2,97,-1
 951 0 l 1,98,-1
 92 0 l 1,99,-1
 92 57 l 2,100,101
 92 74 92 74 99 93.5 c 0,102,103
 106 113 106 113 123 129 c 2,104,-1
 530 549 l 2,105,106
 582 602 582 602 623.5 651 c 0,107,108
 665 700 665 700 694 749.5 c 0,109,110
 723 799 723 799 739 850 c 0,111,112
 755 901 755 901 755 958 c 256,113,114
 755 1015 755 1015 737.5 1058 c 0,115,116
 720 1101 720 1101 690 1129.5 c 0,117,118
 660 1158 660 1158 619 1172 c 0,119,120
 578 1186 578 1186 530 1186 c 0,121,122
 483 1186 483 1186 443 1171.5 c 0,123,124
 403 1157 403 1157 372 1131.5 c 0,125,126
 341 1106 341 1106 319 1070.5 c 0,127,128
 297 1035 297 1035 287 993 c 0,129,130
 279 959 279 959 259.5 948.5 c 0,131,132
 240 938 240 938 205 943 c 2,133,-1
 118 957 l 1,134,135
 130 1048 130 1048 166.5 1117.5 c 0,136,137
 203 1187 203 1187 258 1234 c 0,138,139
 313 1281 313 1281 384.5 1305 c 0,140,141
 456 1329 456 1329 539 1329 c 256,71,72
EndSplineSet
Refer: 97 -1 N 1 0 0 1 1384 0 0
Refer: 97 -1 N 1 0 0 1 92 0 0
Validated: 1
EndChar

StartChar: H
Encoding: 72 72 9
Width: 2076
GlyphClass: 2
Flags: W
LayerCount: 2
Fore
SplineSet
1593 1329 m 260,0,1
 1676 1329 1676 1329 1745 1305 c 4,2,3
 1814 1281 1814 1281 1864 1237 c 4,4,5
 1914 1193 1914 1193 1941.5 1131 c 4,6,7
 1969 1069 1969 1069 1969 993 c 4,8,9
 1969 930 1969 930 1953.5 881 c 4,10,11
 1938 832 1938 832 1909 795 c 4,12,13
 1880 758 1880 758 1839 732.5 c 4,14,15
 1798 707 1798 707 1747 691 c 5,16,17
 1872 657 1872 657 1935 577.5 c 4,18,19
 1998 498 1998 498 1998 378 c 4,20,21
 1998 287 1998 287 1964 214.5 c 4,22,23
 1930 142 1930 142 1871.5 91 c 4,24,25
 1813 40 1813 40 1735 13 c 4,26,27
 1657 -14 1657 -14 1569 -14 c 4,28,29
 1467 -14 1467 -14 1395 11.5 c 4,30,31
 1323 37 1323 37 1272 83 c 4,32,33
 1221 129 1221 129 1188 191 c 4,34,35
 1155 253 1155 253 1133 327 c 5,36,-1
 1205 358 l 6,37,38
 1234 370 1234 370 1260.5 365 c 4,39,40
 1287 360 1287 360 1299 335 c 4,41,42
 1311 309 1311 309 1328.5 273.5 c 4,43,44
 1346 238 1346 238 1376 205.5 c 4,45,46
 1406 173 1406 173 1452 150.5 c 4,47,48
 1498 128 1498 128 1567 128 c 4,49,50
 1633 128 1633 128 1682 150.5 c 4,51,52
 1731 173 1731 173 1764 208 c 4,53,54
 1797 243 1797 243 1813.5 287 c 4,55,56
 1830 331 1830 331 1830 373 c 4,57,58
 1830 425 1830 425 1817 469.5 c 4,59,60
 1804 514 1804 514 1768 545.5 c 4,61,62
 1732 577 1732 577 1668.5 595 c 4,63,64
 1605 613 1605 613 1505 613 c 5,65,-1
 1505 734 l 5,66,67
 1587 735 1587 735 1644 752.5 c 4,68,69
 1701 770 1701 770 1737 800 c 4,70,71
 1773 830 1773 830 1789 872 c 4,72,73
 1805 914 1805 914 1805 964 c 4,74,75
 1805 1020 1805 1020 1788.5 1061.5 c 4,76,77
 1772 1103 1772 1103 1742.5 1131 c 4,78,79
 1713 1159 1713 1159 1672.5 1172.5 c 4,80,81
 1632 1186 1632 1186 1584 1186 c 260,82,83
 1536 1186 1536 1186 1496.5 1171.5 c 4,84,85
 1457 1157 1457 1157 1426 1131.5 c 4,86,87
 1395 1106 1395 1106 1373.5 1070.5 c 4,88,89
 1352 1035 1352 1035 1341 993 c 4,90,91
 1333 959 1333 959 1313.5 948.5 c 4,92,93
 1294 938 1294 938 1259 943 c 6,94,-1
 1171 957 l 5,95,96
 1184 1048 1184 1048 1220 1117.5 c 4,97,98
 1256 1187 1256 1187 1311.5 1234 c 4,99,100
 1367 1281 1367 1281 1438.5 1305 c 4,101,102
 1510 1329 1510 1329 1593 1329 c 260,0,1
539 1329 m 256,103,104
 622 1329 622 1329 693 1304 c 0,105,106
 764 1279 764 1279 816 1232 c 0,107,108
 868 1185 868 1185 897.5 1117 c 0,109,110
 927 1049 927 1049 927 962 c 0,111,112
 927 889 927 889 905.5 826.5 c 0,113,114
 884 764 884 764 847.5 707 c 0,115,116
 811 650 811 650 763 595.5 c 0,117,118
 715 541 715 541 662 486 c 2,119,-1
 325 135 l 1,120,121
 363 146 363 146 401.5 152 c 0,122,123
 440 158 440 158 475 158 c 2,124,-1
 892 158 l 2,125,126
 919 158 919 158 935 142.5 c 0,127,128
 951 127 951 127 951 101 c 2,129,-1
 951 0 l 1,130,-1
 92 0 l 1,131,-1
 92 57 l 2,132,133
 92 74 92 74 99 93.5 c 0,134,135
 106 113 106 113 123 129 c 2,136,-1
 530 549 l 2,137,138
 582 602 582 602 623.5 651 c 0,139,140
 665 700 665 700 694 749.5 c 0,141,142
 723 799 723 799 739 850 c 0,143,144
 755 901 755 901 755 958 c 256,145,146
 755 1015 755 1015 737.5 1058 c 0,147,148
 720 1101 720 1101 690 1129.5 c 0,149,150
 660 1158 660 1158 619 1172 c 0,151,152
 578 1186 578 1186 530 1186 c 0,153,154
 483 1186 483 1186 443 1171.5 c 0,155,156
 403 1157 403 1157 372 1131.5 c 0,157,158
 341 1106 341 1106 319 1070.5 c 0,159,160
 297 1035 297 1035 287 993 c 0,161,162
 279 959 279 959 259.5 948.5 c 0,163,164
 240 938 240 938 205 943 c 2,165,-1
 118 957 l 1,166,167
 130 1048 130 1048 166.5 1117.5 c 0,168,169
 203 1187 203 1187 258 1234 c 0,170,171
 313 1281 313 1281 384.5 1305 c 0,172,173
 456 1329 456 1329 539 1329 c 256,103,104
EndSplineSet
Refer: 97 -1 N 1 0 0 1 92 0 0
Validated: 1
EndChar

StartChar: I
Encoding: 73 73 10
Width: 2076
GlyphClass: 2
Flags: W
LayerCount: 2
Fore
SplineSet
1852 475 m 5,0,-1
 2042 475 l 5,1,-1
 2042 380 l 6,2,3
 2042 365 2042 365 2032.5 354.5 c 4,4,5
 2023 344 2023 344 2005 344 c 6,6,-1
 1852 344 l 5,7,-1
 1852 0 l 5,8,-1
 1705 0 l 5,9,-1
 1705 344 l 5,10,-1
 1140 344 l 6,11,12
 1120 344 1120 344 1107 354.5 c 4,13,14
 1094 365 1094 365 1090 382 c 6,15,-1
 1073 466 l 5,16,-1
 1695 1315 l 5,17,-1
 1852 1315 l 5,18,-1
 1852 475 l 5,0,-1
1705 1011 m 6,19,20
 1705 1059 1705 1059 1711 1116 c 5,21,-1
 1252 475 l 5,22,-1
 1705 475 l 5,23,-1
 1705 1011 l 6,19,20
539 1329 m 256,24,25
 622 1329 622 1329 693 1304 c 0,26,27
 764 1279 764 1279 816 1232 c 0,28,29
 868 1185 868 1185 897.5 1117 c 0,30,31
 927 1049 927 1049 927 962 c 0,32,33
 927 889 927 889 905.5 826.5 c 0,34,35
 884 764 884 764 847.5 707 c 0,36,37
 811 650 811 650 763 595.5 c 0,38,39
 715 541 715 541 662 486 c 2,40,-1
 325 135 l 1,41,42
 363 146 363 146 401.5 152 c 0,43,44
 440 158 440 158 475 158 c 2,45,-1
 892 158 l 2,46,47
 919 158 919 158 935 142.5 c 0,48,49
 951 127 951 127 951 101 c 2,50,-1
 951 0 l 1,51,-1
 92 0 l 1,52,-1
 92 57 l 2,53,54
 92 74 92 74 99 93.5 c 0,55,56
 106 113 106 113 123 129 c 2,57,-1
 530 549 l 2,58,59
 582 602 582 602 623.5 651 c 0,60,61
 665 700 665 700 694 749.5 c 0,62,63
 723 799 723 799 739 850 c 0,64,65
 755 901 755 901 755 958 c 256,66,67
 755 1015 755 1015 737.5 1058 c 0,68,69
 720 1101 720 1101 690 1129.5 c 0,70,71
 660 1158 660 1158 619 1172 c 0,72,73
 578 1186 578 1186 530 1186 c 0,74,75
 483 1186 483 1186 443 1171.5 c 0,76,77
 403 1157 403 1157 372 1131.5 c 0,78,79
 341 1106 341 1106 319 1070.5 c 0,80,81
 297 1035 297 1035 287 993 c 0,82,83
 279 959 279 959 259.5 948.5 c 0,84,85
 240 938 240 938 205 943 c 2,86,-1
 118 957 l 1,87,88
 130 1048 130 1048 166.5 1117.5 c 0,89,90
 203 1187 203 1187 258 1234 c 0,91,92
 313 1281 313 1281 384.5 1305 c 0,93,94
 456 1329 456 1329 539 1329 c 256,24,25
EndSplineSet
Refer: 97 -1 N 1 0 0 1 92 0 0
Validated: 1
EndChar

StartChar: J
Encoding: 74 74 11
Width: 2076
GlyphClass: 2
Flags: W
LayerCount: 2
Fore
SplineSet
1852 475 m 5,0,-1
 2042 475 l 5,1,-1
 2042 380 l 6,2,3
 2042 365 2042 365 2032.5 354.5 c 4,4,5
 2023 344 2023 344 2005 344 c 6,6,-1
 1852 344 l 5,7,-1
 1852 0 l 5,8,-1
 1705 0 l 5,9,-1
 1705 344 l 5,10,-1
 1140 344 l 6,11,12
 1120 344 1120 344 1107 354.5 c 4,13,14
 1094 365 1094 365 1090 382 c 6,15,-1
 1073 466 l 5,16,-1
 1695 1315 l 5,17,-1
 1852 1315 l 5,18,-1
 1852 475 l 5,0,-1
1705 1011 m 6,19,20
 1705 1059 1705 1059 1711 1116 c 5,21,-1
 1252 475 l 5,22,-1
 1705 475 l 5,23,-1
 1705 1011 l 6,19,20
539 1329 m 256,24,25
 622 1329 622 1329 693 1304 c 0,26,27
 764 1279 764 1279 816 1232 c 0,28,29
 868 1185 868 1185 897.5 1117 c 0,30,31
 927 1049 927 1049 927 962 c 0,32,33
 927 889 927 889 905.5 826.5 c 0,34,35
 884 764 884 764 847.5 707 c 0,36,37
 811 650 811 650 763 595.5 c 0,38,39
 715 541 715 541 662 486 c 2,40,-1
 325 135 l 1,41,42
 363 146 363 146 401.5 152 c 0,43,44
 440 158 440 158 475 158 c 2,45,-1
 892 158 l 2,46,47
 919 158 919 158 935 142.5 c 0,48,49
 951 127 951 127 951 101 c 2,50,-1
 951 0 l 1,51,-1
 92 0 l 1,52,-1
 92 57 l 2,53,54
 92 74 92 74 99 93.5 c 0,55,56
 106 113 106 113 123 129 c 2,57,-1
 530 549 l 2,58,59
 582 602 582 602 623.5 651 c 0,60,61
 665 700 665 700 694 749.5 c 0,62,63
 723 799 723 799 739 850 c 0,64,65
 755 901 755 901 755 958 c 256,66,67
 755 1015 755 1015 737.5 1058 c 0,68,69
 720 1101 720 1101 690 1129.5 c 0,70,71
 660 1158 660 1158 619 1172 c 0,72,73
 578 1186 578 1186 530 1186 c 0,74,75
 483 1186 483 1186 443 1171.5 c 0,76,77
 403 1157 403 1157 372 1131.5 c 0,78,79
 341 1106 341 1106 319 1070.5 c 0,80,81
 297 1035 297 1035 287 993 c 0,82,83
 279 959 279 959 259.5 948.5 c 0,84,85
 240 938 240 938 205 943 c 2,86,-1
 118 957 l 1,87,88
 130 1048 130 1048 166.5 1117.5 c 0,89,90
 203 1187 203 1187 258 1234 c 0,91,92
 313 1281 313 1281 384.5 1305 c 0,93,94
 456 1329 456 1329 539 1329 c 256,24,25
EndSplineSet
Refer: 97 -1 N 1 0 0 1 92 0 0
Validated: 1
EndChar

StartChar: K
Encoding: 75 75 12
Width: 2076
GlyphClass: 2
Flags: W
LayerCount: 2
Fore
SplineSet
1915 1241 m 6,0,1
 1915 1206 1915 1206 1892.5 1183 c 4,2,3
 1870 1160 1870 1160 1817 1160 c 6,4,-1
 1420 1160 l 5,5,-1
 1363 820 l 5,6,7
 1413 831 1413 831 1457.5 836 c 4,8,9
 1502 841 1502 841 1544 841 c 4,10,11
 1644 841 1644 841 1721 810.5 c 4,12,13
 1798 780 1798 780 1850 727 c 4,14,15
 1902 674 1902 674 1928.5 601.5 c 4,16,17
 1955 529 1955 529 1955 444 c 4,18,19
 1955 339 1955 339 1919.5 254.5 c 4,20,21
 1884 170 1884 170 1821.5 110 c 4,22,23
 1759 50 1759 50 1674 18 c 4,24,25
 1589 -14 1589 -14 1491 -14 c 4,26,27
 1434 -14 1434 -14 1382 -2.5 c 4,28,29
 1330 9 1330 9 1284 28 c 4,30,31
 1238 47 1238 47 1199.5 72 c 4,32,33
 1161 97 1161 97 1131 125 c 5,34,-1
 1182 196 l 6,35,36
 1200 220 1200 220 1227 220 c 4,37,38
 1245 220 1245 220 1267.5 206 c 4,39,40
 1290 192 1290 192 1322 174.5 c 4,41,42
 1354 157 1354 157 1397 143 c 4,43,44
 1440 129 1440 129 1500 129 c 4,45,46
 1566 129 1566 129 1619 151 c 4,47,48
 1672 173 1672 173 1709 213 c 4,49,50
 1746 253 1746 253 1766 309.5 c 4,51,52
 1786 366 1786 366 1786 436 c 4,53,54
 1786 497 1786 497 1768.5 546 c 4,55,56
 1751 595 1751 595 1716.5 630 c 4,57,58
 1682 665 1682 665 1630 684 c 4,59,60
 1578 703 1578 703 1509 703 c 4,61,62
 1412 703 1412 703 1303 667 c 5,63,-1
 1199 699 l 5,64,-1
 1303 1314 l 5,65,-1
 1915 1314 l 5,66,-1
 1915 1241 l 6,0,1
539 1329 m 256,67,68
 622 1329 622 1329 693 1304 c 0,69,70
 764 1279 764 1279 816 1232 c 0,71,72
 868 1185 868 1185 897.5 1117 c 0,73,74
 927 1049 927 1049 927 962 c 0,75,76
 927 889 927 889 905.5 826.5 c 0,77,78
 884 764 884 764 847.5 707 c 0,79,80
 811 650 811 650 763 595.5 c 0,81,82
 715 541 715 541 662 486 c 2,83,-1
 325 135 l 1,84,85
 363 146 363 146 401.5 152 c 0,86,87
 440 158 440 158 475 158 c 2,88,-1
 892 158 l 2,89,90
 919 158 919 158 935 142.5 c 0,91,92
 951 127 951 127 951 101 c 2,93,-1
 951 0 l 1,94,-1
 92 0 l 1,95,-1
 92 57 l 2,96,97
 92 74 92 74 99 93.5 c 0,98,99
 106 113 106 113 123 129 c 2,100,-1
 530 549 l 2,101,102
 582 602 582 602 623.5 651 c 0,103,104
 665 700 665 700 694 749.5 c 0,105,106
 723 799 723 799 739 850 c 0,107,108
 755 901 755 901 755 958 c 256,109,110
 755 1015 755 1015 737.5 1058 c 0,111,112
 720 1101 720 1101 690 1129.5 c 0,113,114
 660 1158 660 1158 619 1172 c 0,115,116
 578 1186 578 1186 530 1186 c 0,117,118
 483 1186 483 1186 443 1171.5 c 0,119,120
 403 1157 403 1157 372 1131.5 c 0,121,122
 341 1106 341 1106 319 1070.5 c 0,123,124
 297 1035 297 1035 287 993 c 0,125,126
 279 959 279 959 259.5 948.5 c 0,127,128
 240 938 240 938 205 943 c 2,129,-1
 118 957 l 1,130,131
 130 1048 130 1048 166.5 1117.5 c 0,132,133
 203 1187 203 1187 258 1234 c 0,134,135
 313 1281 313 1281 384.5 1305 c 0,136,137
 456 1329 456 1329 539 1329 c 256,67,68
EndSplineSet
Refer: 97 -1 N 1 0 0 1 1130 0 0
Refer: 97 -1 N 1 0 0 1 92 0 0
Validated: 1
EndChar

StartChar: L
Encoding: 76 76 13
Width: 2076
GlyphClass: 2
Flags: W
LayerCount: 2
Fore
SplineSet
1293 128 m 1,0,-1
 1566 128 l 1,1,-1
 1566 1015 l 2,2,3
 1566 1054 1566 1054 1569 1096 c 1,4,-1
 1346 900 l 2,5,6
 1323 880 1323 880 1300 886 c 0,7,8
 1277 893 1277 893 1268 906 c 2,9,-1
 1215 979 l 1,10,-1
 1598 1318 l 1,11,-1
 1734 1318 l 1,12,-1
 1734 128 l 1,13,-1
 1984 128 l 1,14,-1
 1984 0 l 1,15,-1
 1293 0 l 1,16,-1
 1293 128 l 1,0,-1
555 1329 m 256,17,18
 638 1329 638 1329 707 1305 c 0,19,20
 776 1281 776 1281 826 1237 c 0,21,22
 876 1193 876 1193 903.5 1131 c 0,23,24
 931 1069 931 1069 931 993 c 0,25,26
 931 930 931 930 915.5 881 c 0,27,28
 900 832 900 832 871 795 c 0,29,30
 842 758 842 758 801 732.5 c 0,31,32
 760 707 760 707 709 691 c 1,33,34
 834 657 834 657 897 577.5 c 0,35,36
 960 498 960 498 960 378 c 0,37,38
 960 287 960 287 926 214.5 c 0,39,40
 892 142 892 142 833.5 91 c 0,41,42
 775 40 775 40 697 13 c 0,43,44
 619 -14 619 -14 531 -14 c 0,45,46
 429 -14 429 -14 357 11.5 c 0,47,48
 285 37 285 37 234 83 c 0,49,50
 183 129 183 129 150 191 c 0,51,52
 117 253 117 253 95 327 c 1,53,-1
 167 358 l 2,54,55
 196 370 196 370 222.5 365 c 0,56,57
 249 360 249 360 261 335 c 0,58,59
 273 309 273 309 290.5 273.5 c 0,60,61
 308 238 308 238 338 205.5 c 0,62,63
 368 173 368 173 414 150.5 c 0,64,65
 460 128 460 128 529 128 c 0,66,67
 595 128 595 128 644 150.5 c 0,68,69
 693 173 693 173 726 208 c 0,70,71
 759 243 759 243 775.5 287 c 0,72,73
 792 331 792 331 792 373 c 0,74,75
 792 425 792 425 779 469.5 c 0,76,77
 766 514 766 514 730 545.5 c 0,78,79
 694 577 694 577 630.5 595 c 0,80,81
 567 613 567 613 467 613 c 1,82,-1
 467 734 l 1,83,84
 549 735 549 735 606 752.5 c 0,85,86
 663 770 663 770 699 800 c 0,87,88
 735 830 735 830 751 872 c 0,89,90
 767 914 767 914 767 964 c 0,91,92
 767 1020 767 1020 750.5 1061.5 c 0,93,94
 734 1103 734 1103 704.5 1131 c 0,95,96
 675 1159 675 1159 634.5 1172.5 c 0,97,98
 594 1186 594 1186 546 1186 c 256,99,100
 498 1186 498 1186 458.5 1171.5 c 0,101,102
 419 1157 419 1157 388 1131.5 c 0,103,104
 357 1106 357 1106 335.5 1070.5 c 0,105,106
 314 1035 314 1035 303 993 c 0,107,108
 295 959 295 959 275.5 948.5 c 0,109,110
 256 938 256 938 221 943 c 2,111,-1
 133 957 l 1,112,113
 146 1048 146 1048 182 1117.5 c 0,114,115
 218 1187 218 1187 273.5 1234 c 0,116,117
 329 1281 329 1281 400.5 1305 c 0,118,119
 472 1329 472 1329 555 1329 c 256,17,18
EndSplineSet
Refer: 97 -1 N 1 0 0 1 95 0 0
Validated: 1
EndChar

StartChar: M
Encoding: 77 77 14
Width: 2076
GlyphClass: 2
Flags: W
LayerCount: 2
Fore
SplineSet
1577 1329 m 256,0,1
 1660 1329 1660 1329 1731 1304 c 0,2,3
 1802 1279 1802 1279 1854 1232 c 0,4,5
 1906 1185 1906 1185 1935.5 1117 c 0,6,7
 1965 1049 1965 1049 1965 962 c 0,8,9
 1965 889 1965 889 1943.5 826.5 c 0,10,11
 1922 764 1922 764 1885.5 707 c 0,12,13
 1849 650 1849 650 1801 596 c 0,14,15
 1758 546 1758 546 1700 486 c 2,16,-1
 1363 135 l 1,17,18
 1401 146 1401 146 1439.5 152 c 0,19,20
 1478 158 1478 158 1513 158 c 2,21,-1
 1930 158 l 2,22,23
 1957 158 1957 158 1973 142.5 c 0,24,25
 1989 127 1989 127 1989 101 c 2,26,-1
 1989 0 l 1,27,-1
 1130 0 l 1,28,-1
 1130 57 l 2,29,30
 1130 74 1130 74 1137 94 c 0,31,32
 1143 110 1143 110 1161 129 c 2,33,-1
 1568 549 l 2,34,35
 1624 607 1624 607 1662 651 c 0,36,37
 1703 700 1703 700 1732 749.5 c 0,38,39
 1761 799 1761 799 1777 850 c 0,40,41
 1793 901 1793 901 1793 958 c 256,42,43
 1793 1015 1793 1015 1775.5 1058 c 0,44,45
 1758 1101 1758 1101 1728 1129.5 c 0,46,47
 1698 1158 1698 1158 1657 1172 c 0,48,49
 1616 1186 1616 1186 1568 1186 c 0,50,51
 1521 1186 1521 1186 1481 1171.5 c 0,52,53
 1441 1157 1441 1157 1410 1131.5 c 0,54,55
 1379 1106 1379 1106 1357 1070.5 c 0,56,57
 1335 1035 1335 1035 1325 993 c 0,58,59
 1317 959 1317 959 1298 948 c 0,60,61
 1276 938 1276 938 1243 943 c 2,62,-1
 1156 957 l 1,63,64
 1168 1048 1168 1048 1204.5 1117.5 c 0,65,66
 1241 1187 1241 1187 1296 1234 c 0,67,68
 1351 1281 1351 1281 1422.5 1305 c 0,69,70
 1494 1329 1494 1329 1577 1329 c 256,0,1
555 1329 m 256,71,72
 638 1329 638 1329 707 1305 c 0,73,74
 776 1281 776 1281 826 1237 c 0,75,76
 876 1193 876 1193 903.5 1131 c 0,77,78
 931 1069 931 1069 931 993 c 0,79,80
 931 930 931 930 915.5 881 c 0,81,82
 900 832 900 832 871 795 c 0,83,84
 842 758 842 758 801 732.5 c 0,85,86
 760 707 760 707 709 691 c 1,87,88
 834 657 834 657 897 577.5 c 0,89,90
 960 498 960 498 960 378 c 0,91,92
 960 287 960 287 926 214.5 c 0,93,94
 892 142 892 142 833.5 91 c 0,95,96
 775 40 775 40 697 13 c 0,97,98
 619 -14 619 -14 531 -14 c 0,99,100
 429 -14 429 -14 357 11.5 c 0,101,102
 285 37 285 37 234 83 c 0,103,104
 183 129 183 129 150 191 c 0,105,106
 117 253 117 253 95 327 c 1,107,-1
 167 358 l 2,108,109
 196 370 196 370 222.5 365 c 0,110,111
 249 360 249 360 261 335 c 0,112,113
 273 309 273 309 290.5 273.5 c 0,114,115
 308 238 308 238 338 205.5 c 0,116,117
 368 173 368 173 414 150.5 c 0,118,119
 460 128 460 128 529 128 c 0,120,121
 595 128 595 128 644 150.5 c 0,122,123
 693 173 693 173 726 208 c 0,124,125
 759 243 759 243 775.5 287 c 0,126,127
 792 331 792 331 792 373 c 0,128,129
 792 425 792 425 779 469.5 c 0,130,131
 766 514 766 514 730 545.5 c 0,132,133
 694 577 694 577 630.5 595 c 0,134,135
 567 613 567 613 467 613 c 1,136,-1
 467 734 l 1,137,138
 549 735 549 735 606 752.5 c 0,139,140
 663 770 663 770 699 800 c 0,141,142
 735 830 735 830 751 872 c 0,143,144
 767 914 767 914 767 964 c 0,145,146
 767 1020 767 1020 750.5 1061.5 c 0,147,148
 734 1103 734 1103 704.5 1131 c 0,149,150
 675 1159 675 1159 634.5 1172.5 c 0,151,152
 594 1186 594 1186 546 1186 c 256,153,154
 498 1186 498 1186 458.5 1171.5 c 0,155,156
 419 1157 419 1157 388 1131.5 c 0,157,158
 357 1106 357 1106 335.5 1070.5 c 0,159,160
 314 1035 314 1035 303 993 c 0,161,162
 295 959 295 959 275.5 948.5 c 0,163,164
 256 938 256 938 221 943 c 2,165,-1
 133 957 l 1,166,167
 146 1048 146 1048 182 1117.5 c 0,168,169
 218 1187 218 1187 273.5 1234 c 0,170,171
 329 1281 329 1281 400.5 1305 c 0,172,173
 472 1329 472 1329 555 1329 c 256,71,72
EndSplineSet
Refer: 97 -1 N 1 0 0 1 1093 0 0
Refer: 97 -1 N 1 0 0 1 95 0 0
Validated: 1
EndChar

StartChar: N
Encoding: 78 78 15
Width: 2076
GlyphClass: 2
Flags: W
LayerCount: 2
Fore
SplineSet
1593 1329 m 260,0,1
 1676 1329 1676 1329 1745 1305 c 4,2,3
 1814 1281 1814 1281 1864 1237 c 4,4,5
 1914 1193 1914 1193 1941.5 1131 c 4,6,7
 1969 1069 1969 1069 1969 993 c 4,8,9
 1969 930 1969 930 1953.5 881 c 4,10,11
 1938 832 1938 832 1909 795 c 4,12,13
 1880 758 1880 758 1839 732.5 c 4,14,15
 1798 707 1798 707 1747 691 c 5,16,17
 1872 657 1872 657 1935 577.5 c 4,18,19
 1998 498 1998 498 1998 378 c 4,20,21
 1998 287 1998 287 1964 214.5 c 4,22,23
 1930 142 1930 142 1871.5 91 c 4,24,25
 1813 40 1813 40 1735 13 c 4,26,27
 1657 -14 1657 -14 1569 -14 c 4,28,29
 1467 -14 1467 -14 1395 11.5 c 4,30,31
 1323 37 1323 37 1272 83 c 4,32,33
 1221 129 1221 129 1188 191 c 4,34,35
 1155 253 1155 253 1133 327 c 5,36,-1
 1205 358 l 6,37,38
 1234 370 1234 370 1260.5 365 c 4,39,40
 1287 360 1287 360 1299 335 c 4,41,42
 1311 309 1311 309 1328.5 273.5 c 4,43,44
 1346 238 1346 238 1376 205.5 c 4,45,46
 1406 173 1406 173 1452 150.5 c 4,47,48
 1498 128 1498 128 1567 128 c 4,49,50
 1633 128 1633 128 1682 150.5 c 4,51,52
 1731 173 1731 173 1764 208 c 4,53,54
 1797 243 1797 243 1813.5 287 c 4,55,56
 1830 331 1830 331 1830 373 c 4,57,58
 1830 425 1830 425 1817 469.5 c 4,59,60
 1804 514 1804 514 1768 545.5 c 4,61,62
 1732 577 1732 577 1668.5 595 c 4,63,64
 1605 613 1605 613 1505 613 c 5,65,-1
 1505 734 l 5,66,67
 1587 735 1587 735 1644 752.5 c 4,68,69
 1701 770 1701 770 1737 800 c 4,70,71
 1773 830 1773 830 1789 872 c 4,72,73
 1805 914 1805 914 1805 964 c 4,74,75
 1805 1020 1805 1020 1788.5 1061.5 c 4,76,77
 1772 1103 1772 1103 1742.5 1131 c 4,78,79
 1713 1159 1713 1159 1672.5 1172.5 c 4,80,81
 1632 1186 1632 1186 1584 1186 c 260,82,83
 1536 1186 1536 1186 1496.5 1171.5 c 4,84,85
 1457 1157 1457 1157 1426 1131.5 c 4,86,87
 1395 1106 1395 1106 1373.5 1070.5 c 4,88,89
 1352 1035 1352 1035 1341 993 c 4,90,91
 1333 959 1333 959 1313.5 948.5 c 4,92,93
 1294 938 1294 938 1259 943 c 6,94,-1
 1171 957 l 5,95,96
 1184 1048 1184 1048 1220 1117.5 c 4,97,98
 1256 1187 1256 1187 1311.5 1234 c 4,99,100
 1367 1281 1367 1281 1438.5 1305 c 4,101,102
 1510 1329 1510 1329 1593 1329 c 260,0,1
555 1329 m 256,103,104
 638 1329 638 1329 707 1305 c 0,105,106
 776 1281 776 1281 826 1237 c 0,107,108
 876 1193 876 1193 903.5 1131 c 0,109,110
 931 1069 931 1069 931 993 c 0,111,112
 931 930 931 930 915.5 881 c 0,113,114
 900 832 900 832 871 795 c 0,115,116
 842 758 842 758 801 732.5 c 0,117,118
 760 707 760 707 709 691 c 1,119,120
 834 657 834 657 897 577.5 c 0,121,122
 960 498 960 498 960 378 c 0,123,124
 960 287 960 287 926 214.5 c 0,125,126
 892 142 892 142 833.5 91 c 0,127,128
 775 40 775 40 697 13 c 0,129,130
 619 -14 619 -14 531 -14 c 0,131,132
 429 -14 429 -14 357 11.5 c 0,133,134
 285 37 285 37 234 83 c 0,135,136
 183 129 183 129 150 191 c 0,137,138
 117 253 117 253 95 327 c 1,139,-1
 167 358 l 2,140,141
 196 370 196 370 222.5 365 c 0,142,143
 249 360 249 360 261 335 c 0,144,145
 273 309 273 309 290.5 273.5 c 0,146,147
 308 238 308 238 338 205.5 c 0,148,149
 368 173 368 173 414 150.5 c 0,150,151
 460 128 460 128 529 128 c 0,152,153
 595 128 595 128 644 150.5 c 0,154,155
 693 173 693 173 726 208 c 0,156,157
 759 243 759 243 775.5 287 c 0,158,159
 792 331 792 331 792 373 c 0,160,161
 792 425 792 425 779 469.5 c 0,162,163
 766 514 766 514 730 545.5 c 0,164,165
 694 577 694 577 630.5 595 c 0,166,167
 567 613 567 613 467 613 c 1,168,-1
 467 734 l 1,169,170
 549 735 549 735 606 752.5 c 0,171,172
 663 770 663 770 699 800 c 0,173,174
 735 830 735 830 751 872 c 0,175,176
 767 914 767 914 767 964 c 0,177,178
 767 1020 767 1020 750.5 1061.5 c 0,179,180
 734 1103 734 1103 704.5 1131 c 0,181,182
 675 1159 675 1159 634.5 1172.5 c 0,183,184
 594 1186 594 1186 546 1186 c 256,185,186
 498 1186 498 1186 458.5 1171.5 c 0,187,188
 419 1157 419 1157 388 1131.5 c 0,189,190
 357 1106 357 1106 335.5 1070.5 c 0,191,192
 314 1035 314 1035 303 993 c 0,193,194
 295 959 295 959 275.5 948.5 c 0,195,196
 256 938 256 938 221 943 c 2,197,-1
 133 957 l 1,198,199
 146 1048 146 1048 182 1117.5 c 0,200,201
 218 1187 218 1187 273.5 1234 c 0,202,203
 329 1281 329 1281 400.5 1305 c 0,204,205
 472 1329 472 1329 555 1329 c 256,103,104
EndSplineSet
Refer: 97 -1 N 1 0 0 1 95 0 0
Validated: 1
EndChar

StartChar: O
Encoding: 79 79 16
Width: 2076
GlyphClass: 2
Flags: W
LayerCount: 2
Fore
SplineSet
1852 475 m 5,0,-1
 2042 475 l 5,1,-1
 2042 380 l 6,2,3
 2042 365 2042 365 2032.5 354.5 c 4,4,5
 2023 344 2023 344 2005 344 c 6,6,-1
 1852 344 l 5,7,-1
 1852 0 l 5,8,-1
 1705 0 l 5,9,-1
 1705 344 l 5,10,-1
 1140 344 l 6,11,12
 1120 344 1120 344 1107 354.5 c 4,13,14
 1094 365 1094 365 1090 382 c 6,15,-1
 1073 466 l 5,16,-1
 1695 1315 l 5,17,-1
 1852 1315 l 5,18,-1
 1852 475 l 5,0,-1
1705 1011 m 6,19,20
 1705 1059 1705 1059 1711 1116 c 5,21,-1
 1252 475 l 5,22,-1
 1705 475 l 5,23,-1
 1705 1011 l 6,19,20
555 1329 m 256,24,25
 638 1329 638 1329 707 1305 c 0,26,27
 776 1281 776 1281 826 1237 c 0,28,29
 876 1193 876 1193 903.5 1131 c 0,30,31
 931 1069 931 1069 931 993 c 0,32,33
 931 930 931 930 915.5 881 c 0,34,35
 900 832 900 832 871 795 c 0,36,37
 842 758 842 758 801 732.5 c 0,38,39
 760 707 760 707 709 691 c 1,40,41
 834 657 834 657 897 577.5 c 0,42,43
 960 498 960 498 960 378 c 0,44,45
 960 287 960 287 926 214.5 c 0,46,47
 892 142 892 142 833.5 91 c 0,48,49
 775 40 775 40 697 13 c 0,50,51
 619 -14 619 -14 531 -14 c 0,52,53
 429 -14 429 -14 357 11.5 c 0,54,55
 285 37 285 37 234 83 c 0,56,57
 183 129 183 129 150 191 c 0,58,59
 117 253 117 253 95 327 c 1,60,-1
 167 358 l 2,61,62
 196 370 196 370 222.5 365 c 0,63,64
 249 360 249 360 261 335 c 0,65,66
 273 309 273 309 290.5 273.5 c 0,67,68
 308 238 308 238 338 205.5 c 0,69,70
 368 173 368 173 414 150.5 c 0,71,72
 460 128 460 128 529 128 c 0,73,74
 595 128 595 128 644 150.5 c 0,75,76
 693 173 693 173 726 208 c 0,77,78
 759 243 759 243 775.5 287 c 0,79,80
 792 331 792 331 792 373 c 0,81,82
 792 425 792 425 779 469.5 c 0,83,84
 766 514 766 514 730 545.5 c 0,85,86
 694 577 694 577 630.5 595 c 0,87,88
 567 613 567 613 467 613 c 1,89,-1
 467 734 l 1,90,91
 549 735 549 735 606 752.5 c 0,92,93
 663 770 663 770 699 800 c 0,94,95
 735 830 735 830 751 872 c 0,96,97
 767 914 767 914 767 964 c 0,98,99
 767 1020 767 1020 750.5 1061.5 c 0,100,101
 734 1103 734 1103 704.5 1131 c 0,102,103
 675 1159 675 1159 634.5 1172.5 c 0,104,105
 594 1186 594 1186 546 1186 c 256,106,107
 498 1186 498 1186 458.5 1171.5 c 0,108,109
 419 1157 419 1157 388 1131.5 c 0,110,111
 357 1106 357 1106 335.5 1070.5 c 0,112,113
 314 1035 314 1035 303 993 c 0,114,115
 295 959 295 959 275.5 948.5 c 0,116,117
 256 938 256 938 221 943 c 2,118,-1
 133 957 l 1,119,120
 146 1048 146 1048 182 1117.5 c 0,121,122
 218 1187 218 1187 273.5 1234 c 0,123,124
 329 1281 329 1281 400.5 1305 c 0,125,126
 472 1329 472 1329 555 1329 c 256,24,25
EndSplineSet
Refer: 97 -1 N 1 0 0 1 95 0 0
Validated: 1
EndChar

StartChar: P
Encoding: 80 80 17
Width: 2076
GlyphClass: 2
Flags: W
LayerCount: 2
Fore
SplineSet
1915 1241 m 6,0,1
 1915 1206 1915 1206 1892.5 1183 c 4,2,3
 1870 1160 1870 1160 1817 1160 c 6,4,-1
 1420 1160 l 5,5,-1
 1363 820 l 5,6,7
 1413 831 1413 831 1457.5 836 c 4,8,9
 1502 841 1502 841 1544 841 c 4,10,11
 1644 841 1644 841 1721 810.5 c 4,12,13
 1798 780 1798 780 1850 727 c 4,14,15
 1902 674 1902 674 1928.5 601.5 c 4,16,17
 1955 529 1955 529 1955 444 c 4,18,19
 1955 339 1955 339 1919.5 254.5 c 4,20,21
 1884 170 1884 170 1821.5 110 c 4,22,23
 1759 50 1759 50 1674 18 c 4,24,25
 1589 -14 1589 -14 1491 -14 c 4,26,27
 1434 -14 1434 -14 1382 -2.5 c 4,28,29
 1330 9 1330 9 1284 28 c 4,30,31
 1238 47 1238 47 1199.5 72 c 4,32,33
 1161 97 1161 97 1131 125 c 5,34,-1
 1182 196 l 6,35,36
 1200 220 1200 220 1227 220 c 4,37,38
 1245 220 1245 220 1267.5 206 c 4,39,40
 1290 192 1290 192 1322 174.5 c 4,41,42
 1354 157 1354 157 1397 143 c 4,43,44
 1440 129 1440 129 1500 129 c 4,45,46
 1566 129 1566 129 1619 151 c 4,47,48
 1672 173 1672 173 1709 213 c 4,49,50
 1746 253 1746 253 1766 309.5 c 4,51,52
 1786 366 1786 366 1786 436 c 4,53,54
 1786 497 1786 497 1768.5 546 c 4,55,56
 1751 595 1751 595 1716.5 630 c 4,57,58
 1682 665 1682 665 1630 684 c 4,59,60
 1578 703 1578 703 1509 703 c 4,61,62
 1412 703 1412 703 1303 667 c 5,63,-1
 1199 699 l 5,64,-1
 1303 1314 l 5,65,-1
 1915 1314 l 5,66,-1
 1915 1241 l 6,0,1
555 1329 m 256,67,68
 638 1329 638 1329 707 1305 c 0,69,70
 776 1281 776 1281 826 1237 c 0,71,72
 876 1193 876 1193 903.5 1131 c 0,73,74
 931 1069 931 1069 931 993 c 0,75,76
 931 930 931 930 915.5 881 c 0,77,78
 900 832 900 832 871 795 c 0,79,80
 842 758 842 758 801 732.5 c 0,81,82
 760 707 760 707 709 691 c 1,83,84
 834 657 834 657 897 577.5 c 0,85,86
 960 498 960 498 960 378 c 0,87,88
 960 287 960 287 926 214.5 c 0,89,90
 892 142 892 142 833.5 91 c 0,91,92
 775 40 775 40 697 13 c 0,93,94
 619 -14 619 -14 531 -14 c 0,95,96
 429 -14 429 -14 357 11.5 c 0,97,98
 285 37 285 37 234 83 c 0,99,100
 183 129 183 129 150 191 c 0,101,102
 117 253 117 253 95 327 c 1,103,-1
 167 358 l 2,104,105
 196 370 196 370 222.5 365 c 0,106,107
 249 360 249 360 261 335 c 0,108,109
 273 309 273 309 290.5 273.5 c 0,110,111
 308 238 308 238 338 205.5 c 0,112,113
 368 173 368 173 414 150.5 c 0,114,115
 460 128 460 128 529 128 c 0,116,117
 595 128 595 128 644 150.5 c 0,118,119
 693 173 693 173 726 208 c 0,120,121
 759 243 759 243 775.5 287 c 0,122,123
 792 331 792 331 792 373 c 0,124,125
 792 425 792 425 779 469.5 c 0,126,127
 766 514 766 514 730 545.5 c 0,128,129
 694 577 694 577 630.5 595 c 0,130,131
 567 613 567 613 467 613 c 1,132,-1
 467 734 l 1,133,134
 549 735 549 735 606 752.5 c 0,135,136
 663 770 663 770 699 800 c 0,137,138
 735 830 735 830 751 872 c 0,139,140
 767 914 767 914 767 964 c 0,141,142
 767 1020 767 1020 750.5 1061.5 c 0,143,144
 734 1103 734 1103 704.5 1131 c 0,145,146
 675 1159 675 1159 634.5 1172.5 c 0,147,148
 594 1186 594 1186 546 1186 c 256,149,150
 498 1186 498 1186 458.5 1171.5 c 0,151,152
 419 1157 419 1157 388 1131.5 c 0,153,154
 357 1106 357 1106 335.5 1070.5 c 0,155,156
 314 1035 314 1035 303 993 c 0,157,158
 295 959 295 959 275.5 948.5 c 0,159,160
 256 938 256 938 221 943 c 2,161,-1
 133 957 l 1,162,163
 146 1048 146 1048 182 1117.5 c 0,164,165
 218 1187 218 1187 273.5 1234 c 0,166,167
 329 1281 329 1281 400.5 1305 c 0,168,169
 472 1329 472 1329 555 1329 c 256,67,68
EndSplineSet
Refer: 97 -1 N 1 0 0 1 1130 0 0
Refer: 97 -1 N 1 0 0 1 95 0 0
Validated: 1
EndChar

StartChar: Q
Encoding: 81 81 18
Width: 2076
GlyphClass: 2
Flags: W
LayerCount: 2
Fore
SplineSet
1293 128 m 1,0,-1
 1566 128 l 1,1,-1
 1566 1015 l 2,2,3
 1566 1054 1566 1054 1569 1096 c 1,4,-1
 1346 900 l 2,5,6
 1323 880 1323 880 1300 886 c 0,7,8
 1278 893 1278 893 1268 906 c 2,9,-1
 1215 979 l 1,10,-1
 1598 1318 l 1,11,-1
 1734 1318 l 1,12,-1
 1734 128 l 1,13,-1
 1984 128 l 1,14,-1
 1984 0 l 1,15,-1
 1293 0 l 1,16,-1
 1293 128 l 1,0,-1
814 475 m 1,17,-1
 1004 475 l 1,18,-1
 1004 380 l 2,19,20
 1004 365 1004 365 994.5 354.5 c 0,21,22
 985 344 985 344 967 344 c 2,23,-1
 814 344 l 1,24,-1
 814 0 l 1,25,-1
 667 0 l 1,26,-1
 667 344 l 1,27,-1
 102 344 l 2,28,29
 82 344 82 344 69 354.5 c 0,30,31
 56 365 56 365 52 382 c 2,32,-1
 35 466 l 1,33,-1
 657 1315 l 1,34,-1
 814 1315 l 1,35,-1
 814 475 l 1,17,-1
667 1011 m 2,36,37
 667 1059 667 1059 673 1116 c 1,38,-1
 214 475 l 1,39,-1
 667 475 l 1,40,-1
 667 1011 l 2,36,37
EndSplineSet
Refer: 97 -1 N 1 0 0 1 35 0 0
Validated: 1
EndChar

StartChar: R
Encoding: 82 82 19
Width: 2076
GlyphClass: 2
Flags: W
LayerCount: 2
Fore
SplineSet
1577 1329 m 256,0,1
 1660 1329 1660 1329 1731 1304 c 0,2,3
 1802 1279 1802 1279 1854 1232 c 0,4,5
 1906 1185 1906 1185 1935.5 1117 c 0,6,7
 1965 1049 1965 1049 1965 962 c 0,8,9
 1965 889 1965 889 1943.5 826.5 c 0,10,11
 1922 764 1922 764 1885.5 707 c 0,12,13
 1849 650 1849 650 1801 596 c 0,14,15
 1767 555 1767 555 1700 486 c 2,16,-1
 1363 135 l 1,17,18
 1401 146 1401 146 1439.5 152 c 0,19,20
 1478 158 1478 158 1513 158 c 2,21,-1
 1930 158 l 2,22,23
 1957 158 1957 158 1973 142.5 c 0,24,25
 1989 127 1989 127 1989 101 c 2,26,-1
 1989 0 l 1,27,-1
 1130 0 l 1,28,-1
 1130 57 l 2,29,30
 1130 74 1130 74 1137 94 c 0,31,32
 1143 110 1143 110 1161 129 c 2,33,-1
 1568 549 l 2,34,35
 1628 611 1628 611 1662 651 c 0,36,37
 1703 700 1703 700 1732 749.5 c 0,38,39
 1761 799 1761 799 1777 850 c 0,40,41
 1793 901 1793 901 1793 958 c 256,42,43
 1793 1015 1793 1015 1775.5 1058 c 0,44,45
 1758 1101 1758 1101 1728 1129.5 c 0,46,47
 1698 1158 1698 1158 1657 1172 c 0,48,49
 1616 1186 1616 1186 1568 1186 c 0,50,51
 1521 1186 1521 1186 1481 1171.5 c 0,52,53
 1441 1157 1441 1157 1410 1131.5 c 0,54,55
 1379 1106 1379 1106 1357 1070.5 c 0,56,57
 1335 1035 1335 1035 1325 993 c 0,58,59
 1317 959 1317 959 1298 948 c 0,60,61
 1276 938 1276 938 1243 943 c 2,62,-1
 1156 957 l 1,63,64
 1168 1048 1168 1048 1204.5 1117.5 c 0,65,66
 1241 1187 1241 1187 1296 1234 c 0,67,68
 1351 1281 1351 1281 1422.5 1305 c 0,69,70
 1494 1329 1494 1329 1577 1329 c 256,0,1
814 475 m 1,71,-1
 1004 475 l 1,72,-1
 1004 380 l 2,73,74
 1004 365 1004 365 994.5 354.5 c 0,75,76
 985 344 985 344 967 344 c 2,77,-1
 814 344 l 1,78,-1
 814 0 l 1,79,-1
 667 0 l 1,80,-1
 667 344 l 1,81,-1
 102 344 l 2,82,83
 82 344 82 344 69 354.5 c 0,84,85
 56 365 56 365 52 382 c 2,86,-1
 35 466 l 1,87,-1
 657 1315 l 1,88,-1
 814 1315 l 1,89,-1
 814 475 l 1,71,-1
667 1011 m 2,90,91
 667 1059 667 1059 673 1116 c 1,92,-1
 214 475 l 1,93,-1
 667 475 l 1,94,-1
 667 1011 l 2,90,91
EndSplineSet
Refer: 97 -1 N 1 0 0 1 1376 0 0
Refer: 97 -1 N 1 0 0 1 35 0 0
Validated: 1
EndChar

StartChar: S
Encoding: 83 83 20
Width: 2076
GlyphClass: 2
Flags: W
LayerCount: 2
Fore
SplineSet
1593 1329 m 260,0,1
 1676 1329 1676 1329 1745 1305 c 4,2,3
 1814 1281 1814 1281 1864 1237 c 4,4,5
 1914 1193 1914 1193 1941.5 1131 c 4,6,7
 1969 1069 1969 1069 1969 993 c 4,8,9
 1969 930 1969 930 1953.5 881 c 4,10,11
 1938 832 1938 832 1909 795 c 4,12,13
 1880 758 1880 758 1839 732.5 c 4,14,15
 1798 707 1798 707 1747 691 c 5,16,17
 1872 657 1872 657 1935 577.5 c 4,18,19
 1998 498 1998 498 1998 378 c 4,20,21
 1998 287 1998 287 1964 214.5 c 4,22,23
 1930 142 1930 142 1871.5 91 c 4,24,25
 1813 40 1813 40 1735 13 c 4,26,27
 1657 -14 1657 -14 1569 -14 c 4,28,29
 1467 -14 1467 -14 1395 11.5 c 4,30,31
 1323 37 1323 37 1272 83 c 4,32,33
 1221 129 1221 129 1188 191 c 4,34,35
 1155 253 1155 253 1133 327 c 5,36,-1
 1205 358 l 6,37,38
 1234 370 1234 370 1260.5 365 c 4,39,40
 1287 360 1287 360 1299 335 c 4,41,42
 1311 309 1311 309 1328.5 273.5 c 4,43,44
 1346 238 1346 238 1376 205.5 c 4,45,46
 1406 173 1406 173 1452 150.5 c 4,47,48
 1498 128 1498 128 1567 128 c 4,49,50
 1633 128 1633 128 1682 150.5 c 4,51,52
 1731 173 1731 173 1764 208 c 4,53,54
 1797 243 1797 243 1813.5 287 c 4,55,56
 1830 331 1830 331 1830 373 c 4,57,58
 1830 425 1830 425 1817 469.5 c 4,59,60
 1804 514 1804 514 1768 545.5 c 4,61,62
 1732 577 1732 577 1668.5 595 c 4,63,64
 1605 613 1605 613 1505 613 c 5,65,-1
 1505 734 l 5,66,67
 1587 735 1587 735 1644 752.5 c 4,68,69
 1701 770 1701 770 1737 800 c 4,70,71
 1773 830 1773 830 1789 872 c 4,72,73
 1805 914 1805 914 1805 964 c 4,74,75
 1805 1020 1805 1020 1788.5 1061.5 c 4,76,77
 1772 1103 1772 1103 1742.5 1131 c 4,78,79
 1713 1159 1713 1159 1672.5 1172.5 c 4,80,81
 1632 1186 1632 1186 1584 1186 c 260,82,83
 1536 1186 1536 1186 1496.5 1171.5 c 4,84,85
 1457 1157 1457 1157 1426 1131.5 c 4,86,87
 1395 1106 1395 1106 1373.5 1070.5 c 4,88,89
 1352 1035 1352 1035 1341 993 c 4,90,91
 1333 959 1333 959 1313.5 948.5 c 4,92,93
 1294 938 1294 938 1259 943 c 6,94,-1
 1171 957 l 5,95,96
 1184 1048 1184 1048 1220 1117.5 c 4,97,98
 1256 1187 1256 1187 1311.5 1234 c 4,99,100
 1367 1281 1367 1281 1438.5 1305 c 4,101,102
 1510 1329 1510 1329 1593 1329 c 260,0,1
814 475 m 1,103,-1
 1004 475 l 1,104,-1
 1004 380 l 2,105,106
 1004 365 1004 365 994.5 354.5 c 0,107,108
 985 344 985 344 967 344 c 2,109,-1
 814 344 l 1,110,-1
 814 0 l 1,111,-1
 667 0 l 1,112,-1
 667 344 l 1,113,-1
 102 344 l 2,114,115
 82 344 82 344 69 354.5 c 0,116,117
 56 365 56 365 52 382 c 2,118,-1
 35 466 l 1,119,-1
 657 1315 l 1,120,-1
 814 1315 l 1,121,-1
 814 475 l 1,103,-1
667 1011 m 2,122,123
 667 1059 667 1059 673 1116 c 1,124,-1
 214 475 l 1,125,-1
 667 475 l 1,126,-1
 667 1011 l 2,122,123
EndSplineSet
Refer: 97 -1 N 1 0 0 1 35 0 0
Validated: 1
EndChar

StartChar: T
Encoding: 84 84 21
Width: 2076
GlyphClass: 2
Flags: W
LayerCount: 2
Fore
SplineSet
1852 475 m 5,0,-1
 2042 475 l 5,1,-1
 2042 380 l 6,2,3
 2042 365 2042 365 2032.5 354.5 c 4,4,5
 2023 344 2023 344 2005 344 c 6,6,-1
 1852 344 l 5,7,-1
 1852 0 l 5,8,-1
 1705 0 l 5,9,-1
 1705 344 l 5,10,-1
 1140 344 l 6,11,12
 1120 344 1120 344 1107 354.5 c 4,13,14
 1094 365 1094 365 1090 382 c 6,15,-1
 1073 466 l 5,16,-1
 1695 1315 l 5,17,-1
 1852 1315 l 5,18,-1
 1852 475 l 5,0,-1
1705 1011 m 6,19,20
 1705 1059 1705 1059 1711 1116 c 5,21,-1
 1252 475 l 5,22,-1
 1705 475 l 5,23,-1
 1705 1011 l 6,19,20
814 475 m 1,24,-1
 1004 475 l 1,25,-1
 1004 380 l 2,26,27
 1004 365 1004 365 994.5 354.5 c 0,28,29
 985 344 985 344 967 344 c 2,30,-1
 814 344 l 1,31,-1
 814 0 l 1,32,-1
 667 0 l 1,33,-1
 667 344 l 1,34,-1
 102 344 l 2,35,36
 82 344 82 344 69 354.5 c 0,37,38
 56 365 56 365 52 382 c 2,39,-1
 35 466 l 1,40,-1
 657 1315 l 1,41,-1
 814 1315 l 1,42,-1
 814 475 l 1,24,-1
667 1011 m 2,43,44
 667 1059 667 1059 673 1116 c 1,45,-1
 214 475 l 1,46,-1
 667 475 l 1,47,-1
 667 1011 l 2,43,44
EndSplineSet
Refer: 97 -1 N 1 0 0 1 35 0 0
Validated: 1
EndChar

StartChar: U
Encoding: 85 85 22
Width: 2076
GlyphClass: 2
Flags: W
LayerCount: 2
Fore
SplineSet
1915 1241 m 6,0,1
 1915 1206 1915 1206 1892.5 1183 c 4,2,3
 1870 1160 1870 1160 1817 1160 c 6,4,-1
 1420 1160 l 5,5,-1
 1363 820 l 5,6,7
 1413 831 1413 831 1457.5 836 c 4,8,9
 1502 841 1502 841 1544 841 c 4,10,11
 1644 841 1644 841 1721 810.5 c 4,12,13
 1798 780 1798 780 1850 727 c 4,14,15
 1902 674 1902 674 1928.5 601.5 c 4,16,17
 1955 529 1955 529 1955 444 c 4,18,19
 1955 339 1955 339 1919.5 254.5 c 4,20,21
 1884 170 1884 170 1821.5 110 c 4,22,23
 1759 50 1759 50 1674 18 c 4,24,25
 1589 -14 1589 -14 1491 -14 c 4,26,27
 1434 -14 1434 -14 1382 -2.5 c 4,28,29
 1330 9 1330 9 1284 28 c 4,30,31
 1238 47 1238 47 1199.5 72 c 4,32,33
 1161 97 1161 97 1131 125 c 5,34,-1
 1182 196 l 6,35,36
 1200 220 1200 220 1227 220 c 4,37,38
 1245 220 1245 220 1267.5 206 c 4,39,40
 1290 192 1290 192 1322 174.5 c 4,41,42
 1354 157 1354 157 1397 143 c 4,43,44
 1440 129 1440 129 1500 129 c 4,45,46
 1566 129 1566 129 1619 151 c 4,47,48
 1672 173 1672 173 1709 213 c 4,49,50
 1746 253 1746 253 1766 309.5 c 4,51,52
 1786 366 1786 366 1786 436 c 4,53,54
 1786 497 1786 497 1768.5 546 c 4,55,56
 1751 595 1751 595 1716.5 630 c 4,57,58
 1682 665 1682 665 1630 684 c 4,59,60
 1578 703 1578 703 1509 703 c 4,61,62
 1412 703 1412 703 1303 667 c 5,63,-1
 1199 699 l 5,64,-1
 1303 1314 l 5,65,-1
 1915 1314 l 5,66,-1
 1915 1241 l 6,0,1
814 475 m 1,67,-1
 1004 475 l 1,68,-1
 1004 380 l 2,69,70
 1004 365 1004 365 994.5 354.5 c 0,71,72
 985 344 985 344 967 344 c 2,73,-1
 814 344 l 1,74,-1
 814 0 l 1,75,-1
 667 0 l 1,76,-1
 667 344 l 1,77,-1
 102 344 l 2,78,79
 82 344 82 344 69 354.5 c 0,80,81
 56 365 56 365 52 382 c 2,82,-1
 35 466 l 1,83,-1
 657 1315 l 1,84,-1
 814 1315 l 1,85,-1
 814 475 l 1,67,-1
667 1011 m 2,86,87
 667 1059 667 1059 673 1116 c 1,88,-1
 214 475 l 1,89,-1
 667 475 l 1,90,-1
 667 1011 l 2,86,87
EndSplineSet
Refer: 97 -1 S 1 0 0 1 1131 0 0
Refer: 97 -1 N 1 0 0 1 35 0 0
Validated: 1
EndChar

StartChar: V
Encoding: 86 86 23
Width: 2076
GlyphClass: 2
Flags: W
LayerCount: 2
Fore
SplineSet
1293 128 m 1,0,-1
 1566 128 l 1,1,-1
 1566 1015 l 2,2,3
 1566 1054 1566 1054 1569 1096 c 1,4,-1
 1346 900 l 2,5,6
 1323 880 1323 880 1300 886 c 0,7,8
 1278 893 1278 893 1268 906 c 2,9,-1
 1215 979 l 1,10,-1
 1598 1318 l 1,11,-1
 1734 1318 l 1,12,-1
 1734 128 l 1,13,-1
 1984 128 l 1,14,-1
 1984 0 l 1,15,-1
 1293 0 l 1,16,-1
 1293 128 l 1,0,-1
877 1241 m 2,17,18
 877 1206 877 1206 854.5 1183 c 0,19,20
 832 1160 832 1160 779 1160 c 2,21,-1
 382 1160 l 1,22,-1
 325 820 l 1,23,24
 375 831 375 831 419.5 836 c 0,25,26
 464 841 464 841 506 841 c 0,27,28
 606 841 606 841 683 810.5 c 0,29,30
 760 780 760 780 812 727 c 0,31,32
 864 674 864 674 890.5 601.5 c 0,33,34
 917 529 917 529 917 444 c 0,35,36
 917 339 917 339 881.5 254.5 c 0,37,38
 846 170 846 170 783.5 110 c 0,39,40
 721 50 721 50 636 18 c 0,41,42
 551 -14 551 -14 453 -14 c 0,43,44
 396 -14 396 -14 344 -2.5 c 0,45,46
 292 9 292 9 246 28 c 0,47,48
 200 47 200 47 161.5 72 c 0,49,50
 123 97 123 97 93 125 c 1,51,-1
 144 196 l 2,52,53
 162 220 162 220 189 220 c 0,54,55
 207 220 207 220 229.5 206 c 0,56,57
 252 192 252 192 284 174.5 c 0,58,59
 316 157 316 157 359 143 c 0,60,61
 402 129 402 129 462 129 c 0,62,63
 528 129 528 129 581 151 c 0,64,65
 634 173 634 173 671 213 c 0,66,67
 708 253 708 253 728 309.5 c 0,68,69
 748 366 748 366 748 436 c 0,70,71
 748 497 748 497 730.5 546 c 0,72,73
 713 595 713 595 678.5 630 c 0,74,75
 644 665 644 665 592 684 c 0,76,77
 540 703 540 703 471 703 c 0,78,79
 374 703 374 703 265 667 c 1,80,-1
 161 699 l 1,81,-1
 265 1314 l 1,82,-1
 877 1314 l 1,83,-1
 877 1241 l 2,17,18
EndSplineSet
Refer: 97 -1 N 1 0 0 1 93 0 0
Validated: 1
EndChar

StartChar: W
Encoding: 87 87 24
Width: 2076
GlyphClass: 2
Flags: W
LayerCount: 2
Fore
SplineSet
1577 1329 m 256,0,1
 1660 1329 1660 1329 1731 1304 c 0,2,3
 1802 1279 1802 1279 1854 1232 c 0,4,5
 1906 1185 1906 1185 1935.5 1117 c 0,6,7
 1965 1049 1965 1049 1965 962 c 0,8,9
 1965 889 1965 889 1944 826 c 0,10,11
 1921 760 1921 760 1886 707 c 0,12,13
 1854 659 1854 659 1801 596 c 0,14,15
 1772 561 1772 561 1700 486 c 2,16,-1
 1363 135 l 1,17,18
 1401 146 1401 146 1439.5 152 c 0,19,20
 1478 158 1478 158 1513 158 c 2,21,-1
 1930 158 l 2,22,23
 1957 158 1957 158 1973 142.5 c 0,24,25
 1989 127 1989 127 1989 101 c 2,26,-1
 1989 0 l 1,27,-1
 1130 0 l 1,28,-1
 1130 57 l 2,29,30
 1130 74 1130 74 1137 94 c 0,31,32
 1143 111 1143 111 1161 129 c 2,33,-1
 1568 549 l 2,34,35
 1625 608 1625 608 1662 651 c 0,36,37
 1703 700 1703 700 1732 749.5 c 0,38,39
 1761 799 1761 799 1777 850 c 0,40,41
 1793 901 1793 901 1793 958 c 256,42,43
 1793 1015 1793 1015 1775.5 1058 c 0,44,45
 1758 1101 1758 1101 1728 1129.5 c 0,46,47
 1698 1158 1698 1158 1657 1172 c 0,48,49
 1616 1186 1616 1186 1568 1186 c 0,50,51
 1521 1186 1521 1186 1481 1171.5 c 0,52,53
 1441 1157 1441 1157 1410 1131.5 c 0,54,55
 1379 1106 1379 1106 1357 1070.5 c 0,56,57
 1335 1035 1335 1035 1325 993 c 0,58,59
 1317 959 1317 959 1298 948 c 0,60,61
 1276 938 1276 938 1243 943 c 2,62,-1
 1156 957 l 1,63,64
 1168 1048 1168 1048 1204.5 1117.5 c 0,65,66
 1241 1187 1241 1187 1296 1234 c 0,67,68
 1351 1281 1351 1281 1422.5 1305 c 0,69,70
 1494 1329 1494 1329 1577 1329 c 256,0,1
877 1241 m 2,71,72
 877 1206 877 1206 854.5 1183 c 0,73,74
 832 1160 832 1160 779 1160 c 2,75,-1
 382 1160 l 1,76,-1
 325 820 l 1,77,78
 375 831 375 831 419.5 836 c 0,79,80
 464 841 464 841 506 841 c 0,81,82
 606 841 606 841 683 810.5 c 0,83,84
 760 780 760 780 812 727 c 0,85,86
 864 674 864 674 890.5 601.5 c 0,87,88
 917 529 917 529 917 444 c 0,89,90
 917 339 917 339 881.5 254.5 c 0,91,92
 846 170 846 170 783.5 110 c 0,93,94
 721 50 721 50 636 18 c 0,95,96
 551 -14 551 -14 453 -14 c 0,97,98
 396 -14 396 -14 344 -2.5 c 0,99,100
 292 9 292 9 246 28 c 0,101,102
 200 47 200 47 161.5 72 c 0,103,104
 123 97 123 97 93 125 c 1,105,-1
 144 196 l 2,106,107
 162 220 162 220 189 220 c 0,108,109
 207 220 207 220 229.5 206 c 0,110,111
 252 192 252 192 284 174.5 c 0,112,113
 316 157 316 157 359 143 c 0,114,115
 402 129 402 129 462 129 c 0,116,117
 528 129 528 129 581 151 c 0,118,119
 634 173 634 173 671 213 c 0,120,121
 708 253 708 253 728 309.5 c 0,122,123
 748 366 748 366 748 436 c 0,124,125
 748 497 748 497 730.5 546 c 0,126,127
 713 595 713 595 678.5 630 c 0,128,129
 644 665 644 665 592 684 c 0,130,131
 540 703 540 703 471 703 c 0,132,133
 374 703 374 703 265 667 c 1,134,-1
 161 699 l 1,135,-1
 265 1314 l 1,136,-1
 877 1314 l 1,137,-1
 877 1241 l 2,71,72
EndSplineSet
Refer: 97 -1 N 1 0 0 1 1238 0 0
Refer: 97 -1 N 1 0 0 1 93 0 0
Validated: 1
EndChar

StartChar: X
Encoding: 88 88 25
Width: 2076
GlyphClass: 2
Flags: W
LayerCount: 2
Fore
SplineSet
1593 1329 m 260,0,1
 1676 1329 1676 1329 1745 1305 c 4,2,3
 1814 1281 1814 1281 1864 1237 c 4,4,5
 1914 1193 1914 1193 1941.5 1131 c 4,6,7
 1969 1069 1969 1069 1969 993 c 4,8,9
 1969 930 1969 930 1953.5 881 c 4,10,11
 1938 832 1938 832 1909 795 c 4,12,13
 1880 758 1880 758 1839 732.5 c 4,14,15
 1798 707 1798 707 1747 691 c 5,16,17
 1872 657 1872 657 1935 577.5 c 4,18,19
 1998 498 1998 498 1998 378 c 4,20,21
 1998 287 1998 287 1964 214.5 c 4,22,23
 1930 142 1930 142 1871.5 91 c 4,24,25
 1813 40 1813 40 1735 13 c 4,26,27
 1657 -14 1657 -14 1569 -14 c 4,28,29
 1467 -14 1467 -14 1395 11.5 c 4,30,31
 1323 37 1323 37 1272 83 c 4,32,33
 1221 129 1221 129 1188 191 c 4,34,35
 1155 253 1155 253 1133 327 c 5,36,-1
 1205 358 l 6,37,38
 1234 370 1234 370 1260.5 365 c 4,39,40
 1287 360 1287 360 1299 335 c 4,41,42
 1311 309 1311 309 1328.5 273.5 c 4,43,44
 1346 238 1346 238 1376 205.5 c 4,45,46
 1406 173 1406 173 1452 150.5 c 4,47,48
 1498 128 1498 128 1567 128 c 4,49,50
 1633 128 1633 128 1682 150.5 c 4,51,52
 1731 173 1731 173 1764 208 c 4,53,54
 1797 243 1797 243 1813.5 287 c 4,55,56
 1830 331 1830 331 1830 373 c 4,57,58
 1830 425 1830 425 1817 469.5 c 4,59,60
 1804 514 1804 514 1768 545.5 c 4,61,62
 1732 577 1732 577 1668.5 595 c 4,63,64
 1605 613 1605 613 1505 613 c 5,65,-1
 1505 734 l 5,66,67
 1587 735 1587 735 1644 752.5 c 4,68,69
 1701 770 1701 770 1737 800 c 4,70,71
 1773 830 1773 830 1789 872 c 4,72,73
 1805 914 1805 914 1805 964 c 4,74,75
 1805 1020 1805 1020 1788.5 1061.5 c 4,76,77
 1772 1103 1772 1103 1742.5 1131 c 4,78,79
 1713 1159 1713 1159 1672.5 1172.5 c 4,80,81
 1632 1186 1632 1186 1584 1186 c 260,82,83
 1536 1186 1536 1186 1496.5 1171.5 c 4,84,85
 1457 1157 1457 1157 1426 1131.5 c 4,86,87
 1395 1106 1395 1106 1373.5 1070.5 c 4,88,89
 1352 1035 1352 1035 1341 993 c 4,90,91
 1333 959 1333 959 1313.5 948.5 c 4,92,93
 1294 938 1294 938 1259 943 c 6,94,-1
 1171 957 l 5,95,96
 1184 1048 1184 1048 1220 1117.5 c 4,97,98
 1256 1187 1256 1187 1311.5 1234 c 4,99,100
 1367 1281 1367 1281 1438.5 1305 c 4,101,102
 1510 1329 1510 1329 1593 1329 c 260,0,1
877 1241 m 2,103,104
 877 1206 877 1206 854.5 1183 c 0,105,106
 832 1160 832 1160 779 1160 c 2,107,-1
 382 1160 l 1,108,-1
 325 820 l 1,109,110
 375 831 375 831 419.5 836 c 0,111,112
 464 841 464 841 506 841 c 0,113,114
 606 841 606 841 683 810.5 c 0,115,116
 760 780 760 780 812 727 c 0,117,118
 864 674 864 674 890.5 601.5 c 0,119,120
 917 529 917 529 917 444 c 0,121,122
 917 339 917 339 881.5 254.5 c 0,123,124
 846 170 846 170 783.5 110 c 0,125,126
 721 50 721 50 636 18 c 0,127,128
 551 -14 551 -14 453 -14 c 0,129,130
 396 -14 396 -14 344 -2.5 c 0,131,132
 292 9 292 9 246 28 c 0,133,134
 200 47 200 47 161.5 72 c 0,135,136
 123 97 123 97 93 125 c 1,137,-1
 144 196 l 2,138,139
 162 220 162 220 189 220 c 0,140,141
 207 220 207 220 229.5 206 c 0,142,143
 252 192 252 192 284 174.5 c 0,144,145
 316 157 316 157 359 143 c 0,146,147
 402 129 402 129 462 129 c 0,148,149
 528 129 528 129 581 151 c 0,150,151
 634 173 634 173 671 213 c 0,152,153
 708 253 708 253 728 309.5 c 0,154,155
 748 366 748 366 748 436 c 0,156,157
 748 497 748 497 730.5 546 c 0,158,159
 713 595 713 595 678.5 630 c 0,160,161
 644 665 644 665 592 684 c 0,162,163
 540 703 540 703 471 703 c 0,164,165
 374 703 374 703 265 667 c 1,166,-1
 161 699 l 1,167,-1
 265 1314 l 1,168,-1
 877 1314 l 1,169,-1
 877 1241 l 2,103,104
EndSplineSet
Refer: 97 -1 N 1 0 0 1 93 0 0
Validated: 1
EndChar

StartChar: Y
Encoding: 89 89 26
Width: 2076
GlyphClass: 2
Flags: W
LayerCount: 2
Fore
SplineSet
1852 475 m 5,0,-1
 2042 475 l 5,1,-1
 2042 380 l 6,2,3
 2042 365 2042 365 2032.5 354.5 c 4,4,5
 2023 344 2023 344 2005 344 c 6,6,-1
 1852 344 l 5,7,-1
 1852 0 l 5,8,-1
 1705 0 l 5,9,-1
 1705 344 l 5,10,-1
 1140 344 l 6,11,12
 1120 344 1120 344 1107 354.5 c 4,13,14
 1094 365 1094 365 1090 382 c 6,15,-1
 1073 466 l 5,16,-1
 1695 1315 l 5,17,-1
 1852 1315 l 5,18,-1
 1852 475 l 5,0,-1
1705 1011 m 6,19,20
 1705 1059 1705 1059 1711 1116 c 5,21,-1
 1252 475 l 5,22,-1
 1705 475 l 5,23,-1
 1705 1011 l 6,19,20
877 1241 m 2,24,25
 877 1206 877 1206 854.5 1183 c 0,26,27
 832 1160 832 1160 779 1160 c 2,28,-1
 382 1160 l 1,29,-1
 325 820 l 1,30,31
 375 831 375 831 419.5 836 c 0,32,33
 464 841 464 841 506 841 c 0,34,35
 606 841 606 841 683 810.5 c 0,36,37
 760 780 760 780 812 727 c 0,38,39
 864 674 864 674 890.5 601.5 c 0,40,41
 917 529 917 529 917 444 c 0,42,43
 917 339 917 339 881.5 254.5 c 0,44,45
 846 170 846 170 783.5 110 c 0,46,47
 721 50 721 50 636 18 c 0,48,49
 551 -14 551 -14 453 -14 c 0,50,51
 396 -14 396 -14 344 -2.5 c 0,52,53
 292 9 292 9 246 28 c 0,54,55
 200 47 200 47 161.5 72 c 0,56,57
 123 97 123 97 93 125 c 1,58,-1
 144 196 l 2,59,60
 162 220 162 220 189 220 c 0,61,62
 207 220 207 220 229.5 206 c 0,63,64
 252 192 252 192 284 174.5 c 0,65,66
 316 157 316 157 359 143 c 0,67,68
 402 129 402 129 462 129 c 0,69,70
 528 129 528 129 581 151 c 0,71,72
 634 173 634 173 671 213 c 0,73,74
 708 253 708 253 728 309.5 c 0,75,76
 748 366 748 366 748 436 c 0,77,78
 748 497 748 497 730.5 546 c 0,79,80
 713 595 713 595 678.5 630 c 0,81,82
 644 665 644 665 592 684 c 0,83,84
 540 703 540 703 471 703 c 0,85,86
 374 703 374 703 265 667 c 1,87,-1
 161 699 l 1,88,-1
 265 1314 l 1,89,-1
 877 1314 l 1,90,-1
 877 1241 l 2,24,25
EndSplineSet
Refer: 97 -1 N 1 0 0 1 93 0 0
Validated: 1
EndChar

StartChar: Z
Encoding: 90 90 27
Width: 2079
GlyphClass: 2
Flags: W
LayerCount: 2
Fore
SplineSet
1915 1241 m 6,0,1
 1915 1206 1915 1206 1892.5 1183 c 4,2,3
 1870 1160 1870 1160 1817 1160 c 6,4,-1
 1420 1160 l 5,5,-1
 1363 820 l 5,6,7
 1413 831 1413 831 1457.5 836 c 4,8,9
 1502 841 1502 841 1544 841 c 4,10,11
 1644 841 1644 841 1721 810.5 c 4,12,13
 1798 780 1798 780 1850 727 c 4,14,15
 1902 674 1902 674 1928.5 601.5 c 4,16,17
 1955 529 1955 529 1955 444 c 4,18,19
 1955 339 1955 339 1919.5 254.5 c 4,20,21
 1884 170 1884 170 1821.5 110 c 4,22,23
 1759 50 1759 50 1674 18 c 4,24,25
 1589 -14 1589 -14 1491 -14 c 4,26,27
 1434 -14 1434 -14 1382 -2.5 c 4,28,29
 1330 9 1330 9 1284 28 c 4,30,31
 1238 47 1238 47 1199.5 72 c 4,32,33
 1161 97 1161 97 1131 125 c 5,34,-1
 1182 196 l 6,35,36
 1200 220 1200 220 1227 220 c 4,37,38
 1245 220 1245 220 1267.5 206 c 4,39,40
 1290 192 1290 192 1322 174.5 c 4,41,42
 1354 157 1354 157 1397 143 c 4,43,44
 1440 129 1440 129 1500 129 c 4,45,46
 1566 129 1566 129 1619 151 c 4,47,48
 1672 173 1672 173 1709 213 c 4,49,50
 1746 253 1746 253 1766 309.5 c 4,51,52
 1786 366 1786 366 1786 436 c 4,53,54
 1786 497 1786 497 1768.5 546 c 4,55,56
 1751 595 1751 595 1716.5 630 c 4,57,58
 1682 665 1682 665 1630 684 c 4,59,60
 1578 703 1578 703 1509 703 c 4,61,62
 1412 703 1412 703 1303 667 c 5,63,-1
 1199 699 l 5,64,-1
 1303 1314 l 5,65,-1
 1915 1314 l 5,66,-1
 1915 1241 l 6,0,1
877 1241 m 2,67,68
 877 1206 877 1206 854.5 1183 c 0,69,70
 832 1160 832 1160 779 1160 c 2,71,-1
 382 1160 l 1,72,-1
 325 820 l 1,73,74
 375 831 375 831 419.5 836 c 0,75,76
 464 841 464 841 506 841 c 0,77,78
 606 841 606 841 683 810.5 c 0,79,80
 760 780 760 780 812 727 c 0,81,82
 864 674 864 674 890.5 601.5 c 0,83,84
 917 529 917 529 917 444 c 0,85,86
 917 339 917 339 881.5 254.5 c 0,87,88
 846 170 846 170 783.5 110 c 0,89,90
 721 50 721 50 636 18 c 0,91,92
 551 -14 551 -14 453 -14 c 0,93,94
 396 -14 396 -14 344 -2.5 c 0,95,96
 292 9 292 9 246 28 c 0,97,98
 200 47 200 47 161.5 72 c 0,99,100
 123 97 123 97 93 125 c 1,101,-1
 144 196 l 2,102,103
 162 220 162 220 189 220 c 0,104,105
 207 220 207 220 229.5 206 c 0,106,107
 252 192 252 192 284 174.5 c 0,108,109
 316 157 316 157 359 143 c 0,110,111
 402 129 402 129 462 129 c 0,112,113
 528 129 528 129 581 151 c 0,114,115
 634 173 634 173 671 213 c 0,116,117
 708 253 708 253 728 309.5 c 0,118,119
 748 366 748 366 748 436 c 0,120,121
 748 497 748 497 730.5 546 c 0,122,123
 713 595 713 595 678.5 630 c 0,124,125
 644 665 644 665 592 684 c 0,126,127
 540 703 540 703 471 703 c 0,128,129
 374 703 374 703 265 667 c 1,130,-1
 161 699 l 1,131,-1
 265 1314 l 1,132,-1
 877 1314 l 1,133,-1
 877 1241 l 2,67,68
EndSplineSet
Refer: 97 -1 S 1 0 0 1 1131 0 0
Refer: 97 -1 N 1 0 0 1 93 0 0
Validated: 1
EndChar

StartChar: a
Encoding: 97 97 28
Width: 2076
GlyphClass: 2
Flags: W
LayerCount: 2
Fore
SplineSet
1293 128 m 1,0,-1
 1566 128 l 1,1,-1
 1566 1015 l 2,2,3
 1566 1054 1566 1054 1569 1096 c 1,4,-1
 1346 900 l 2,5,6
 1323 880 1323 880 1300 886 c 0,7,8
 1278 893 1278 893 1268 906 c 2,9,-1
 1215 979 l 1,10,-1
 1598 1318 l 1,11,-1
 1734 1318 l 1,12,-1
 1734 128 l 1,13,-1
 1984 128 l 1,14,-1
 1984 0 l 1,15,-1
 1293 0 l 1,16,-1
 1293 128 l 1,0,-1
255 128 m 1,17,-1
 528 128 l 1,18,-1
 528 1015 l 2,19,20
 528 1054 528 1054 531 1096 c 1,21,-1
 308 900 l 2,22,23
 284 880 284 880 261.5 886.5 c 128,-1,24
 239 893 239 893 230 906 c 2,25,-1
 177 979 l 1,26,-1
 560 1318 l 1,27,-1
 696 1318 l 1,28,-1
 696 128 l 1,29,-1
 946 128 l 1,30,-1
 946 0 l 1,31,-1
 255 0 l 1,32,-1
 255 128 l 1,17,-1
EndSplineSet
Validated: 1
EndChar

StartChar: b
Encoding: 98 98 29
Width: 2076
GlyphClass: 2
Flags: W
LayerCount: 2
Fore
SplineSet
1577 1329 m 256,0,1
 1660 1329 1660 1329 1731 1304 c 0,2,3
 1802 1279 1802 1279 1854 1232 c 0,4,5
 1906 1185 1906 1185 1935.5 1117 c 0,6,7
 1965 1049 1965 1049 1965 962 c 0,8,9
 1965 889 1965 889 1944 826 c 0,10,11
 1921 760 1921 760 1886 707 c 0,12,13
 1854 659 1854 659 1801 596 c 0,14,15
 1772 561 1772 561 1700 486 c 2,16,-1
 1363 135 l 1,17,18
 1401 146 1401 146 1439.5 152 c 0,19,20
 1478 158 1478 158 1513 158 c 2,21,-1
 1930 158 l 2,22,23
 1957 158 1957 158 1973 142.5 c 0,24,25
 1989 127 1989 127 1989 101 c 2,26,-1
 1989 0 l 1,27,-1
 1130 0 l 1,28,-1
 1130 57 l 2,29,30
 1130 74 1130 74 1137 94 c 0,31,32
 1143 111 1143 111 1161 129 c 2,33,-1
 1568 549 l 2,34,35
 1625 608 1625 608 1662 651 c 0,36,37
 1703 700 1703 700 1732 749.5 c 0,38,39
 1761 799 1761 799 1777 850 c 0,40,41
 1793 901 1793 901 1793 958 c 256,42,43
 1793 1015 1793 1015 1775.5 1058 c 0,44,45
 1758 1101 1758 1101 1728 1129.5 c 0,46,47
 1698 1158 1698 1158 1657 1172 c 0,48,49
 1616 1186 1616 1186 1568 1186 c 0,50,51
 1521 1186 1521 1186 1481 1171.5 c 0,52,53
 1441 1157 1441 1157 1410 1131.5 c 0,54,55
 1379 1106 1379 1106 1357 1070.5 c 0,56,57
 1335 1035 1335 1035 1325 993 c 0,58,59
 1317 959 1317 959 1298 948 c 0,60,61
 1276 938 1276 938 1243 943 c 2,62,-1
 1156 957 l 1,63,64
 1168 1048 1168 1048 1204.5 1117.5 c 0,65,66
 1241 1187 1241 1187 1296 1234 c 0,67,68
 1351 1281 1351 1281 1422.5 1305 c 0,69,70
 1494 1329 1494 1329 1577 1329 c 256,0,1
255 128 m 1,71,-1
 528 128 l 1,72,-1
 528 1015 l 2,73,74
 528 1054 528 1054 531 1096 c 1,75,-1
 308 900 l 2,76,77
 284 880 284 880 261.5 886.5 c 0,78,79
 239 893 239 893 230 906 c 2,80,-1
 177 979 l 1,81,-1
 560 1318 l 1,82,-1
 696 1318 l 1,83,-1
 696 128 l 1,84,-1
 946 128 l 1,85,-1
 946 0 l 1,86,-1
 255 0 l 1,87,-1
 255 128 l 1,71,-1
EndSplineSet
Refer: 97 -1 N 1 0 0 1 1252 0 0
Validated: 1
EndChar

StartChar: c
Encoding: 99 99 30
Width: 2076
GlyphClass: 2
Flags: W
LayerCount: 2
Fore
SplineSet
1593 1329 m 260,0,1
 1676 1329 1676 1329 1745 1305 c 4,2,3
 1814 1281 1814 1281 1864 1237 c 4,4,5
 1914 1193 1914 1193 1941.5 1131 c 4,6,7
 1969 1069 1969 1069 1969 993 c 4,8,9
 1969 930 1969 930 1953.5 881 c 4,10,11
 1938 832 1938 832 1909 795 c 4,12,13
 1880 758 1880 758 1839 732.5 c 4,14,15
 1798 707 1798 707 1747 691 c 5,16,17
 1872 657 1872 657 1935 577.5 c 4,18,19
 1998 498 1998 498 1998 378 c 4,20,21
 1998 287 1998 287 1964 214.5 c 4,22,23
 1930 142 1930 142 1871.5 91 c 4,24,25
 1813 40 1813 40 1735 13 c 4,26,27
 1657 -14 1657 -14 1569 -14 c 4,28,29
 1467 -14 1467 -14 1395 11.5 c 4,30,31
 1323 37 1323 37 1272 83 c 4,32,33
 1221 129 1221 129 1188 191 c 4,34,35
 1155 253 1155 253 1133 327 c 5,36,-1
 1205 358 l 6,37,38
 1234 370 1234 370 1260.5 365 c 4,39,40
 1287 360 1287 360 1299 335 c 4,41,42
 1311 309 1311 309 1328.5 273.5 c 4,43,44
 1346 238 1346 238 1376 205.5 c 4,45,46
 1406 173 1406 173 1452 150.5 c 4,47,48
 1498 128 1498 128 1567 128 c 4,49,50
 1633 128 1633 128 1682 150.5 c 4,51,52
 1731 173 1731 173 1764 208 c 4,53,54
 1797 243 1797 243 1813.5 287 c 4,55,56
 1830 331 1830 331 1830 373 c 4,57,58
 1830 425 1830 425 1817 469.5 c 4,59,60
 1804 514 1804 514 1768 545.5 c 4,61,62
 1732 577 1732 577 1668.5 595 c 4,63,64
 1605 613 1605 613 1505 613 c 5,65,-1
 1505 734 l 5,66,67
 1587 735 1587 735 1644 752.5 c 4,68,69
 1701 770 1701 770 1737 800 c 4,70,71
 1773 830 1773 830 1789 872 c 4,72,73
 1805 914 1805 914 1805 964 c 4,74,75
 1805 1020 1805 1020 1788.5 1061.5 c 4,76,77
 1772 1103 1772 1103 1742.5 1131 c 4,78,79
 1713 1159 1713 1159 1672.5 1172.5 c 4,80,81
 1632 1186 1632 1186 1584 1186 c 260,82,83
 1536 1186 1536 1186 1496.5 1171.5 c 4,84,85
 1457 1157 1457 1157 1426 1131.5 c 4,86,87
 1395 1106 1395 1106 1373.5 1070.5 c 4,88,89
 1352 1035 1352 1035 1341 993 c 4,90,91
 1333 959 1333 959 1313.5 948.5 c 4,92,93
 1294 938 1294 938 1259 943 c 6,94,-1
 1171 957 l 5,95,96
 1184 1048 1184 1048 1220 1117.5 c 4,97,98
 1256 1187 1256 1187 1311.5 1234 c 4,99,100
 1367 1281 1367 1281 1438.5 1305 c 4,101,102
 1510 1329 1510 1329 1593 1329 c 260,0,1
255 128 m 1,103,-1
 528 128 l 1,104,-1
 528 1015 l 2,105,106
 528 1054 528 1054 531 1096 c 1,107,-1
 308 900 l 2,108,109
 284 880 284 880 261.5 886.5 c 0,110,111
 239 893 239 893 230 906 c 2,112,-1
 177 979 l 1,113,-1
 560 1318 l 1,114,-1
 696 1318 l 1,115,-1
 696 128 l 1,116,-1
 946 128 l 1,117,-1
 946 0 l 1,118,-1
 255 0 l 1,119,-1
 255 128 l 1,103,-1
EndSplineSet
Refer: 97 -1 N 1 0 0 1 1011 0 0
Validated: 1
EndChar

StartChar: d
Encoding: 100 100 31
Width: 2076
GlyphClass: 2
Flags: W
LayerCount: 2
Fore
SplineSet
1852 475 m 5,0,-1
 2042 475 l 5,1,-1
 2042 380 l 6,2,3
 2042 365 2042 365 2032.5 354.5 c 4,4,5
 2023 344 2023 344 2005 344 c 6,6,-1
 1852 344 l 5,7,-1
 1852 0 l 5,8,-1
 1705 0 l 5,9,-1
 1705 344 l 5,10,-1
 1140 344 l 6,11,12
 1120 344 1120 344 1107 354.5 c 4,13,14
 1094 365 1094 365 1090 382 c 6,15,-1
 1073 466 l 5,16,-1
 1695 1315 l 5,17,-1
 1852 1315 l 5,18,-1
 1852 475 l 5,0,-1
1705 1011 m 6,19,20
 1705 1059 1705 1059 1711 1116 c 5,21,-1
 1252 475 l 5,22,-1
 1705 475 l 5,23,-1
 1705 1011 l 6,19,20
255 128 m 1,24,-1
 528 128 l 1,25,-1
 528 1015 l 2,26,27
 528 1054 528 1054 531 1096 c 1,28,-1
 308 900 l 2,29,30
 284 880 284 880 261.5 886.5 c 0,31,32
 239 893 239 893 230 906 c 2,33,-1
 177 979 l 1,34,-1
 560 1318 l 1,35,-1
 696 1318 l 1,36,-1
 696 128 l 1,37,-1
 946 128 l 1,38,-1
 946 0 l 1,39,-1
 255 0 l 1,40,-1
 255 128 l 1,24,-1
EndSplineSet
Refer: 97 -1 N 1 0 0 1 1056 0 0
Validated: 1
EndChar

StartChar: e
Encoding: 101 101 32
Width: 2076
GlyphClass: 2
Flags: W
LayerCount: 2
Fore
SplineSet
1915 1241 m 6,0,1
 1915 1206 1915 1206 1892.5 1183 c 4,2,3
 1870 1160 1870 1160 1817 1160 c 6,4,-1
 1420 1160 l 5,5,-1
 1363 820 l 5,6,7
 1413 831 1413 831 1457.5 836 c 4,8,9
 1502 841 1502 841 1544 841 c 4,10,11
 1644 841 1644 841 1721 810.5 c 4,12,13
 1798 780 1798 780 1850 727 c 4,14,15
 1902 674 1902 674 1928.5 601.5 c 4,16,17
 1955 529 1955 529 1955 444 c 4,18,19
 1955 339 1955 339 1919.5 254.5 c 4,20,21
 1884 170 1884 170 1821.5 110 c 4,22,23
 1759 50 1759 50 1674 18 c 4,24,25
 1589 -14 1589 -14 1491 -14 c 4,26,27
 1434 -14 1434 -14 1382 -2.5 c 4,28,29
 1330 9 1330 9 1284 28 c 4,30,31
 1238 47 1238 47 1199.5 72 c 4,32,33
 1161 97 1161 97 1131 125 c 5,34,-1
 1182 196 l 6,35,36
 1200 220 1200 220 1227 220 c 4,37,38
 1245 220 1245 220 1267.5 206 c 4,39,40
 1290 192 1290 192 1322 174.5 c 4,41,42
 1354 157 1354 157 1397 143 c 4,43,44
 1440 129 1440 129 1500 129 c 4,45,46
 1566 129 1566 129 1619 151 c 4,47,48
 1672 173 1672 173 1709 213 c 4,49,50
 1746 253 1746 253 1766 309.5 c 4,51,52
 1786 366 1786 366 1786 436 c 4,53,54
 1786 497 1786 497 1768.5 546 c 4,55,56
 1751 595 1751 595 1716.5 630 c 4,57,58
 1682 665 1682 665 1630 684 c 4,59,60
 1578 703 1578 703 1509 703 c 4,61,62
 1412 703 1412 703 1303 667 c 5,63,-1
 1199 699 l 5,64,-1
 1303 1314 l 5,65,-1
 1915 1314 l 5,66,-1
 1915 1241 l 6,0,1
255 128 m 1,67,-1
 528 128 l 1,68,-1
 528 1015 l 2,69,70
 528 1054 528 1054 531 1096 c 1,71,-1
 308 900 l 2,72,73
 284 880 284 880 261.5 886.5 c 0,74,75
 239 893 239 893 230 906 c 2,76,-1
 177 979 l 1,77,-1
 560 1318 l 1,78,-1
 696 1318 l 1,79,-1
 696 128 l 1,80,-1
 946 128 l 1,81,-1
 946 0 l 1,82,-1
 255 0 l 1,83,-1
 255 128 l 1,67,-1
EndSplineSet
Refer: 97 -1 N 1 0 0 1 1130 0 0
Validated: 1
EndChar

StartChar: f
Encoding: 102 102 33
Width: 2076
GlyphClass: 2
Flags: W
LayerCount: 2
Fore
SplineSet
1293 128 m 1,0,-1
 1566 128 l 1,1,-1
 1566 1015 l 2,2,3
 1566 1054 1566 1054 1569 1096 c 1,4,-1
 1346 900 l 2,5,6
 1323 880 1323 880 1300 886 c 0,7,8
 1277 893 1277 893 1268 906 c 2,9,-1
 1215 979 l 1,10,-1
 1598 1318 l 1,11,-1
 1734 1318 l 1,12,-1
 1734 128 l 1,13,-1
 1984 128 l 1,14,-1
 1984 0 l 1,15,-1
 1293 0 l 1,16,-1
 1293 128 l 1,0,-1
539 1329 m 256,17,18
 622 1329 622 1329 693 1304 c 0,19,20
 764 1279 764 1279 816 1232 c 0,21,22
 868 1185 868 1185 897.5 1117 c 0,23,24
 927 1049 927 1049 927 962 c 0,25,26
 927 889 927 889 905.5 826.5 c 0,27,28
 884 764 884 764 847.5 707 c 0,29,30
 811 650 811 650 763 595.5 c 0,31,32
 715 541 715 541 662 486 c 2,33,-1
 325 135 l 1,34,35
 363 146 363 146 401.5 152 c 0,36,37
 440 158 440 158 475 158 c 2,38,-1
 892 158 l 2,39,40
 919 158 919 158 935 142.5 c 0,41,42
 951 127 951 127 951 101 c 2,43,-1
 951 0 l 1,44,-1
 92 0 l 1,45,-1
 92 57 l 2,46,47
 92 74 92 74 99 93.5 c 0,48,49
 106 113 106 113 123 129 c 2,50,-1
 530 549 l 2,51,52
 582 602 582 602 623.5 651 c 0,53,54
 665 700 665 700 694 749.5 c 0,55,56
 723 799 723 799 739 850 c 0,57,58
 755 901 755 901 755 958 c 256,59,60
 755 1015 755 1015 737.5 1058 c 0,61,62
 720 1101 720 1101 690 1129.5 c 0,63,64
 660 1158 660 1158 619 1172 c 0,65,66
 578 1186 578 1186 530 1186 c 0,67,68
 483 1186 483 1186 443 1171.5 c 0,69,70
 403 1157 403 1157 372 1131.5 c 0,71,72
 341 1106 341 1106 319 1070.5 c 0,73,74
 297 1035 297 1035 287 993 c 0,75,76
 279 959 279 959 259.5 948.5 c 0,77,78
 240 938 240 938 205 943 c 2,79,-1
 118 957 l 1,80,81
 130 1048 130 1048 166.5 1117.5 c 0,82,83
 203 1187 203 1187 258 1234 c 0,84,85
 313 1281 313 1281 384.5 1305 c 0,86,87
 456 1329 456 1329 539 1329 c 256,17,18
EndSplineSet
Refer: 97 -1 N 1 0 0 1 92 0 0
Validated: 1
EndChar

StartChar: g
Encoding: 103 103 34
Width: 2076
GlyphClass: 2
Flags: W
LayerCount: 2
Fore
SplineSet
1577 1329 m 256,0,1
 1660 1329 1660 1329 1731 1304 c 0,2,3
 1802 1279 1802 1279 1854 1232 c 0,4,5
 1906 1185 1906 1185 1935.5 1117 c 0,6,7
 1965 1049 1965 1049 1965 962 c 0,8,9
 1965 889 1965 889 1944 826 c 0,10,11
 1921 760 1921 760 1886 707 c 0,12,13
 1854 659 1854 659 1801 596 c 0,14,15
 1772 561 1772 561 1700 486 c 2,16,-1
 1363 135 l 1,17,18
 1401 146 1401 146 1439.5 152 c 0,19,20
 1478 158 1478 158 1513 158 c 2,21,-1
 1930 158 l 2,22,23
 1957 158 1957 158 1973 142.5 c 0,24,25
 1989 127 1989 127 1989 101 c 2,26,-1
 1989 0 l 1,27,-1
 1130 0 l 1,28,-1
 1130 57 l 2,29,30
 1130 74 1130 74 1137 94 c 0,31,32
 1143 110 1143 110 1161 129 c 2,33,-1
 1568 549 l 2,34,35
 1626 609 1626 609 1662 651 c 0,36,37
 1703 700 1703 700 1732 749.5 c 0,38,39
 1761 799 1761 799 1777 850 c 0,40,41
 1793 901 1793 901 1793 958 c 256,42,43
 1793 1015 1793 1015 1775.5 1058 c 0,44,45
 1758 1101 1758 1101 1728 1129.5 c 0,46,47
 1698 1158 1698 1158 1657 1172 c 0,48,49
 1616 1186 1616 1186 1568 1186 c 0,50,51
 1521 1186 1521 1186 1481 1171.5 c 0,52,53
 1441 1157 1441 1157 1410 1131.5 c 0,54,55
 1379 1106 1379 1106 1357 1070.5 c 0,56,57
 1335 1035 1335 1035 1325 993 c 0,58,59
 1317 959 1317 959 1298 948 c 0,60,61
 1276 938 1276 938 1243 943 c 2,62,-1
 1156 957 l 1,63,64
 1168 1048 1168 1048 1204.5 1117.5 c 0,65,66
 1241 1187 1241 1187 1296 1234 c 0,67,68
 1351 1281 1351 1281 1422.5 1305 c 0,69,70
 1494 1329 1494 1329 1577 1329 c 256,0,1
539 1329 m 256,71,72
 622 1329 622 1329 693 1304 c 0,73,74
 764 1279 764 1279 816 1232 c 0,75,76
 868 1185 868 1185 897.5 1117 c 0,77,78
 927 1049 927 1049 927 962 c 0,79,80
 927 889 927 889 905.5 826.5 c 0,81,82
 884 764 884 764 847.5 707 c 0,83,84
 811 650 811 650 763 595.5 c 0,85,86
 715 541 715 541 662 486 c 2,87,-1
 325 135 l 1,88,89
 363 146 363 146 401.5 152 c 0,90,91
 440 158 440 158 475 158 c 2,92,-1
 892 158 l 2,93,94
 919 158 919 158 935 142.5 c 4,95,96
 951 127 951 127 951 101 c 2,97,-1
 951 0 l 1,98,-1
 92 0 l 1,99,-1
 92 57 l 2,100,101
 92 74 92 74 99 93.5 c 0,102,103
 106 113 106 113 123 129 c 2,104,-1
 530 549 l 2,105,106
 582 602 582 602 623.5 651 c 0,107,108
 665 700 665 700 694 749.5 c 0,109,110
 723 799 723 799 739 850 c 0,111,112
 755 901 755 901 755 958 c 256,113,114
 755 1015 755 1015 737.5 1058 c 0,115,116
 720 1101 720 1101 690 1129.5 c 0,117,118
 660 1158 660 1158 619 1172 c 0,119,120
 578 1186 578 1186 530 1186 c 0,121,122
 483 1186 483 1186 443 1171.5 c 0,123,124
 403 1157 403 1157 372 1131.5 c 0,125,126
 341 1106 341 1106 319 1070.5 c 0,127,128
 297 1035 297 1035 287 993 c 0,129,130
 279 959 279 959 259.5 948.5 c 0,131,132
 240 938 240 938 205 943 c 2,133,-1
 118 957 l 1,134,135
 130 1048 130 1048 166.5 1117.5 c 0,136,137
 203 1187 203 1187 258 1234 c 0,138,139
 313 1281 313 1281 384.5 1305 c 0,140,141
 456 1329 456 1329 539 1329 c 256,71,72
EndSplineSet
Refer: 97 -1 N 1 0 0 1 1384 0 0
Refer: 97 -1 N 1 0 0 1 92 0 0
Validated: 1
EndChar

StartChar: h
Encoding: 104 104 35
Width: 2076
GlyphClass: 2
Flags: W
LayerCount: 2
Fore
SplineSet
1593 1329 m 260,0,1
 1676 1329 1676 1329 1745 1305 c 4,2,3
 1814 1281 1814 1281 1864 1237 c 4,4,5
 1914 1193 1914 1193 1941.5 1131 c 4,6,7
 1969 1069 1969 1069 1969 993 c 4,8,9
 1969 930 1969 930 1953.5 881 c 4,10,11
 1938 832 1938 832 1909 795 c 4,12,13
 1880 758 1880 758 1839 732.5 c 4,14,15
 1798 707 1798 707 1747 691 c 5,16,17
 1872 657 1872 657 1935 577.5 c 4,18,19
 1998 498 1998 498 1998 378 c 4,20,21
 1998 287 1998 287 1964 214.5 c 4,22,23
 1930 142 1930 142 1871.5 91 c 4,24,25
 1813 40 1813 40 1735 13 c 4,26,27
 1657 -14 1657 -14 1569 -14 c 4,28,29
 1467 -14 1467 -14 1395 11.5 c 4,30,31
 1323 37 1323 37 1272 83 c 4,32,33
 1221 129 1221 129 1188 191 c 4,34,35
 1155 253 1155 253 1133 327 c 5,36,-1
 1205 358 l 6,37,38
 1234 370 1234 370 1260.5 365 c 4,39,40
 1287 360 1287 360 1299 335 c 4,41,42
 1311 309 1311 309 1328.5 273.5 c 4,43,44
 1346 238 1346 238 1376 205.5 c 4,45,46
 1406 173 1406 173 1452 150.5 c 4,47,48
 1498 128 1498 128 1567 128 c 4,49,50
 1633 128 1633 128 1682 150.5 c 4,51,52
 1731 173 1731 173 1764 208 c 4,53,54
 1797 243 1797 243 1813.5 287 c 4,55,56
 1830 331 1830 331 1830 373 c 4,57,58
 1830 425 1830 425 1817 469.5 c 4,59,60
 1804 514 1804 514 1768 545.5 c 4,61,62
 1732 577 1732 577 1668.5 595 c 4,63,64
 1605 613 1605 613 1505 613 c 5,65,-1
 1505 734 l 5,66,67
 1587 735 1587 735 1644 752.5 c 4,68,69
 1701 770 1701 770 1737 800 c 4,70,71
 1773 830 1773 830 1789 872 c 4,72,73
 1805 914 1805 914 1805 964 c 4,74,75
 1805 1020 1805 1020 1788.5 1061.5 c 4,76,77
 1772 1103 1772 1103 1742.5 1131 c 4,78,79
 1713 1159 1713 1159 1672.5 1172.5 c 4,80,81
 1632 1186 1632 1186 1584 1186 c 260,82,83
 1536 1186 1536 1186 1496.5 1171.5 c 4,84,85
 1457 1157 1457 1157 1426 1131.5 c 4,86,87
 1395 1106 1395 1106 1373.5 1070.5 c 4,88,89
 1352 1035 1352 1035 1341 993 c 4,90,91
 1333 959 1333 959 1313.5 948.5 c 4,92,93
 1294 938 1294 938 1259 943 c 6,94,-1
 1171 957 l 5,95,96
 1184 1048 1184 1048 1220 1117.5 c 4,97,98
 1256 1187 1256 1187 1311.5 1234 c 4,99,100
 1367 1281 1367 1281 1438.5 1305 c 4,101,102
 1510 1329 1510 1329 1593 1329 c 260,0,1
539 1329 m 256,103,104
 622 1329 622 1329 693 1304 c 0,105,106
 764 1279 764 1279 816 1232 c 0,107,108
 868 1185 868 1185 897.5 1117 c 0,109,110
 927 1049 927 1049 927 962 c 0,111,112
 927 889 927 889 905.5 826.5 c 0,113,114
 884 764 884 764 847.5 707 c 0,115,116
 811 650 811 650 763 595.5 c 0,117,118
 715 541 715 541 662 486 c 2,119,-1
 325 135 l 1,120,121
 363 146 363 146 401.5 152 c 0,122,123
 440 158 440 158 475 158 c 2,124,-1
 892 158 l 2,125,126
 919 158 919 158 935 142.5 c 0,127,128
 951 127 951 127 951 101 c 2,129,-1
 951 0 l 1,130,-1
 92 0 l 1,131,-1
 92 57 l 2,132,133
 92 74 92 74 99 93.5 c 0,134,135
 106 113 106 113 123 129 c 2,136,-1
 530 549 l 2,137,138
 582 602 582 602 623.5 651 c 0,139,140
 665 700 665 700 694 749.5 c 0,141,142
 723 799 723 799 739 850 c 0,143,144
 755 901 755 901 755 958 c 256,145,146
 755 1015 755 1015 737.5 1058 c 0,147,148
 720 1101 720 1101 690 1129.5 c 0,149,150
 660 1158 660 1158 619 1172 c 0,151,152
 578 1186 578 1186 530 1186 c 0,153,154
 483 1186 483 1186 443 1171.5 c 0,155,156
 403 1157 403 1157 372 1131.5 c 0,157,158
 341 1106 341 1106 319 1070.5 c 0,159,160
 297 1035 297 1035 287 993 c 0,161,162
 279 959 279 959 259.5 948.5 c 0,163,164
 240 938 240 938 205 943 c 2,165,-1
 118 957 l 1,166,167
 130 1048 130 1048 166.5 1117.5 c 0,168,169
 203 1187 203 1187 258 1234 c 0,170,171
 313 1281 313 1281 384.5 1305 c 0,172,173
 456 1329 456 1329 539 1329 c 256,103,104
EndSplineSet
Refer: 97 -1 N 1 0 0 1 92 0 0
Validated: 1
EndChar

StartChar: i
Encoding: 105 105 36
Width: 2076
GlyphClass: 2
Flags: W
LayerCount: 2
Fore
SplineSet
1852 475 m 5,0,-1
 2042 475 l 5,1,-1
 2042 380 l 6,2,3
 2042 365 2042 365 2032.5 354.5 c 4,4,5
 2023 344 2023 344 2005 344 c 6,6,-1
 1852 344 l 5,7,-1
 1852 0 l 5,8,-1
 1705 0 l 5,9,-1
 1705 344 l 5,10,-1
 1140 344 l 6,11,12
 1120 344 1120 344 1107 354.5 c 4,13,14
 1094 365 1094 365 1090 382 c 6,15,-1
 1073 466 l 5,16,-1
 1695 1315 l 5,17,-1
 1852 1315 l 5,18,-1
 1852 475 l 5,0,-1
1705 1011 m 6,19,20
 1705 1059 1705 1059 1711 1116 c 5,21,-1
 1252 475 l 5,22,-1
 1705 475 l 5,23,-1
 1705 1011 l 6,19,20
539 1329 m 256,24,25
 622 1329 622 1329 693 1304 c 0,26,27
 764 1279 764 1279 816 1232 c 0,28,29
 868 1185 868 1185 897.5 1117 c 0,30,31
 927 1049 927 1049 927 962 c 0,32,33
 927 889 927 889 905.5 826.5 c 0,34,35
 884 764 884 764 847.5 707 c 0,36,37
 811 650 811 650 763 595.5 c 0,38,39
 715 541 715 541 662 486 c 2,40,-1
 325 135 l 1,41,42
 363 146 363 146 401.5 152 c 0,43,44
 440 158 440 158 475 158 c 2,45,-1
 892 158 l 2,46,47
 919 158 919 158 935 142.5 c 0,48,49
 951 127 951 127 951 101 c 2,50,-1
 951 0 l 1,51,-1
 92 0 l 1,52,-1
 92 57 l 2,53,54
 92 74 92 74 99 93.5 c 0,55,56
 106 113 106 113 123 129 c 2,57,-1
 530 549 l 2,58,59
 582 602 582 602 623.5 651 c 0,60,61
 665 700 665 700 694 749.5 c 0,62,63
 723 799 723 799 739 850 c 0,64,65
 755 901 755 901 755 958 c 256,66,67
 755 1015 755 1015 737.5 1058 c 0,68,69
 720 1101 720 1101 690 1129.5 c 0,70,71
 660 1158 660 1158 619 1172 c 0,72,73
 578 1186 578 1186 530 1186 c 0,74,75
 483 1186 483 1186 443 1171.5 c 0,76,77
 403 1157 403 1157 372 1131.5 c 0,78,79
 341 1106 341 1106 319 1070.5 c 0,80,81
 297 1035 297 1035 287 993 c 0,82,83
 279 959 279 959 259.5 948.5 c 0,84,85
 240 938 240 938 205 943 c 2,86,-1
 118 957 l 1,87,88
 130 1048 130 1048 166.5 1117.5 c 0,89,90
 203 1187 203 1187 258 1234 c 0,91,92
 313 1281 313 1281 384.5 1305 c 0,93,94
 456 1329 456 1329 539 1329 c 256,24,25
EndSplineSet
Refer: 97 -1 N 1 0 0 1 92 0 0
Validated: 1
EndChar

StartChar: j
Encoding: 106 106 37
Width: 2076
GlyphClass: 2
Flags: W
LayerCount: 2
Fore
SplineSet
1852 475 m 5,0,-1
 2042 475 l 5,1,-1
 2042 380 l 6,2,3
 2042 365 2042 365 2032.5 354.5 c 4,4,5
 2023 344 2023 344 2005 344 c 6,6,-1
 1852 344 l 5,7,-1
 1852 0 l 5,8,-1
 1705 0 l 5,9,-1
 1705 344 l 5,10,-1
 1140 344 l 6,11,12
 1120 344 1120 344 1107 354.5 c 4,13,14
 1094 365 1094 365 1090 382 c 6,15,-1
 1073 466 l 5,16,-1
 1695 1315 l 5,17,-1
 1852 1315 l 5,18,-1
 1852 475 l 5,0,-1
1705 1011 m 6,19,20
 1705 1059 1705 1059 1711 1116 c 5,21,-1
 1252 475 l 5,22,-1
 1705 475 l 5,23,-1
 1705 1011 l 6,19,20
539 1329 m 256,24,25
 622 1329 622 1329 693 1304 c 0,26,27
 764 1279 764 1279 816 1232 c 0,28,29
 868 1185 868 1185 897.5 1117 c 0,30,31
 927 1049 927 1049 927 962 c 0,32,33
 927 889 927 889 905.5 826.5 c 0,34,35
 884 764 884 764 847.5 707 c 0,36,37
 811 650 811 650 763 595.5 c 0,38,39
 715 541 715 541 662 486 c 2,40,-1
 325 135 l 1,41,42
 363 146 363 146 401.5 152 c 0,43,44
 440 158 440 158 475 158 c 2,45,-1
 892 158 l 2,46,47
 919 158 919 158 935 142.5 c 0,48,49
 951 127 951 127 951 101 c 2,50,-1
 951 0 l 1,51,-1
 92 0 l 1,52,-1
 92 57 l 2,53,54
 92 74 92 74 99 93.5 c 0,55,56
 106 113 106 113 123 129 c 2,57,-1
 530 549 l 2,58,59
 582 602 582 602 623.5 651 c 0,60,61
 665 700 665 700 694 749.5 c 0,62,63
 723 799 723 799 739 850 c 0,64,65
 755 901 755 901 755 958 c 256,66,67
 755 1015 755 1015 737.5 1058 c 0,68,69
 720 1101 720 1101 690 1129.5 c 0,70,71
 660 1158 660 1158 619 1172 c 0,72,73
 578 1186 578 1186 530 1186 c 0,74,75
 483 1186 483 1186 443 1171.5 c 0,76,77
 403 1157 403 1157 372 1131.5 c 0,78,79
 341 1106 341 1106 319 1070.5 c 0,80,81
 297 1035 297 1035 287 993 c 0,82,83
 279 959 279 959 259.5 948.5 c 0,84,85
 240 938 240 938 205 943 c 2,86,-1
 118 957 l 1,87,88
 130 1048 130 1048 166.5 1117.5 c 0,89,90
 203 1187 203 1187 258 1234 c 0,91,92
 313 1281 313 1281 384.5 1305 c 0,93,94
 456 1329 456 1329 539 1329 c 256,24,25
EndSplineSet
Refer: 97 -1 N 1 0 0 1 92 0 0
Validated: 1
EndChar

StartChar: k
Encoding: 107 107 38
Width: 2076
GlyphClass: 2
Flags: W
LayerCount: 2
Fore
SplineSet
1915 1241 m 6,0,1
 1915 1206 1915 1206 1892.5 1183 c 4,2,3
 1870 1160 1870 1160 1817 1160 c 6,4,-1
 1420 1160 l 5,5,-1
 1363 820 l 5,6,7
 1413 831 1413 831 1457.5 836 c 4,8,9
 1502 841 1502 841 1544 841 c 4,10,11
 1644 841 1644 841 1721 810.5 c 4,12,13
 1798 780 1798 780 1850 727 c 4,14,15
 1902 674 1902 674 1928.5 601.5 c 4,16,17
 1955 529 1955 529 1955 444 c 4,18,19
 1955 339 1955 339 1919.5 254.5 c 4,20,21
 1884 170 1884 170 1821.5 110 c 4,22,23
 1759 50 1759 50 1674 18 c 4,24,25
 1589 -14 1589 -14 1491 -14 c 4,26,27
 1434 -14 1434 -14 1382 -2.5 c 4,28,29
 1330 9 1330 9 1284 28 c 4,30,31
 1238 47 1238 47 1199.5 72 c 4,32,33
 1161 97 1161 97 1131 125 c 5,34,-1
 1182 196 l 6,35,36
 1200 220 1200 220 1227 220 c 4,37,38
 1245 220 1245 220 1267.5 206 c 4,39,40
 1290 192 1290 192 1322 174.5 c 4,41,42
 1354 157 1354 157 1397 143 c 4,43,44
 1440 129 1440 129 1500 129 c 4,45,46
 1566 129 1566 129 1619 151 c 4,47,48
 1672 173 1672 173 1709 213 c 4,49,50
 1746 253 1746 253 1766 309.5 c 4,51,52
 1786 366 1786 366 1786 436 c 4,53,54
 1786 497 1786 497 1768.5 546 c 4,55,56
 1751 595 1751 595 1716.5 630 c 4,57,58
 1682 665 1682 665 1630 684 c 4,59,60
 1578 703 1578 703 1509 703 c 4,61,62
 1412 703 1412 703 1303 667 c 5,63,-1
 1199 699 l 5,64,-1
 1303 1314 l 5,65,-1
 1915 1314 l 5,66,-1
 1915 1241 l 6,0,1
539 1329 m 256,67,68
 622 1329 622 1329 693 1304 c 0,69,70
 764 1279 764 1279 816 1232 c 0,71,72
 868 1185 868 1185 897.5 1117 c 0,73,74
 927 1049 927 1049 927 962 c 0,75,76
 927 889 927 889 905.5 826.5 c 0,77,78
 884 764 884 764 847.5 707 c 0,79,80
 811 650 811 650 763 595.5 c 0,81,82
 715 541 715 541 662 486 c 2,83,-1
 325 135 l 1,84,85
 363 146 363 146 401.5 152 c 0,86,87
 440 158 440 158 475 158 c 2,88,-1
 892 158 l 2,89,90
 919 158 919 158 935 142.5 c 0,91,92
 951 127 951 127 951 101 c 2,93,-1
 951 0 l 1,94,-1
 92 0 l 1,95,-1
 92 57 l 2,96,97
 92 74 92 74 99 93.5 c 0,98,99
 106 113 106 113 123 129 c 2,100,-1
 530 549 l 2,101,102
 582 602 582 602 623.5 651 c 0,103,104
 665 700 665 700 694 749.5 c 0,105,106
 723 799 723 799 739 850 c 0,107,108
 755 901 755 901 755 958 c 256,109,110
 755 1015 755 1015 737.5 1058 c 0,111,112
 720 1101 720 1101 690 1129.5 c 0,113,114
 660 1158 660 1158 619 1172 c 0,115,116
 578 1186 578 1186 530 1186 c 0,117,118
 483 1186 483 1186 443 1171.5 c 0,119,120
 403 1157 403 1157 372 1131.5 c 0,121,122
 341 1106 341 1106 319 1070.5 c 0,123,124
 297 1035 297 1035 287 993 c 0,125,126
 279 959 279 959 259.5 948.5 c 0,127,128
 240 938 240 938 205 943 c 2,129,-1
 118 957 l 1,130,131
 130 1048 130 1048 166.5 1117.5 c 0,132,133
 203 1187 203 1187 258 1234 c 0,134,135
 313 1281 313 1281 384.5 1305 c 0,136,137
 456 1329 456 1329 539 1329 c 256,67,68
EndSplineSet
Refer: 97 -1 N 1 0 0 1 1130 0 0
Refer: 97 -1 N 1 0 0 1 92 0 0
Validated: 1
EndChar

StartChar: m
Encoding: 109 109 39
Width: 2076
GlyphClass: 2
Flags: W
LayerCount: 2
Fore
SplineSet
1577 1329 m 256,0,1
 1660 1329 1660 1329 1731 1304 c 0,2,3
 1802 1279 1802 1279 1854 1232 c 0,4,5
 1906 1185 1906 1185 1935.5 1117 c 0,6,7
 1965 1049 1965 1049 1965 962 c 0,8,9
 1965 889 1965 889 1943.5 826.5 c 0,10,11
 1922 764 1922 764 1885.5 707 c 0,12,13
 1849 650 1849 650 1801 596 c 0,14,15
 1758 546 1758 546 1700 486 c 2,16,-1
 1363 135 l 1,17,18
 1401 146 1401 146 1439.5 152 c 0,19,20
 1478 158 1478 158 1513 158 c 2,21,-1
 1930 158 l 2,22,23
 1957 158 1957 158 1973 142.5 c 0,24,25
 1989 127 1989 127 1989 101 c 2,26,-1
 1989 0 l 1,27,-1
 1130 0 l 1,28,-1
 1130 57 l 2,29,30
 1130 74 1130 74 1137 94 c 0,31,32
 1143 110 1143 110 1161 129 c 2,33,-1
 1568 549 l 2,34,35
 1624 607 1624 607 1662 651 c 0,36,37
 1703 700 1703 700 1732 749.5 c 0,38,39
 1761 799 1761 799 1777 850 c 0,40,41
 1793 901 1793 901 1793 958 c 256,42,43
 1793 1015 1793 1015 1775.5 1058 c 0,44,45
 1758 1101 1758 1101 1728 1129.5 c 0,46,47
 1698 1158 1698 1158 1657 1172 c 0,48,49
 1616 1186 1616 1186 1568 1186 c 0,50,51
 1521 1186 1521 1186 1481 1171.5 c 0,52,53
 1441 1157 1441 1157 1410 1131.5 c 0,54,55
 1379 1106 1379 1106 1357 1070.5 c 0,56,57
 1335 1035 1335 1035 1325 993 c 0,58,59
 1317 959 1317 959 1298 948 c 0,60,61
 1276 938 1276 938 1243 943 c 2,62,-1
 1156 957 l 1,63,64
 1168 1048 1168 1048 1204.5 1117.5 c 0,65,66
 1241 1187 1241 1187 1296 1234 c 0,67,68
 1351 1281 1351 1281 1422.5 1305 c 0,69,70
 1494 1329 1494 1329 1577 1329 c 256,0,1
555 1329 m 256,71,72
 638 1329 638 1329 707 1305 c 0,73,74
 776 1281 776 1281 826 1237 c 0,75,76
 876 1193 876 1193 903.5 1131 c 0,77,78
 931 1069 931 1069 931 993 c 0,79,80
 931 930 931 930 915.5 881 c 0,81,82
 900 832 900 832 871 795 c 0,83,84
 842 758 842 758 801 732.5 c 0,85,86
 760 707 760 707 709 691 c 1,87,88
 834 657 834 657 897 577.5 c 0,89,90
 960 498 960 498 960 378 c 0,91,92
 960 287 960 287 926 214.5 c 0,93,94
 892 142 892 142 833.5 91 c 0,95,96
 775 40 775 40 697 13 c 0,97,98
 619 -14 619 -14 531 -14 c 0,99,100
 429 -14 429 -14 357 11.5 c 0,101,102
 285 37 285 37 234 83 c 0,103,104
 183 129 183 129 150 191 c 0,105,106
 117 253 117 253 95 327 c 1,107,-1
 167 358 l 2,108,109
 196 370 196 370 222.5 365 c 0,110,111
 249 360 249 360 261 335 c 0,112,113
 273 309 273 309 290.5 273.5 c 0,114,115
 308 238 308 238 338 205.5 c 0,116,117
 368 173 368 173 414 150.5 c 0,118,119
 460 128 460 128 529 128 c 0,120,121
 595 128 595 128 644 150.5 c 0,122,123
 693 173 693 173 726 208 c 0,124,125
 759 243 759 243 775.5 287 c 0,126,127
 792 331 792 331 792 373 c 0,128,129
 792 425 792 425 779 469.5 c 0,130,131
 766 514 766 514 730 545.5 c 0,132,133
 694 577 694 577 630.5 595 c 0,134,135
 567 613 567 613 467 613 c 1,136,-1
 467 734 l 1,137,138
 549 735 549 735 606 752.5 c 0,139,140
 663 770 663 770 699 800 c 0,141,142
 735 830 735 830 751 872 c 0,143,144
 767 914 767 914 767 964 c 0,145,146
 767 1020 767 1020 750.5 1061.5 c 0,147,148
 734 1103 734 1103 704.5 1131 c 0,149,150
 675 1159 675 1159 634.5 1172.5 c 0,151,152
 594 1186 594 1186 546 1186 c 256,153,154
 498 1186 498 1186 458.5 1171.5 c 0,155,156
 419 1157 419 1157 388 1131.5 c 0,157,158
 357 1106 357 1106 335.5 1070.5 c 0,159,160
 314 1035 314 1035 303 993 c 0,161,162
 295 959 295 959 275.5 948.5 c 0,163,164
 256 938 256 938 221 943 c 2,165,-1
 133 957 l 1,166,167
 146 1048 146 1048 182 1117.5 c 0,168,169
 218 1187 218 1187 273.5 1234 c 0,170,171
 329 1281 329 1281 400.5 1305 c 0,172,173
 472 1329 472 1329 555 1329 c 256,71,72
EndSplineSet
Refer: 97 -1 N 1 0 0 1 1093 0 0
Refer: 97 -1 N 1 0 0 1 95 0 0
Validated: 1
EndChar

StartChar: n
Encoding: 110 110 40
Width: 2076
GlyphClass: 2
Flags: W
LayerCount: 2
Fore
SplineSet
1593 1329 m 260,0,1
 1676 1329 1676 1329 1745 1305 c 4,2,3
 1814 1281 1814 1281 1864 1237 c 4,4,5
 1914 1193 1914 1193 1941.5 1131 c 4,6,7
 1969 1069 1969 1069 1969 993 c 4,8,9
 1969 930 1969 930 1953.5 881 c 4,10,11
 1938 832 1938 832 1909 795 c 4,12,13
 1880 758 1880 758 1839 732.5 c 4,14,15
 1798 707 1798 707 1747 691 c 5,16,17
 1872 657 1872 657 1935 577.5 c 4,18,19
 1998 498 1998 498 1998 378 c 4,20,21
 1998 287 1998 287 1964 214.5 c 4,22,23
 1930 142 1930 142 1871.5 91 c 4,24,25
 1813 40 1813 40 1735 13 c 4,26,27
 1657 -14 1657 -14 1569 -14 c 4,28,29
 1467 -14 1467 -14 1395 11.5 c 4,30,31
 1323 37 1323 37 1272 83 c 4,32,33
 1221 129 1221 129 1188 191 c 4,34,35
 1155 253 1155 253 1133 327 c 5,36,-1
 1205 358 l 6,37,38
 1234 370 1234 370 1260.5 365 c 4,39,40
 1287 360 1287 360 1299 335 c 4,41,42
 1311 309 1311 309 1328.5 273.5 c 4,43,44
 1346 238 1346 238 1376 205.5 c 4,45,46
 1406 173 1406 173 1452 150.5 c 4,47,48
 1498 128 1498 128 1567 128 c 4,49,50
 1633 128 1633 128 1682 150.5 c 4,51,52
 1731 173 1731 173 1764 208 c 4,53,54
 1797 243 1797 243 1813.5 287 c 4,55,56
 1830 331 1830 331 1830 373 c 4,57,58
 1830 425 1830 425 1817 469.5 c 4,59,60
 1804 514 1804 514 1768 545.5 c 4,61,62
 1732 577 1732 577 1668.5 595 c 4,63,64
 1605 613 1605 613 1505 613 c 5,65,-1
 1505 734 l 5,66,67
 1587 735 1587 735 1644 752.5 c 4,68,69
 1701 770 1701 770 1737 800 c 4,70,71
 1773 830 1773 830 1789 872 c 4,72,73
 1805 914 1805 914 1805 964 c 4,74,75
 1805 1020 1805 1020 1788.5 1061.5 c 4,76,77
 1772 1103 1772 1103 1742.5 1131 c 4,78,79
 1713 1159 1713 1159 1672.5 1172.5 c 4,80,81
 1632 1186 1632 1186 1584 1186 c 260,82,83
 1536 1186 1536 1186 1496.5 1171.5 c 4,84,85
 1457 1157 1457 1157 1426 1131.5 c 4,86,87
 1395 1106 1395 1106 1373.5 1070.5 c 4,88,89
 1352 1035 1352 1035 1341 993 c 4,90,91
 1333 959 1333 959 1313.5 948.5 c 4,92,93
 1294 938 1294 938 1259 943 c 6,94,-1
 1171 957 l 5,95,96
 1184 1048 1184 1048 1220 1117.5 c 4,97,98
 1256 1187 1256 1187 1311.5 1234 c 4,99,100
 1367 1281 1367 1281 1438.5 1305 c 4,101,102
 1510 1329 1510 1329 1593 1329 c 260,0,1
555 1329 m 256,103,104
 638 1329 638 1329 707 1305 c 0,105,106
 776 1281 776 1281 826 1237 c 0,107,108
 876 1193 876 1193 903.5 1131 c 0,109,110
 931 1069 931 1069 931 993 c 0,111,112
 931 930 931 930 915.5 881 c 0,113,114
 900 832 900 832 871 795 c 0,115,116
 842 758 842 758 801 732.5 c 0,117,118
 760 707 760 707 709 691 c 1,119,120
 834 657 834 657 897 577.5 c 0,121,122
 960 498 960 498 960 378 c 0,123,124
 960 287 960 287 926 214.5 c 0,125,126
 892 142 892 142 833.5 91 c 0,127,128
 775 40 775 40 697 13 c 0,129,130
 619 -14 619 -14 531 -14 c 0,131,132
 429 -14 429 -14 357 11.5 c 0,133,134
 285 37 285 37 234 83 c 0,135,136
 183 129 183 129 150 191 c 0,137,138
 117 253 117 253 95 327 c 1,139,-1
 167 358 l 2,140,141
 196 370 196 370 222.5 365 c 0,142,143
 249 360 249 360 261 335 c 0,144,145
 273 309 273 309 290.5 273.5 c 0,146,147
 308 238 308 238 338 205.5 c 0,148,149
 368 173 368 173 414 150.5 c 0,150,151
 460 128 460 128 529 128 c 0,152,153
 595 128 595 128 644 150.5 c 0,154,155
 693 173 693 173 726 208 c 0,156,157
 759 243 759 243 775.5 287 c 0,158,159
 792 331 792 331 792 373 c 0,160,161
 792 425 792 425 779 469.5 c 0,162,163
 766 514 766 514 730 545.5 c 0,164,165
 694 577 694 577 630.5 595 c 0,166,167
 567 613 567 613 467 613 c 1,168,-1
 467 734 l 1,169,170
 549 735 549 735 606 752.5 c 0,171,172
 663 770 663 770 699 800 c 0,173,174
 735 830 735 830 751 872 c 0,175,176
 767 914 767 914 767 964 c 0,177,178
 767 1020 767 1020 750.5 1061.5 c 0,179,180
 734 1103 734 1103 704.5 1131 c 0,181,182
 675 1159 675 1159 634.5 1172.5 c 0,183,184
 594 1186 594 1186 546 1186 c 256,185,186
 498 1186 498 1186 458.5 1171.5 c 0,187,188
 419 1157 419 1157 388 1131.5 c 0,189,190
 357 1106 357 1106 335.5 1070.5 c 0,191,192
 314 1035 314 1035 303 993 c 0,193,194
 295 959 295 959 275.5 948.5 c 0,195,196
 256 938 256 938 221 943 c 2,197,-1
 133 957 l 1,198,199
 146 1048 146 1048 182 1117.5 c 0,200,201
 218 1187 218 1187 273.5 1234 c 0,202,203
 329 1281 329 1281 400.5 1305 c 0,204,205
 472 1329 472 1329 555 1329 c 256,103,104
EndSplineSet
Refer: 97 -1 N 1 0 0 1 95 0 0
Validated: 1
EndChar

StartChar: o
Encoding: 111 111 41
Width: 2076
GlyphClass: 2
Flags: W
LayerCount: 2
Fore
SplineSet
1852 475 m 5,0,-1
 2042 475 l 5,1,-1
 2042 380 l 6,2,3
 2042 365 2042 365 2032.5 354.5 c 4,4,5
 2023 344 2023 344 2005 344 c 6,6,-1
 1852 344 l 5,7,-1
 1852 0 l 5,8,-1
 1705 0 l 5,9,-1
 1705 344 l 5,10,-1
 1140 344 l 6,11,12
 1120 344 1120 344 1107 354.5 c 4,13,14
 1094 365 1094 365 1090 382 c 6,15,-1
 1073 466 l 5,16,-1
 1695 1315 l 5,17,-1
 1852 1315 l 5,18,-1
 1852 475 l 5,0,-1
1705 1011 m 6,19,20
 1705 1059 1705 1059 1711 1116 c 5,21,-1
 1252 475 l 5,22,-1
 1705 475 l 5,23,-1
 1705 1011 l 6,19,20
555 1329 m 256,24,25
 638 1329 638 1329 707 1305 c 0,26,27
 776 1281 776 1281 826 1237 c 0,28,29
 876 1193 876 1193 903.5 1131 c 0,30,31
 931 1069 931 1069 931 993 c 0,32,33
 931 930 931 930 915.5 881 c 0,34,35
 900 832 900 832 871 795 c 0,36,37
 842 758 842 758 801 732.5 c 0,38,39
 760 707 760 707 709 691 c 1,40,41
 834 657 834 657 897 577.5 c 0,42,43
 960 498 960 498 960 378 c 0,44,45
 960 287 960 287 926 214.5 c 0,46,47
 892 142 892 142 833.5 91 c 0,48,49
 775 40 775 40 697 13 c 0,50,51
 619 -14 619 -14 531 -14 c 0,52,53
 429 -14 429 -14 357 11.5 c 0,54,55
 285 37 285 37 234 83 c 0,56,57
 183 129 183 129 150 191 c 0,58,59
 117 253 117 253 95 327 c 1,60,-1
 167 358 l 2,61,62
 196 370 196 370 222.5 365 c 0,63,64
 249 360 249 360 261 335 c 0,65,66
 273 309 273 309 290.5 273.5 c 0,67,68
 308 238 308 238 338 205.5 c 0,69,70
 368 173 368 173 414 150.5 c 0,71,72
 460 128 460 128 529 128 c 0,73,74
 595 128 595 128 644 150.5 c 0,75,76
 693 173 693 173 726 208 c 0,77,78
 759 243 759 243 775.5 287 c 0,79,80
 792 331 792 331 792 373 c 0,81,82
 792 425 792 425 779 469.5 c 0,83,84
 766 514 766 514 730 545.5 c 0,85,86
 694 577 694 577 630.5 595 c 0,87,88
 567 613 567 613 467 613 c 1,89,-1
 467 734 l 1,90,91
 549 735 549 735 606 752.5 c 0,92,93
 663 770 663 770 699 800 c 0,94,95
 735 830 735 830 751 872 c 0,96,97
 767 914 767 914 767 964 c 0,98,99
 767 1020 767 1020 750.5 1061.5 c 0,100,101
 734 1103 734 1103 704.5 1131 c 0,102,103
 675 1159 675 1159 634.5 1172.5 c 0,104,105
 594 1186 594 1186 546 1186 c 256,106,107
 498 1186 498 1186 458.5 1171.5 c 0,108,109
 419 1157 419 1157 388 1131.5 c 0,110,111
 357 1106 357 1106 335.5 1070.5 c 0,112,113
 314 1035 314 1035 303 993 c 0,114,115
 295 959 295 959 275.5 948.5 c 0,116,117
 256 938 256 938 221 943 c 2,118,-1
 133 957 l 1,119,120
 146 1048 146 1048 182 1117.5 c 0,121,122
 218 1187 218 1187 273.5 1234 c 0,123,124
 329 1281 329 1281 400.5 1305 c 0,125,126
 472 1329 472 1329 555 1329 c 256,24,25
EndSplineSet
Refer: 97 -1 N 1 0 0 1 95 0 0
Validated: 1
EndChar

StartChar: p
Encoding: 112 112 42
Width: 2076
GlyphClass: 2
Flags: W
LayerCount: 2
Fore
SplineSet
1915 1241 m 6,0,1
 1915 1206 1915 1206 1892.5 1183 c 4,2,3
 1870 1160 1870 1160 1817 1160 c 6,4,-1
 1420 1160 l 5,5,-1
 1363 820 l 5,6,7
 1413 831 1413 831 1457.5 836 c 4,8,9
 1502 841 1502 841 1544 841 c 4,10,11
 1644 841 1644 841 1721 810.5 c 4,12,13
 1798 780 1798 780 1850 727 c 4,14,15
 1902 674 1902 674 1928.5 601.5 c 4,16,17
 1955 529 1955 529 1955 444 c 4,18,19
 1955 339 1955 339 1919.5 254.5 c 4,20,21
 1884 170 1884 170 1821.5 110 c 4,22,23
 1759 50 1759 50 1674 18 c 4,24,25
 1589 -14 1589 -14 1491 -14 c 4,26,27
 1434 -14 1434 -14 1382 -2.5 c 4,28,29
 1330 9 1330 9 1284 28 c 4,30,31
 1238 47 1238 47 1199.5 72 c 4,32,33
 1161 97 1161 97 1131 125 c 5,34,-1
 1182 196 l 6,35,36
 1200 220 1200 220 1227 220 c 4,37,38
 1245 220 1245 220 1267.5 206 c 4,39,40
 1290 192 1290 192 1322 174.5 c 4,41,42
 1354 157 1354 157 1397 143 c 4,43,44
 1440 129 1440 129 1500 129 c 4,45,46
 1566 129 1566 129 1619 151 c 4,47,48
 1672 173 1672 173 1709 213 c 4,49,50
 1746 253 1746 253 1766 309.5 c 4,51,52
 1786 366 1786 366 1786 436 c 4,53,54
 1786 497 1786 497 1768.5 546 c 4,55,56
 1751 595 1751 595 1716.5 630 c 4,57,58
 1682 665 1682 665 1630 684 c 4,59,60
 1578 703 1578 703 1509 703 c 4,61,62
 1412 703 1412 703 1303 667 c 5,63,-1
 1199 699 l 5,64,-1
 1303 1314 l 5,65,-1
 1915 1314 l 5,66,-1
 1915 1241 l 6,0,1
555 1329 m 256,67,68
 638 1329 638 1329 707 1305 c 0,69,70
 776 1281 776 1281 826 1237 c 0,71,72
 876 1193 876 1193 903.5 1131 c 0,73,74
 931 1069 931 1069 931 993 c 0,75,76
 931 930 931 930 915.5 881 c 0,77,78
 900 832 900 832 871 795 c 0,79,80
 842 758 842 758 801 732.5 c 0,81,82
 760 707 760 707 709 691 c 1,83,84
 834 657 834 657 897 577.5 c 0,85,86
 960 498 960 498 960 378 c 0,87,88
 960 287 960 287 926 214.5 c 0,89,90
 892 142 892 142 833.5 91 c 0,91,92
 775 40 775 40 697 13 c 0,93,94
 619 -14 619 -14 531 -14 c 0,95,96
 429 -14 429 -14 357 11.5 c 0,97,98
 285 37 285 37 234 83 c 0,99,100
 183 129 183 129 150 191 c 0,101,102
 117 253 117 253 95 327 c 1,103,-1
 167 358 l 2,104,105
 196 370 196 370 222.5 365 c 0,106,107
 249 360 249 360 261 335 c 0,108,109
 273 309 273 309 290.5 273.5 c 0,110,111
 308 238 308 238 338 205.5 c 0,112,113
 368 173 368 173 414 150.5 c 0,114,115
 460 128 460 128 529 128 c 0,116,117
 595 128 595 128 644 150.5 c 0,118,119
 693 173 693 173 726 208 c 0,120,121
 759 243 759 243 775.5 287 c 0,122,123
 792 331 792 331 792 373 c 0,124,125
 792 425 792 425 779 469.5 c 0,126,127
 766 514 766 514 730 545.5 c 0,128,129
 694 577 694 577 630.5 595 c 0,130,131
 567 613 567 613 467 613 c 1,132,-1
 467 734 l 1,133,134
 549 735 549 735 606 752.5 c 0,135,136
 663 770 663 770 699 800 c 0,137,138
 735 830 735 830 751 872 c 0,139,140
 767 914 767 914 767 964 c 0,141,142
 767 1020 767 1020 750.5 1061.5 c 0,143,144
 734 1103 734 1103 704.5 1131 c 0,145,146
 675 1159 675 1159 634.5 1172.5 c 0,147,148
 594 1186 594 1186 546 1186 c 256,149,150
 498 1186 498 1186 458.5 1171.5 c 0,151,152
 419 1157 419 1157 388 1131.5 c 0,153,154
 357 1106 357 1106 335.5 1070.5 c 0,155,156
 314 1035 314 1035 303 993 c 0,157,158
 295 959 295 959 275.5 948.5 c 0,159,160
 256 938 256 938 221 943 c 2,161,-1
 133 957 l 1,162,163
 146 1048 146 1048 182 1117.5 c 0,164,165
 218 1187 218 1187 273.5 1234 c 0,166,167
 329 1281 329 1281 400.5 1305 c 0,168,169
 472 1329 472 1329 555 1329 c 256,67,68
EndSplineSet
Refer: 97 -1 N 1 0 0 1 1130 0 0
Refer: 97 -1 N 1 0 0 1 95 0 0
Validated: 1
EndChar

StartChar: q
Encoding: 113 113 43
Width: 2076
GlyphClass: 2
Flags: W
LayerCount: 2
Fore
SplineSet
1293 128 m 1,0,-1
 1566 128 l 1,1,-1
 1566 1015 l 2,2,3
 1566 1054 1566 1054 1569 1096 c 1,4,-1
 1346 900 l 2,5,6
 1323 880 1323 880 1300 886 c 0,7,8
 1278 893 1278 893 1268 906 c 2,9,-1
 1215 979 l 1,10,-1
 1598 1318 l 1,11,-1
 1734 1318 l 1,12,-1
 1734 128 l 1,13,-1
 1984 128 l 1,14,-1
 1984 0 l 1,15,-1
 1293 0 l 1,16,-1
 1293 128 l 1,0,-1
814 475 m 1,17,-1
 1004 475 l 1,18,-1
 1004 380 l 2,19,20
 1004 365 1004 365 994.5 354.5 c 0,21,22
 985 344 985 344 967 344 c 2,23,-1
 814 344 l 1,24,-1
 814 0 l 1,25,-1
 667 0 l 1,26,-1
 667 344 l 1,27,-1
 102 344 l 2,28,29
 82 344 82 344 69 354.5 c 0,30,31
 56 365 56 365 52 382 c 2,32,-1
 35 466 l 1,33,-1
 657 1315 l 1,34,-1
 814 1315 l 1,35,-1
 814 475 l 1,17,-1
667 1011 m 2,36,37
 667 1059 667 1059 673 1116 c 1,38,-1
 214 475 l 1,39,-1
 667 475 l 1,40,-1
 667 1011 l 2,36,37
EndSplineSet
Refer: 97 -1 N 1 0 0 1 35 0 0
Validated: 1
EndChar

StartChar: r
Encoding: 114 114 44
Width: 2076
GlyphClass: 2
Flags: W
LayerCount: 2
Fore
SplineSet
1577 1329 m 256,0,1
 1660 1329 1660 1329 1731 1304 c 0,2,3
 1802 1279 1802 1279 1854 1232 c 0,4,5
 1906 1185 1906 1185 1935.5 1117 c 0,6,7
 1965 1049 1965 1049 1965 962 c 0,8,9
 1965 889 1965 889 1943.5 826.5 c 0,10,11
 1922 764 1922 764 1885.5 707 c 0,12,13
 1849 650 1849 650 1801 596 c 0,14,15
 1767 555 1767 555 1700 486 c 2,16,-1
 1363 135 l 1,17,18
 1401 146 1401 146 1439.5 152 c 0,19,20
 1478 158 1478 158 1513 158 c 2,21,-1
 1930 158 l 2,22,23
 1957 158 1957 158 1973 142.5 c 0,24,25
 1989 127 1989 127 1989 101 c 2,26,-1
 1989 0 l 1,27,-1
 1130 0 l 1,28,-1
 1130 57 l 2,29,30
 1130 74 1130 74 1137 94 c 0,31,32
 1143 110 1143 110 1161 129 c 2,33,-1
 1568 549 l 2,34,35
 1628 611 1628 611 1662 651 c 0,36,37
 1703 700 1703 700 1732 749.5 c 0,38,39
 1761 799 1761 799 1777 850 c 0,40,41
 1793 901 1793 901 1793 958 c 256,42,43
 1793 1015 1793 1015 1775.5 1058 c 0,44,45
 1758 1101 1758 1101 1728 1129.5 c 0,46,47
 1698 1158 1698 1158 1657 1172 c 0,48,49
 1616 1186 1616 1186 1568 1186 c 0,50,51
 1521 1186 1521 1186 1481 1171.5 c 0,52,53
 1441 1157 1441 1157 1410 1131.5 c 0,54,55
 1379 1106 1379 1106 1357 1070.5 c 0,56,57
 1335 1035 1335 1035 1325 993 c 0,58,59
 1317 959 1317 959 1298 948 c 0,60,61
 1276 938 1276 938 1243 943 c 2,62,-1
 1156 957 l 1,63,64
 1168 1048 1168 1048 1204.5 1117.5 c 0,65,66
 1241 1187 1241 1187 1296 1234 c 0,67,68
 1351 1281 1351 1281 1422.5 1305 c 0,69,70
 1494 1329 1494 1329 1577 1329 c 256,0,1
814 475 m 1,71,-1
 1004 475 l 1,72,-1
 1004 380 l 2,73,74
 1004 365 1004 365 994.5 354.5 c 0,75,76
 985 344 985 344 967 344 c 2,77,-1
 814 344 l 1,78,-1
 814 0 l 1,79,-1
 667 0 l 1,80,-1
 667 344 l 1,81,-1
 102 344 l 2,82,83
 82 344 82 344 69 354.5 c 0,84,85
 56 365 56 365 52 382 c 2,86,-1
 35 466 l 1,87,-1
 657 1315 l 1,88,-1
 814 1315 l 1,89,-1
 814 475 l 1,71,-1
667 1011 m 2,90,91
 667 1059 667 1059 673 1116 c 1,92,-1
 214 475 l 1,93,-1
 667 475 l 1,94,-1
 667 1011 l 2,90,91
EndSplineSet
Refer: 97 -1 N 1 0 0 1 1376 0 0
Refer: 97 -1 N 1 0 0 1 35 0 0
Validated: 1
EndChar

StartChar: s
Encoding: 115 115 45
Width: 2076
GlyphClass: 2
Flags: W
LayerCount: 2
Fore
SplineSet
1593 1329 m 260,0,1
 1676 1329 1676 1329 1745 1305 c 4,2,3
 1814 1281 1814 1281 1864 1237 c 4,4,5
 1914 1193 1914 1193 1941.5 1131 c 4,6,7
 1969 1069 1969 1069 1969 993 c 4,8,9
 1969 930 1969 930 1953.5 881 c 4,10,11
 1938 832 1938 832 1909 795 c 4,12,13
 1880 758 1880 758 1839 732.5 c 4,14,15
 1798 707 1798 707 1747 691 c 5,16,17
 1872 657 1872 657 1935 577.5 c 4,18,19
 1998 498 1998 498 1998 378 c 4,20,21
 1998 287 1998 287 1964 214.5 c 4,22,23
 1930 142 1930 142 1871.5 91 c 4,24,25
 1813 40 1813 40 1735 13 c 4,26,27
 1657 -14 1657 -14 1569 -14 c 4,28,29
 1467 -14 1467 -14 1395 11.5 c 4,30,31
 1323 37 1323 37 1272 83 c 4,32,33
 1221 129 1221 129 1188 191 c 4,34,35
 1155 253 1155 253 1133 327 c 5,36,-1
 1205 358 l 6,37,38
 1234 370 1234 370 1260.5 365 c 4,39,40
 1287 360 1287 360 1299 335 c 4,41,42
 1311 309 1311 309 1328.5 273.5 c 4,43,44
 1346 238 1346 238 1376 205.5 c 4,45,46
 1406 173 1406 173 1452 150.5 c 4,47,48
 1498 128 1498 128 1567 128 c 4,49,50
 1633 128 1633 128 1682 150.5 c 4,51,52
 1731 173 1731 173 1764 208 c 4,53,54
 1797 243 1797 243 1813.5 287 c 4,55,56
 1830 331 1830 331 1830 373 c 4,57,58
 1830 425 1830 425 1817 469.5 c 4,59,60
 1804 514 1804 514 1768 545.5 c 4,61,62
 1732 577 1732 577 1668.5 595 c 4,63,64
 1605 613 1605 613 1505 613 c 5,65,-1
 1505 734 l 5,66,67
 1587 735 1587 735 1644 752.5 c 4,68,69
 1701 770 1701 770 1737 800 c 4,70,71
 1773 830 1773 830 1789 872 c 4,72,73
 1805 914 1805 914 1805 964 c 4,74,75
 1805 1020 1805 1020 1788.5 1061.5 c 4,76,77
 1772 1103 1772 1103 1742.5 1131 c 4,78,79
 1713 1159 1713 1159 1672.5 1172.5 c 4,80,81
 1632 1186 1632 1186 1584 1186 c 260,82,83
 1536 1186 1536 1186 1496.5 1171.5 c 4,84,85
 1457 1157 1457 1157 1426 1131.5 c 4,86,87
 1395 1106 1395 1106 1373.5 1070.5 c 4,88,89
 1352 1035 1352 1035 1341 993 c 4,90,91
 1333 959 1333 959 1313.5 948.5 c 4,92,93
 1294 938 1294 938 1259 943 c 6,94,-1
 1171 957 l 5,95,96
 1184 1048 1184 1048 1220 1117.5 c 4,97,98
 1256 1187 1256 1187 1311.5 1234 c 4,99,100
 1367 1281 1367 1281 1438.5 1305 c 4,101,102
 1510 1329 1510 1329 1593 1329 c 260,0,1
814 475 m 1,103,-1
 1004 475 l 1,104,-1
 1004 380 l 2,105,106
 1004 365 1004 365 994.5 354.5 c 0,107,108
 985 344 985 344 967 344 c 2,109,-1
 814 344 l 1,110,-1
 814 0 l 1,111,-1
 667 0 l 1,112,-1
 667 344 l 1,113,-1
 102 344 l 2,114,115
 82 344 82 344 69 354.5 c 0,116,117
 56 365 56 365 52 382 c 2,118,-1
 35 466 l 1,119,-1
 657 1315 l 1,120,-1
 814 1315 l 1,121,-1
 814 475 l 1,103,-1
667 1011 m 2,122,123
 667 1059 667 1059 673 1116 c 1,124,-1
 214 475 l 1,125,-1
 667 475 l 1,126,-1
 667 1011 l 2,122,123
EndSplineSet
Refer: 97 -1 N 1 0 0 1 35 0 0
Validated: 1
EndChar

StartChar: t
Encoding: 116 116 46
Width: 2076
GlyphClass: 2
Flags: W
LayerCount: 2
Fore
SplineSet
1852 475 m 5,0,-1
 2042 475 l 5,1,-1
 2042 380 l 6,2,3
 2042 365 2042 365 2032.5 354.5 c 4,4,5
 2023 344 2023 344 2005 344 c 6,6,-1
 1852 344 l 5,7,-1
 1852 0 l 5,8,-1
 1705 0 l 5,9,-1
 1705 344 l 5,10,-1
 1140 344 l 6,11,12
 1120 344 1120 344 1107 354.5 c 4,13,14
 1094 365 1094 365 1090 382 c 6,15,-1
 1073 466 l 5,16,-1
 1695 1315 l 5,17,-1
 1852 1315 l 5,18,-1
 1852 475 l 5,0,-1
1705 1011 m 6,19,20
 1705 1059 1705 1059 1711 1116 c 5,21,-1
 1252 475 l 5,22,-1
 1705 475 l 5,23,-1
 1705 1011 l 6,19,20
814 475 m 1,24,-1
 1004 475 l 1,25,-1
 1004 380 l 2,26,27
 1004 365 1004 365 994.5 354.5 c 0,28,29
 985 344 985 344 967 344 c 2,30,-1
 814 344 l 1,31,-1
 814 0 l 1,32,-1
 667 0 l 1,33,-1
 667 344 l 1,34,-1
 102 344 l 2,35,36
 82 344 82 344 69 354.5 c 0,37,38
 56 365 56 365 52 382 c 2,39,-1
 35 466 l 1,40,-1
 657 1315 l 1,41,-1
 814 1315 l 1,42,-1
 814 475 l 1,24,-1
667 1011 m 2,43,44
 667 1059 667 1059 673 1116 c 1,45,-1
 214 475 l 1,46,-1
 667 475 l 1,47,-1
 667 1011 l 2,43,44
EndSplineSet
Refer: 97 -1 N 1 0 0 1 35 0 0
Validated: 1
EndChar

StartChar: u
Encoding: 117 117 47
Width: 2076
GlyphClass: 2
Flags: W
LayerCount: 2
Fore
SplineSet
1915 1241 m 6,0,1
 1915 1206 1915 1206 1892.5 1183 c 4,2,3
 1870 1160 1870 1160 1817 1160 c 6,4,-1
 1420 1160 l 5,5,-1
 1363 820 l 5,6,7
 1413 831 1413 831 1457.5 836 c 4,8,9
 1502 841 1502 841 1544 841 c 4,10,11
 1644 841 1644 841 1721 810.5 c 4,12,13
 1798 780 1798 780 1850 727 c 4,14,15
 1902 674 1902 674 1928.5 601.5 c 4,16,17
 1955 529 1955 529 1955 444 c 4,18,19
 1955 339 1955 339 1919.5 254.5 c 4,20,21
 1884 170 1884 170 1821.5 110 c 4,22,23
 1759 50 1759 50 1674 18 c 4,24,25
 1589 -14 1589 -14 1491 -14 c 4,26,27
 1434 -14 1434 -14 1382 -2.5 c 4,28,29
 1330 9 1330 9 1284 28 c 4,30,31
 1238 47 1238 47 1199.5 72 c 4,32,33
 1161 97 1161 97 1131 125 c 5,34,-1
 1182 196 l 6,35,36
 1200 220 1200 220 1227 220 c 4,37,38
 1245 220 1245 220 1267.5 206 c 4,39,40
 1290 192 1290 192 1322 174.5 c 4,41,42
 1354 157 1354 157 1397 143 c 4,43,44
 1440 129 1440 129 1500 129 c 4,45,46
 1566 129 1566 129 1619 151 c 4,47,48
 1672 173 1672 173 1709 213 c 4,49,50
 1746 253 1746 253 1766 309.5 c 4,51,52
 1786 366 1786 366 1786 436 c 4,53,54
 1786 497 1786 497 1768.5 546 c 4,55,56
 1751 595 1751 595 1716.5 630 c 4,57,58
 1682 665 1682 665 1630 684 c 4,59,60
 1578 703 1578 703 1509 703 c 4,61,62
 1412 703 1412 703 1303 667 c 5,63,-1
 1199 699 l 5,64,-1
 1303 1314 l 5,65,-1
 1915 1314 l 5,66,-1
 1915 1241 l 6,0,1
814 475 m 1,67,-1
 1004 475 l 1,68,-1
 1004 380 l 2,69,70
 1004 365 1004 365 994.5 354.5 c 0,71,72
 985 344 985 344 967 344 c 2,73,-1
 814 344 l 1,74,-1
 814 0 l 1,75,-1
 667 0 l 1,76,-1
 667 344 l 1,77,-1
 102 344 l 2,78,79
 82 344 82 344 69 354.5 c 0,80,81
 56 365 56 365 52 382 c 2,82,-1
 35 466 l 1,83,-1
 657 1315 l 1,84,-1
 814 1315 l 1,85,-1
 814 475 l 1,67,-1
667 1011 m 2,86,87
 667 1059 667 1059 673 1116 c 1,88,-1
 214 475 l 1,89,-1
 667 475 l 1,90,-1
 667 1011 l 2,86,87
EndSplineSet
Refer: 97 -1 S 1 0 0 1 1131 0 0
Refer: 97 -1 N 1 0 0 1 35 0 0
Validated: 1
EndChar

StartChar: v
Encoding: 118 118 48
Width: 2076
GlyphClass: 2
Flags: W
LayerCount: 2
Fore
SplineSet
1293 128 m 1,0,-1
 1566 128 l 1,1,-1
 1566 1015 l 2,2,3
 1566 1054 1566 1054 1569 1096 c 1,4,-1
 1346 900 l 2,5,6
 1323 880 1323 880 1300 886 c 0,7,8
 1278 893 1278 893 1268 906 c 2,9,-1
 1215 979 l 1,10,-1
 1598 1318 l 1,11,-1
 1734 1318 l 1,12,-1
 1734 128 l 1,13,-1
 1984 128 l 1,14,-1
 1984 0 l 1,15,-1
 1293 0 l 1,16,-1
 1293 128 l 1,0,-1
877 1241 m 2,17,18
 877 1206 877 1206 854.5 1183 c 0,19,20
 832 1160 832 1160 779 1160 c 2,21,-1
 382 1160 l 1,22,-1
 325 820 l 1,23,24
 375 831 375 831 419.5 836 c 0,25,26
 464 841 464 841 506 841 c 0,27,28
 606 841 606 841 683 810.5 c 0,29,30
 760 780 760 780 812 727 c 0,31,32
 864 674 864 674 890.5 601.5 c 0,33,34
 917 529 917 529 917 444 c 0,35,36
 917 339 917 339 881.5 254.5 c 0,37,38
 846 170 846 170 783.5 110 c 0,39,40
 721 50 721 50 636 18 c 0,41,42
 551 -14 551 -14 453 -14 c 0,43,44
 396 -14 396 -14 344 -2.5 c 0,45,46
 292 9 292 9 246 28 c 0,47,48
 200 47 200 47 161.5 72 c 0,49,50
 123 97 123 97 93 125 c 1,51,-1
 144 196 l 2,52,53
 162 220 162 220 189 220 c 0,54,55
 207 220 207 220 229.5 206 c 0,56,57
 252 192 252 192 284 174.5 c 0,58,59
 316 157 316 157 359 143 c 0,60,61
 402 129 402 129 462 129 c 0,62,63
 528 129 528 129 581 151 c 0,64,65
 634 173 634 173 671 213 c 0,66,67
 708 253 708 253 728 309.5 c 0,68,69
 748 366 748 366 748 436 c 0,70,71
 748 497 748 497 730.5 546 c 0,72,73
 713 595 713 595 678.5 630 c 0,74,75
 644 665 644 665 592 684 c 0,76,77
 540 703 540 703 471 703 c 0,78,79
 374 703 374 703 265 667 c 1,80,-1
 161 699 l 1,81,-1
 265 1314 l 1,82,-1
 877 1314 l 1,83,-1
 877 1241 l 2,17,18
EndSplineSet
Refer: 97 -1 N 1 0 0 1 93 0 0
Validated: 1
EndChar

StartChar: w
Encoding: 119 119 49
Width: 2076
GlyphClass: 2
Flags: W
LayerCount: 2
Fore
SplineSet
1577 1329 m 256,0,1
 1660 1329 1660 1329 1731 1304 c 0,2,3
 1802 1279 1802 1279 1854 1232 c 0,4,5
 1906 1185 1906 1185 1935.5 1117 c 0,6,7
 1965 1049 1965 1049 1965 962 c 0,8,9
 1965 889 1965 889 1944 826 c 0,10,11
 1921 760 1921 760 1886 707 c 0,12,13
 1854 659 1854 659 1801 596 c 0,14,15
 1772 561 1772 561 1700 486 c 2,16,-1
 1363 135 l 1,17,18
 1401 146 1401 146 1439.5 152 c 0,19,20
 1478 158 1478 158 1513 158 c 2,21,-1
 1930 158 l 2,22,23
 1957 158 1957 158 1973 142.5 c 0,24,25
 1989 127 1989 127 1989 101 c 2,26,-1
 1989 0 l 1,27,-1
 1130 0 l 1,28,-1
 1130 57 l 2,29,30
 1130 74 1130 74 1137 94 c 0,31,32
 1143 111 1143 111 1161 129 c 2,33,-1
 1568 549 l 2,34,35
 1625 608 1625 608 1662 651 c 0,36,37
 1703 700 1703 700 1732 749.5 c 0,38,39
 1761 799 1761 799 1777 850 c 0,40,41
 1793 901 1793 901 1793 958 c 256,42,43
 1793 1015 1793 1015 1775.5 1058 c 0,44,45
 1758 1101 1758 1101 1728 1129.5 c 0,46,47
 1698 1158 1698 1158 1657 1172 c 0,48,49
 1616 1186 1616 1186 1568 1186 c 0,50,51
 1521 1186 1521 1186 1481 1171.5 c 0,52,53
 1441 1157 1441 1157 1410 1131.5 c 0,54,55
 1379 1106 1379 1106 1357 1070.5 c 0,56,57
 1335 1035 1335 1035 1325 993 c 0,58,59
 1317 959 1317 959 1298 948 c 0,60,61
 1276 938 1276 938 1243 943 c 2,62,-1
 1156 957 l 1,63,64
 1168 1048 1168 1048 1204.5 1117.5 c 0,65,66
 1241 1187 1241 1187 1296 1234 c 0,67,68
 1351 1281 1351 1281 1422.5 1305 c 0,69,70
 1494 1329 1494 1329 1577 1329 c 256,0,1
877 1241 m 2,71,72
 877 1206 877 1206 854.5 1183 c 0,73,74
 832 1160 832 1160 779 1160 c 2,75,-1
 382 1160 l 1,76,-1
 325 820 l 1,77,78
 375 831 375 831 419.5 836 c 0,79,80
 464 841 464 841 506 841 c 0,81,82
 606 841 606 841 683 810.5 c 0,83,84
 760 780 760 780 812 727 c 0,85,86
 864 674 864 674 890.5 601.5 c 0,87,88
 917 529 917 529 917 444 c 0,89,90
 917 339 917 339 881.5 254.5 c 0,91,92
 846 170 846 170 783.5 110 c 0,93,94
 721 50 721 50 636 18 c 0,95,96
 551 -14 551 -14 453 -14 c 0,97,98
 396 -14 396 -14 344 -2.5 c 0,99,100
 292 9 292 9 246 28 c 0,101,102
 200 47 200 47 161.5 72 c 0,103,104
 123 97 123 97 93 125 c 1,105,-1
 144 196 l 2,106,107
 162 220 162 220 189 220 c 0,108,109
 207 220 207 220 229.5 206 c 0,110,111
 252 192 252 192 284 174.5 c 0,112,113
 316 157 316 157 359 143 c 0,114,115
 402 129 402 129 462 129 c 0,116,117
 528 129 528 129 581 151 c 0,118,119
 634 173 634 173 671 213 c 0,120,121
 708 253 708 253 728 309.5 c 0,122,123
 748 366 748 366 748 436 c 0,124,125
 748 497 748 497 730.5 546 c 0,126,127
 713 595 713 595 678.5 630 c 0,128,129
 644 665 644 665 592 684 c 0,130,131
 540 703 540 703 471 703 c 0,132,133
 374 703 374 703 265 667 c 1,134,-1
 161 699 l 1,135,-1
 265 1314 l 1,136,-1
 877 1314 l 1,137,-1
 877 1241 l 2,71,72
EndSplineSet
Refer: 97 -1 N 1 0 0 1 1238 0 0
Refer: 97 -1 N 1 0 0 1 93 0 0
Validated: 1
EndChar

StartChar: x
Encoding: 120 120 50
Width: 2076
GlyphClass: 2
Flags: W
LayerCount: 2
Fore
SplineSet
1593 1329 m 260,0,1
 1676 1329 1676 1329 1745 1305 c 4,2,3
 1814 1281 1814 1281 1864 1237 c 4,4,5
 1914 1193 1914 1193 1941.5 1131 c 4,6,7
 1969 1069 1969 1069 1969 993 c 4,8,9
 1969 930 1969 930 1953.5 881 c 4,10,11
 1938 832 1938 832 1909 795 c 4,12,13
 1880 758 1880 758 1839 732.5 c 4,14,15
 1798 707 1798 707 1747 691 c 5,16,17
 1872 657 1872 657 1935 577.5 c 4,18,19
 1998 498 1998 498 1998 378 c 4,20,21
 1998 287 1998 287 1964 214.5 c 4,22,23
 1930 142 1930 142 1871.5 91 c 4,24,25
 1813 40 1813 40 1735 13 c 4,26,27
 1657 -14 1657 -14 1569 -14 c 4,28,29
 1467 -14 1467 -14 1395 11.5 c 4,30,31
 1323 37 1323 37 1272 83 c 4,32,33
 1221 129 1221 129 1188 191 c 4,34,35
 1155 253 1155 253 1133 327 c 5,36,-1
 1205 358 l 6,37,38
 1234 370 1234 370 1260.5 365 c 4,39,40
 1287 360 1287 360 1299 335 c 4,41,42
 1311 309 1311 309 1328.5 273.5 c 4,43,44
 1346 238 1346 238 1376 205.5 c 4,45,46
 1406 173 1406 173 1452 150.5 c 4,47,48
 1498 128 1498 128 1567 128 c 4,49,50
 1633 128 1633 128 1682 150.5 c 4,51,52
 1731 173 1731 173 1764 208 c 4,53,54
 1797 243 1797 243 1813.5 287 c 4,55,56
 1830 331 1830 331 1830 373 c 4,57,58
 1830 425 1830 425 1817 469.5 c 4,59,60
 1804 514 1804 514 1768 545.5 c 4,61,62
 1732 577 1732 577 1668.5 595 c 4,63,64
 1605 613 1605 613 1505 613 c 5,65,-1
 1505 734 l 5,66,67
 1587 735 1587 735 1644 752.5 c 4,68,69
 1701 770 1701 770 1737 800 c 4,70,71
 1773 830 1773 830 1789 872 c 4,72,73
 1805 914 1805 914 1805 964 c 4,74,75
 1805 1020 1805 1020 1788.5 1061.5 c 4,76,77
 1772 1103 1772 1103 1742.5 1131 c 4,78,79
 1713 1159 1713 1159 1672.5 1172.5 c 4,80,81
 1632 1186 1632 1186 1584 1186 c 260,82,83
 1536 1186 1536 1186 1496.5 1171.5 c 4,84,85
 1457 1157 1457 1157 1426 1131.5 c 4,86,87
 1395 1106 1395 1106 1373.5 1070.5 c 4,88,89
 1352 1035 1352 1035 1341 993 c 4,90,91
 1333 959 1333 959 1313.5 948.5 c 4,92,93
 1294 938 1294 938 1259 943 c 6,94,-1
 1171 957 l 5,95,96
 1184 1048 1184 1048 1220 1117.5 c 4,97,98
 1256 1187 1256 1187 1311.5 1234 c 4,99,100
 1367 1281 1367 1281 1438.5 1305 c 4,101,102
 1510 1329 1510 1329 1593 1329 c 260,0,1
877 1241 m 2,103,104
 877 1206 877 1206 854.5 1183 c 0,105,106
 832 1160 832 1160 779 1160 c 2,107,-1
 382 1160 l 1,108,-1
 325 820 l 1,109,110
 375 831 375 831 419.5 836 c 0,111,112
 464 841 464 841 506 841 c 0,113,114
 606 841 606 841 683 810.5 c 0,115,116
 760 780 760 780 812 727 c 0,117,118
 864 674 864 674 890.5 601.5 c 0,119,120
 917 529 917 529 917 444 c 0,121,122
 917 339 917 339 881.5 254.5 c 0,123,124
 846 170 846 170 783.5 110 c 0,125,126
 721 50 721 50 636 18 c 0,127,128
 551 -14 551 -14 453 -14 c 0,129,130
 396 -14 396 -14 344 -2.5 c 0,131,132
 292 9 292 9 246 28 c 0,133,134
 200 47 200 47 161.5 72 c 0,135,136
 123 97 123 97 93 125 c 1,137,-1
 144 196 l 2,138,139
 162 220 162 220 189 220 c 0,140,141
 207 220 207 220 229.5 206 c 0,142,143
 252 192 252 192 284 174.5 c 0,144,145
 316 157 316 157 359 143 c 0,146,147
 402 129 402 129 462 129 c 0,148,149
 528 129 528 129 581 151 c 0,150,151
 634 173 634 173 671 213 c 0,152,153
 708 253 708 253 728 309.5 c 0,154,155
 748 366 748 366 748 436 c 0,156,157
 748 497 748 497 730.5 546 c 0,158,159
 713 595 713 595 678.5 630 c 0,160,161
 644 665 644 665 592 684 c 0,162,163
 540 703 540 703 471 703 c 0,164,165
 374 703 374 703 265 667 c 1,166,-1
 161 699 l 1,167,-1
 265 1314 l 1,168,-1
 877 1314 l 1,169,-1
 877 1241 l 2,103,104
EndSplineSet
Refer: 97 -1 N 1 0 0 1 93 0 0
Validated: 1
EndChar

StartChar: y
Encoding: 121 121 51
Width: 2076
GlyphClass: 2
Flags: W
LayerCount: 2
Fore
SplineSet
1852 475 m 5,0,-1
 2042 475 l 5,1,-1
 2042 380 l 6,2,3
 2042 365 2042 365 2032.5 354.5 c 4,4,5
 2023 344 2023 344 2005 344 c 6,6,-1
 1852 344 l 5,7,-1
 1852 0 l 5,8,-1
 1705 0 l 5,9,-1
 1705 344 l 5,10,-1
 1140 344 l 6,11,12
 1120 344 1120 344 1107 354.5 c 4,13,14
 1094 365 1094 365 1090 382 c 6,15,-1
 1073 466 l 5,16,-1
 1695 1315 l 5,17,-1
 1852 1315 l 5,18,-1
 1852 475 l 5,0,-1
1705 1011 m 6,19,20
 1705 1059 1705 1059 1711 1116 c 5,21,-1
 1252 475 l 5,22,-1
 1705 475 l 5,23,-1
 1705 1011 l 6,19,20
877 1241 m 2,24,25
 877 1206 877 1206 854.5 1183 c 0,26,27
 832 1160 832 1160 779 1160 c 2,28,-1
 382 1160 l 1,29,-1
 325 820 l 1,30,31
 375 831 375 831 419.5 836 c 0,32,33
 464 841 464 841 506 841 c 0,34,35
 606 841 606 841 683 810.5 c 0,36,37
 760 780 760 780 812 727 c 0,38,39
 864 674 864 674 890.5 601.5 c 0,40,41
 917 529 917 529 917 444 c 0,42,43
 917 339 917 339 881.5 254.5 c 0,44,45
 846 170 846 170 783.5 110 c 0,46,47
 721 50 721 50 636 18 c 0,48,49
 551 -14 551 -14 453 -14 c 0,50,51
 396 -14 396 -14 344 -2.5 c 0,52,53
 292 9 292 9 246 28 c 0,54,55
 200 47 200 47 161.5 72 c 0,56,57
 123 97 123 97 93 125 c 1,58,-1
 144 196 l 2,59,60
 162 220 162 220 189 220 c 0,61,62
 207 220 207 220 229.5 206 c 0,63,64
 252 192 252 192 284 174.5 c 0,65,66
 316 157 316 157 359 143 c 0,67,68
 402 129 402 129 462 129 c 0,69,70
 528 129 528 129 581 151 c 0,71,72
 634 173 634 173 671 213 c 0,73,74
 708 253 708 253 728 309.5 c 0,75,76
 748 366 748 366 748 436 c 0,77,78
 748 497 748 497 730.5 546 c 0,79,80
 713 595 713 595 678.5 630 c 0,81,82
 644 665 644 665 592 684 c 0,83,84
 540 703 540 703 471 703 c 0,85,86
 374 703 374 703 265 667 c 1,87,-1
 161 699 l 1,88,-1
 265 1314 l 1,89,-1
 877 1314 l 1,90,-1
 877 1241 l 2,24,25
EndSplineSet
Refer: 97 -1 N 1 0 0 1 93 0 0
Validated: 1
EndChar

StartChar: z
Encoding: 122 122 52
Width: 2079
GlyphClass: 2
Flags: W
LayerCount: 2
Fore
SplineSet
1915 1241 m 6,0,1
 1915 1206 1915 1206 1892.5 1183 c 4,2,3
 1870 1160 1870 1160 1817 1160 c 6,4,-1
 1420 1160 l 5,5,-1
 1363 820 l 5,6,7
 1413 831 1413 831 1457.5 836 c 4,8,9
 1502 841 1502 841 1544 841 c 4,10,11
 1644 841 1644 841 1721 810.5 c 4,12,13
 1798 780 1798 780 1850 727 c 4,14,15
 1902 674 1902 674 1928.5 601.5 c 4,16,17
 1955 529 1955 529 1955 444 c 4,18,19
 1955 339 1955 339 1919.5 254.5 c 4,20,21
 1884 170 1884 170 1821.5 110 c 4,22,23
 1759 50 1759 50 1674 18 c 4,24,25
 1589 -14 1589 -14 1491 -14 c 4,26,27
 1434 -14 1434 -14 1382 -2.5 c 4,28,29
 1330 9 1330 9 1284 28 c 4,30,31
 1238 47 1238 47 1199.5 72 c 4,32,33
 1161 97 1161 97 1131 125 c 5,34,-1
 1182 196 l 6,35,36
 1200 220 1200 220 1227 220 c 4,37,38
 1245 220 1245 220 1267.5 206 c 4,39,40
 1290 192 1290 192 1322 174.5 c 4,41,42
 1354 157 1354 157 1397 143 c 4,43,44
 1440 129 1440 129 1500 129 c 4,45,46
 1566 129 1566 129 1619 151 c 4,47,48
 1672 173 1672 173 1709 213 c 4,49,50
 1746 253 1746 253 1766 309.5 c 4,51,52
 1786 366 1786 366 1786 436 c 4,53,54
 1786 497 1786 497 1768.5 546 c 4,55,56
 1751 595 1751 595 1716.5 630 c 4,57,58
 1682 665 1682 665 1630 684 c 4,59,60
 1578 703 1578 703 1509 703 c 4,61,62
 1412 703 1412 703 1303 667 c 5,63,-1
 1199 699 l 5,64,-1
 1303 1314 l 5,65,-1
 1915 1314 l 5,66,-1
 1915 1241 l 6,0,1
877 1241 m 2,67,68
 877 1206 877 1206 854.5 1183 c 0,69,70
 832 1160 832 1160 779 1160 c 2,71,-1
 382 1160 l 1,72,-1
 325 820 l 1,73,74
 375 831 375 831 419.5 836 c 0,75,76
 464 841 464 841 506 841 c 0,77,78
 606 841 606 841 683 810.5 c 0,79,80
 760 780 760 780 812 727 c 0,81,82
 864 674 864 674 890.5 601.5 c 0,83,84
 917 529 917 529 917 444 c 0,85,86
 917 339 917 339 881.5 254.5 c 0,87,88
 846 170 846 170 783.5 110 c 0,89,90
 721 50 721 50 636 18 c 0,91,92
 551 -14 551 -14 453 -14 c 0,93,94
 396 -14 396 -14 344 -2.5 c 0,95,96
 292 9 292 9 246 28 c 0,97,98
 200 47 200 47 161.5 72 c 0,99,100
 123 97 123 97 93 125 c 1,101,-1
 144 196 l 2,102,103
 162 220 162 220 189 220 c 0,104,105
 207 220 207 220 229.5 206 c 0,106,107
 252 192 252 192 284 174.5 c 0,108,109
 316 157 316 157 359 143 c 0,110,111
 402 129 402 129 462 129 c 0,112,113
 528 129 528 129 581 151 c 0,114,115
 634 173 634 173 671 213 c 0,116,117
 708 253 708 253 728 309.5 c 0,118,119
 748 366 748 366 748 436 c 0,120,121
 748 497 748 497 730.5 546 c 0,122,123
 713 595 713 595 678.5 630 c 0,124,125
 644 665 644 665 592 684 c 0,126,127
 540 703 540 703 471 703 c 0,128,129
 374 703 374 703 265 667 c 1,130,-1
 161 699 l 1,131,-1
 265 1314 l 1,132,-1
 877 1314 l 1,133,-1
 877 1241 l 2,67,68
EndSplineSet
Refer: 97 -1 S 1 0 0 1 1131 0 0
Refer: 97 -1 N 1 0 0 1 93 0 0
Validated: 1
EndChar

StartChar: grave
Encoding: 96 96 53
Width: 596
GlyphClass: 2
Flags: W
LayerCount: 2
Fore
SplineSet
302 1399 m 2,0,1
 334 1399 334 1399 350 1388.5 c 128,-1,2
 366 1378 366 1378 379 1356 c 2,3,-1
 522 1123 l 1,4,-1
 422 1123 l 2,5,6
 402 1123 402 1123 389 1129 c 128,-1,7
 376 1135 376 1135 362 1150 c 2,8,-1
 136 1399 l 1,9,-1
 302 1399 l 2,0,1
EndSplineSet
Validated: 1
EndChar

StartChar: exclam
Encoding: 33 33 54
Width: 667
GlyphClass: 2
Flags: W
LayerCount: 2
Fore
SplineSet
420 1383 m 1,0,-1
 420 831 l 2,1,2
 420 787 420 787 418.5 746 c 128,-1,3
 417 705 417 705 414 663 c 128,-1,4
 411 621 411 621 406.5 577 c 128,-1,5
 402 533 402 533 396 483 c 1,6,-1
 277 483 l 1,7,8
 272 533 272 533 267.5 577 c 128,-1,9
 263 621 263 621 259.5 663 c 128,-1,10
 256 705 256 705 254 746 c 128,-1,11
 252 787 252 787 252 831 c 2,12,-1
 252 1383 l 1,13,-1
 420 1383 l 1,0,-1
211 107 m 0,14,15
 211 132 211 132 220.5 154.5 c 128,-1,16
 230 177 230 177 246.5 194 c 128,-1,17
 263 211 263 211 285.5 220.5 c 128,-1,18
 308 230 308 230 334 230 c 0,19,20
 359 230 359 230 381.5 220.5 c 128,-1,21
 404 211 404 211 420.5 194 c 128,-1,22
 437 177 437 177 446.5 154.5 c 128,-1,23
 456 132 456 132 456 107 c 0,24,25
 456 81 456 81 446.5 59 c 128,-1,26
 437 37 437 37 420.5 20.5 c 128,-1,27
 404 4 404 4 381.5 -5 c 128,-1,28
 359 -14 359 -14 334 -14 c 0,29,30
 308 -14 308 -14 285.5 -5 c 128,-1,31
 263 4 263 4 246.5 20.5 c 128,-1,32
 230 37 230 37 220.5 59 c 128,-1,33
 211 81 211 81 211 107 c 0,14,15
EndSplineSet
Validated: 1
EndChar

StartChar: question
Encoding: 63 63 55
Width: 949
GlyphClass: 2
Flags: W
LayerCount: 2
Fore
SplineSet
123 1260 m 1,0,1
 153 1288 153 1288 189.5 1313 c 128,-1,2
 226 1338 226 1338 269 1357 c 128,-1,3
 312 1376 312 1376 362 1387.5 c 128,-1,4
 412 1399 412 1399 470 1399 c 0,5,6
 547 1399 547 1399 612.5 1377 c 128,-1,7
 678 1355 678 1355 725.5 1314 c 128,-1,8
 773 1273 773 1273 800 1215 c 128,-1,9
 827 1157 827 1157 827 1085 c 0,10,11
 827 1011 827 1011 805 958 c 128,-1,12
 783 905 783 905 750 865 c 128,-1,13
 717 825 717 825 677.5 795.5 c 128,-1,14
 638 766 638 766 603.5 740 c 128,-1,15
 569 714 569 714 544.5 688.5 c 128,-1,16
 520 663 520 663 516 631 c 2,17,-1
 498 483 l 1,18,-1
 378 483 l 1,19,-1
 365 643 l 2,20,21
 364 650 364 650 364 657 c 0,22,23
 366 695 366 695 382 719 c 0,24,25
 405 754 405 754 436 780 c 0,26,27
 469 809 469 809 508.5 836.5 c 128,-1,28
 548 864 548 864 582.5 897.5 c 128,-1,29
 617 931 617 931 640 973.5 c 128,-1,30
 663 1016 663 1016 663 1075 c 0,31,32
 663 1117 663 1117 647 1150 c 128,-1,33
 631 1183 631 1183 602.5 1206.5 c 128,-1,34
 574 1230 574 1230 536 1242.5 c 128,-1,35
 498 1255 498 1255 455 1255 c 0,36,37
 396 1255 396 1255 354.5 1241 c 128,-1,38
 313 1227 313 1227 284 1209.5 c 128,-1,39
 255 1192 255 1192 237 1178 c 128,-1,40
 219 1164 219 1164 207 1164 c 0,41,42
 183 1164 183 1164 169 1186 c 2,43,-1
 123 1260 l 1,0,1
295 107 m 0,44,45
 295 132 295 132 304.5 154.5 c 128,-1,46
 314 177 314 177 330.5 194 c 128,-1,47
 347 211 347 211 369.5 220.5 c 128,-1,48
 392 230 392 230 418 230 c 0,49,50
 443 230 443 230 465.5 220.5 c 128,-1,51
 488 211 488 211 504.5 194 c 128,-1,52
 521 177 521 177 530.5 154.5 c 128,-1,53
 540 132 540 132 540 107 c 0,54,55
 540 81 540 81 530.5 59 c 128,-1,56
 521 37 521 37 504.5 20.5 c 128,-1,57
 488 4 488 4 465.5 -5 c 128,-1,58
 443 -14 443 -14 418 -14 c 0,59,60
 392 -14 392 -14 369.5 -5 c 128,-1,61
 347 4 347 4 330.5 20.5 c 128,-1,62
 314 37 314 37 304.5 59 c 128,-1,63
 295 81 295 81 295 107 c 0,44,45
EndSplineSet
Validated: 1
EndChar

StartChar: comma
Encoding: 44 44 56
Width: 511
GlyphClass: 2
Flags: W
LayerCount: 2
Fore
SplineSet
140 120 m 0,0,1
 140 142 140 142 148.5 162 c 128,-1,2
 157 182 157 182 172 197 c 128,-1,3
 187 212 187 212 208.5 221 c 128,-1,4
 230 230 230 230 256 230 c 0,5,6
 286 230 286 230 308.5 219 c 128,-1,7
 331 208 331 208 346 189.5 c 128,-1,8
 361 171 361 171 368.5 145.5 c 128,-1,9
 376 120 376 120 376 91 c 0,10,11
 376 48 376 48 363.5 1 c 128,-1,12
 351 -46 351 -46 327.5 -92 c 128,-1,13
 304 -138 304 -138 270 -181.5 c 128,-1,14
 236 -225 236 -225 192 -262 c 1,15,-1
 162 -234 l 2,16,17
 149 -222 149 -222 149 -206 c 0,18,19
 149 -194 149 -194 163 -180 c 0,20,21
 172 -170 172 -170 187 -152 c 128,-1,22
 202 -134 202 -134 217.5 -111 c 128,-1,23
 233 -88 233 -88 246 -60 c 128,-1,24
 259 -32 259 -32 265 0 c 1,25,-1
 254 0 l 2,26,27
 203 0 203 0 171.5 34 c 128,-1,28
 140 68 140 68 140 120 c 0,0,1
EndSplineSet
Validated: 1
EndChar

StartChar: semicolon
Encoding: 59 59 57
Width: 548
GlyphClass: 2
Flags: W
LayerCount: 2
Fore
SplineSet
396 785 m 0,0,1
 396 760 396 760 386 737.5 c 0,2,3
 376 715 376 715 358.5 698.5 c 0,4,5
 341 682 341 682 318.5 672 c 0,6,7
 296 662 296 662 271 662 c 256,8,9
 246 662 246 662 224 672 c 0,10,11
 202 682 202 682 185.5 698.5 c 0,12,13
 169 715 169 715 159 737.5 c 0,14,15
 149 760 149 760 149 785 c 0,16,17
 149 811 149 811 159 833.5 c 0,18,19
 169 856 169 856 185.5 873 c 0,20,21
 202 890 202 890 224 900 c 0,22,23
 246 910 246 910 271 910 c 256,24,25
 296 910 296 910 318.5 900 c 0,26,27
 341 890 341 890 358.5 873 c 0,28,29
 376 856 376 856 386 833.5 c 0,30,31
 396 811 396 811 396 785 c 0,0,1
EndSplineSet
Refer: 97 -1 N 1 0 0 1 149 0 0
Refer: 56 44 N 1 0 0 1 15 0 0
Validated: 1
EndChar

StartChar: colon
Encoding: 58 58 58
Width: 548
GlyphClass: 2
Flags: W
LayerCount: 2
Fore
SplineSet
390 785 m 0,0,1
 390 760 390 760 380 737.5 c 0,2,3
 370 715 370 715 352.5 698.5 c 0,4,5
 335 682 335 682 312.5 672 c 0,6,7
 290 662 290 662 265 662 c 256,8,9
 240 662 240 662 218 672 c 0,10,11
 196 682 196 682 179.5 698.5 c 0,12,13
 163 715 163 715 153 737.5 c 0,14,15
 143 760 143 760 143 785 c 0,16,17
 143 811 143 811 153 833.5 c 0,18,19
 163 856 163 856 179.5 873 c 0,20,21
 196 890 196 890 218 900 c 0,22,23
 240 910 240 910 265 910 c 256,24,25
 290 910 290 910 312.5 900 c 0,26,27
 335 890 335 890 352.5 873 c 0,28,29
 370 856 370 856 380 833.5 c 0,30,31
 390 811 390 811 390 785 c 0,0,1
396 107 m 0,32,33
 396 82 396 82 386 59.5 c 0,34,35
 376 37 376 37 358.5 20.5 c 0,36,37
 341 4 341 4 318.5 -6 c 0,38,39
 296 -16 296 -16 271 -16 c 256,40,41
 246 -16 246 -16 224 -6 c 0,42,43
 202 4 202 4 185.5 20.5 c 0,44,45
 169 37 169 37 159 59.5 c 0,46,47
 149 82 149 82 149 107 c 0,48,49
 149 133 149 133 159 155.5 c 0,50,51
 169 178 169 178 185.5 195 c 0,52,53
 202 212 202 212 224 222 c 0,54,55
 246 232 246 232 271 232 c 256,56,57
 296 232 296 232 318.5 222 c 0,58,59
 341 212 341 212 358.5 195 c 0,60,61
 376 178 376 178 386 155.5 c 0,62,63
 396 133 396 133 396 107 c 0,32,33
EndSplineSet
Refer: 97 -1 N 1 0 0 1 143 0 0
Validated: 1
EndChar

StartChar: period
Encoding: 46 46 59
Width: 517
GlyphClass: 2
Flags: W
LayerCount: 2
Fore
SplineSet
381 107 m 0,0,1
 381 82 381 82 371 59.5 c 0,2,3
 361 37 361 37 343.5 20.5 c 0,4,5
 326 4 326 4 303.5 -6 c 0,6,7
 281 -16 281 -16 256 -16 c 256,8,9
 231 -16 231 -16 209 -6 c 0,10,11
 187 4 187 4 170.5 20.5 c 0,12,13
 154 37 154 37 144 59.5 c 0,14,15
 134 82 134 82 134 107 c 0,16,17
 134 133 134 133 144 155.5 c 0,18,19
 154 178 154 178 170.5 195 c 0,20,21
 187 212 187 212 209 222 c 0,22,23
 231 232 231 232 256 232 c 256,24,25
 281 232 281 232 303.5 222 c 0,26,27
 326 212 326 212 343.5 195 c 0,28,29
 361 178 361 178 371 155.5 c 0,30,31
 381 133 381 133 381 107 c 0,0,1
EndSplineSet
Refer: 97 -1 N 1 0 0 1 134 0 0
Validated: 1
EndChar

StartChar: slash
Encoding: 47 47 60
Width: 791
GlyphClass: 2
Flags: W
LayerCount: 2
Fore
SplineSet
159 -20 m 2,0,1
 145 -54 145 -54 118 -70.5 c 128,-1,2
 91 -87 91 -87 62 -87 c 2,3,-1
 -12 -87 l 1,4,-1
 634 1358 l 2,5,6
 659 1422 659 1422 726 1422 c 2,7,-1
 800 1422 l 1,8,-1
 159 -20 l 2,0,1
EndSplineSet
Validated: 1
EndChar

StartChar: bar
Encoding: 124 124 61
Width: 943
GlyphClass: 2
Flags: W
LayerCount: 2
Fore
SplineSet
403 1480 m 1,0,-1
 540 1480 l 1,1,-1
 540 -337 l 1,2,-1
 403 -337 l 1,3,-1
 403 1480 l 1,0,-1
EndSplineSet
Validated: 1
EndChar

StartChar: backslash
Encoding: 92 92 62
Width: 791
GlyphClass: 2
Flags: W
LayerCount: 2
Fore
SplineSet
-17 1422 m 1,0,-1
 58 1422 l 2,1,2
 90 1422 90 1422 114 1405.5 c 128,-1,3
 138 1389 138 1389 151 1358 c 2,4,-1
 789 -87 l 1,5,-1
 717 -87 l 2,6,7
 688 -87 688 -87 660.5 -70.5 c 128,-1,8
 633 -54 633 -54 619 -20 c 2,9,-1
 -17 1422 l 1,0,-1
EndSplineSet
Validated: 1
EndChar

StartChar: hyphen
Encoding: 45 45 63
Width: 627
GlyphClass: 2
Flags: W
LayerCount: 2
Fore
SplineSet
75 653 m 1,0,-1
 553 653 l 1,1,-1
 553 504 l 1,2,-1
 75 504 l 1,3,-1
 75 653 l 1,0,-1
EndSplineSet
Validated: 1
EndChar

StartChar: underscore
Encoding: 95 95 64
Width: 1020
GlyphClass: 2
Flags: W
LayerCount: 2
Fore
SplineSet
1020 -158 m 1,0,-1
 1020 -275 l 1,1,-1
 0 -275 l 1,2,-1
 0 -158 l 1,3,-1
 1020 -158 l 1,0,-1
EndSplineSet
Validated: 1
EndChar

StartChar: parenleft
Encoding: 40 40 65
Width: 621
GlyphClass: 2
Flags: W
LayerCount: 2
Fore
SplineSet
303 607 m 0,0,1
 303 400 303 400 355.5 205.5 c 128,-1,2
 408 11 408 11 508 -165 c 0,3,4
 524 -194 524 -194 516 -210.5 c 128,-1,5
 508 -227 508 -227 493 -236 c 2,6,-1
 415 -284 l 1,7,8
 343 -173 343 -173 292.5 -63.5 c 128,-1,9
 242 46 242 46 210.5 155.5 c 128,-1,10
 179 265 179 265 164.5 377.5 c 128,-1,11
 150 490 150 490 150 607 c 256,12,13
 150 724 150 724 164.5 836 c 128,-1,14
 179 948 179 948 210.5 1058 c 128,-1,15
 242 1168 242 1168 292.5 1277 c 128,-1,16
 343 1386 343 1386 415 1497 c 1,17,-1
 493 1450 l 2,18,19
 508 1440 508 1440 516 1423.5 c 128,-1,20
 524 1407 524 1407 508 1378 c 0,21,22
 408 1202 408 1202 355.5 1007.5 c 128,-1,23
 303 813 303 813 303 607 c 0,0,1
EndSplineSet
Validated: 1
EndChar

StartChar: parenright
Encoding: 41 41 66
Width: 621
GlyphClass: 2
Flags: W
LayerCount: 2
Fore
SplineSet
318 607 m 0,0,1
 318 813 318 813 265.5 1007.5 c 128,-1,2
 213 1202 213 1202 113 1378 c 0,3,4
 105 1393 105 1393 103.5 1404 c 128,-1,5
 102 1415 102 1415 105 1424 c 128,-1,6
 108 1433 108 1433 114 1439 c 128,-1,7
 120 1445 120 1445 128 1450 c 2,8,-1
 206 1498 l 1,9,10
 278 1386 278 1386 328.5 1277 c 128,-1,11
 379 1168 379 1168 410.5 1058 c 128,-1,12
 442 948 442 948 456.5 836 c 128,-1,13
 471 724 471 724 471 607 c 256,14,15
 471 490 471 490 456.5 377.5 c 128,-1,16
 442 265 442 265 410.5 155.5 c 128,-1,17
 379 46 379 46 328.5 -63.5 c 128,-1,18
 278 -173 278 -173 206 -284 c 1,19,-1
 128 -236 l 2,20,21
 120 -232 120 -232 114 -225.5 c 128,-1,22
 108 -219 108 -219 105 -210.5 c 128,-1,23
 102 -202 102 -202 103.5 -191 c 128,-1,24
 105 -180 105 -180 113 -165 c 0,25,26
 213 11 213 11 265.5 205.5 c 128,-1,27
 318 400 318 400 318 607 c 0,0,1
EndSplineSet
Validated: 1
EndChar

StartChar: bracketleft
Encoding: 91 91 67
Width: 628
GlyphClass: 2
Flags: W
LayerCount: 2
Fore
SplineSet
160 -279 m 1,0,-1
 160 1480 l 1,1,-1
 518 1480 l 1,2,-1
 518 1412 l 2,3,4
 518 1392 518 1392 505 1378.5 c 128,-1,5
 492 1365 492 1365 470 1365 c 2,6,-1
 307 1365 l 1,7,-1
 307 -164 l 1,8,-1
 470 -164 l 2,9,10
 492 -164 492 -164 505 -177.5 c 128,-1,11
 518 -191 518 -191 518 -211 c 2,12,-1
 518 -279 l 1,13,-1
 160 -279 l 1,0,-1
EndSplineSet
Validated: 1
EndChar

StartChar: bracketright
Encoding: 93 93 68
Width: 628
GlyphClass: 2
Flags: W
LayerCount: 2
Fore
SplineSet
110 1480 m 1,0,-1
 468 1480 l 1,1,-1
 468 -279 l 1,2,-1
 110 -279 l 1,3,-1
 110 -211 l 2,4,5
 110 -191 110 -191 123.5 -177.5 c 128,-1,6
 137 -164 137 -164 159 -164 c 2,7,-1
 321 -164 l 1,8,-1
 321 1365 l 1,9,-1
 159 1365 l 2,10,11
 137 1365 137 1365 123.5 1378.5 c 128,-1,12
 110 1392 110 1392 110 1412 c 2,13,-1
 110 1480 l 1,0,-1
EndSplineSet
Validated: 1
EndChar

StartChar: braceleft
Encoding: 123 123 69
Width: 644
GlyphClass: 2
Flags: W
LayerCount: 2
Fore
SplineSet
205 409 m 0,0,1
 205 471 205 471 171.5 509.5 c 128,-1,2
 138 548 138 548 74 548 c 1,3,-1
 74 653 l 1,4,5
 138 653 138 653 171.5 691.5 c 128,-1,6
 205 730 205 730 205 791 c 0,7,8
 205 840 205 840 197.5 887.5 c 128,-1,9
 190 935 190 935 180.5 982 c 128,-1,10
 171 1029 171 1029 163.5 1077 c 128,-1,11
 156 1125 156 1125 156 1175 c 0,12,13
 156 1242 156 1242 176 1298 c 128,-1,14
 196 1354 196 1354 236.5 1394.5 c 128,-1,15
 277 1435 277 1435 336.5 1457.5 c 128,-1,16
 396 1480 396 1480 476 1480 c 2,17,-1
 528 1480 l 1,18,-1
 528 1402 l 2,19,20
 528 1382 528 1382 514 1373.5 c 128,-1,21
 500 1365 500 1365 489 1365 c 2,22,-1
 470 1365 l 2,23,24
 395 1365 395 1365 352.5 1316.5 c 128,-1,25
 310 1268 310 1268 310 1185 c 0,26,27
 310 1131 310 1131 317 1081 c 128,-1,28
 324 1031 324 1031 332 983 c 128,-1,29
 340 935 340 935 347 888.5 c 128,-1,30
 354 842 354 842 354 794 c 0,31,32
 354 758 354 758 343 726.5 c 128,-1,33
 332 695 332 695 313 669.5 c 128,-1,34
 294 644 294 644 267 626.5 c 128,-1,35
 240 609 240 609 209 600 c 1,36,37
 240 591 240 591 267 573.5 c 128,-1,38
 294 556 294 556 313 530.5 c 128,-1,39
 332 505 332 505 343 474 c 128,-1,40
 354 443 354 443 354 407 c 0,41,42
 354 359 354 359 347 312 c 128,-1,43
 340 265 340 265 332 217 c 128,-1,44
 324 169 324 169 317 119 c 128,-1,45
 310 69 310 69 310 15 c 0,46,47
 310 -67 310 -67 352.5 -115.5 c 128,-1,48
 395 -164 395 -164 470 -164 c 2,49,-1
 489 -164 l 2,50,51
 500 -164 500 -164 514 -172.5 c 128,-1,52
 528 -181 528 -181 528 -201 c 2,53,-1
 528 -279 l 1,54,-1
 476 -279 l 2,55,56
 396 -279 396 -279 336.5 -256.5 c 128,-1,57
 277 -234 277 -234 236.5 -193.5 c 128,-1,58
 196 -153 196 -153 176 -97 c 128,-1,59
 156 -41 156 -41 156 26 c 0,60,61
 156 76 156 76 163.5 124 c 128,-1,62
 171 172 171 172 180.5 219 c 128,-1,63
 190 266 190 266 197.5 313.5 c 128,-1,64
 205 361 205 361 205 409 c 0,0,1
EndSplineSet
Validated: 1
EndChar

StartChar: braceright
Encoding: 125 125 70
Width: 644
GlyphClass: 2
Flags: W
LayerCount: 2
Fore
SplineSet
440 409 m 0,0,1
 440 361 440 361 447.5 313.5 c 128,-1,2
 455 266 455 266 464 219 c 128,-1,3
 473 172 473 172 480.5 124 c 128,-1,4
 488 76 488 76 488 26 c 0,5,6
 488 -41 488 -41 468 -97 c 128,-1,7
 448 -153 448 -153 408 -193.5 c 128,-1,8
 368 -234 368 -234 308 -256.5 c 128,-1,9
 248 -279 248 -279 168 -279 c 2,10,-1
 116 -279 l 1,11,-1
 116 -201 l 2,12,13
 116 -181 116 -181 130 -172.5 c 128,-1,14
 144 -164 144 -164 155 -164 c 2,15,-1
 174 -164 l 2,16,17
 249 -164 249 -164 291.5 -115.5 c 128,-1,18
 334 -67 334 -67 334 15 c 0,19,20
 334 69 334 69 327 119 c 128,-1,21
 320 169 320 169 312 217 c 128,-1,22
 304 265 304 265 297 312 c 128,-1,23
 290 359 290 359 290 407 c 0,24,25
 290 443 290 443 301 474 c 128,-1,26
 312 505 312 505 331.5 530.5 c 128,-1,27
 351 556 351 556 377.5 573.5 c 128,-1,28
 404 591 404 591 436 600 c 1,29,30
 404 609 404 609 377.5 626.5 c 128,-1,31
 351 644 351 644 331.5 669.5 c 128,-1,32
 312 695 312 695 301 726.5 c 128,-1,33
 290 758 290 758 290 794 c 0,34,35
 290 842 290 842 297 888.5 c 128,-1,36
 304 935 304 935 312 983 c 128,-1,37
 320 1031 320 1031 327 1081 c 128,-1,38
 334 1131 334 1131 334 1185 c 0,39,40
 334 1268 334 1268 291.5 1316.5 c 128,-1,41
 249 1365 249 1365 174 1365 c 2,42,-1
 155 1365 l 2,43,44
 144 1365 144 1365 130 1373.5 c 128,-1,45
 116 1382 116 1382 116 1402 c 2,46,-1
 116 1480 l 1,47,-1
 168 1480 l 2,48,49
 248 1480 248 1480 308 1457.5 c 128,-1,50
 368 1435 368 1435 408 1394.5 c 128,-1,51
 448 1354 448 1354 468 1298 c 128,-1,52
 488 1242 488 1242 488 1175 c 0,53,54
 488 1125 488 1125 480.5 1077 c 128,-1,55
 473 1029 473 1029 464 982 c 128,-1,56
 455 935 455 935 447.5 887.5 c 128,-1,57
 440 840 440 840 440 791 c 0,58,59
 440 730 440 730 473 691.5 c 128,-1,60
 506 653 506 653 570 653 c 1,61,-1
 570 548 l 1,62,63
 506 548 506 548 473 509.5 c 128,-1,64
 440 471 440 471 440 409 c 0,0,1
EndSplineSet
Validated: 1
EndChar

StartChar: asterisk
Encoding: 42 42 71
Width: 1020
GlyphClass: 2
Flags: W
LayerCount: 2
Fore
SplineSet
465 832 m 1,0,-1
 465 1021 l 2,1,2
 465 1039 465 1039 467.5 1055.5 c 128,-1,3
 470 1072 470 1072 477 1087 c 1,4,5
 467 1073 467 1073 454.5 1063.5 c 128,-1,6
 442 1054 442 1054 426 1045 c 2,7,-1
 261 949 l 1,8,-1
 218 1023 l 1,9,-1
 383 1119 l 2,10,11
 400 1129 400 1129 416.5 1134.5 c 128,-1,12
 433 1140 433 1140 450 1142 c 1,13,14
 418 1145 418 1145 383 1166 c 2,15,-1
 217 1264 l 1,16,-1
 260 1338 l 1,17,-1
 426 1241 l 2,18,19
 460 1221 460 1221 481 1190 c 1,20,21
 465 1223 465 1223 465 1264 c 2,22,-1
 465 1454 l 1,23,-1
 552 1454 l 1,24,-1
 552 1265 l 2,25,26
 552 1245 552 1245 549.5 1228.5 c 128,-1,27
 547 1212 547 1212 540 1196 c 1,28,29
 560 1221 560 1221 593 1241 c 2,30,-1
 758 1337 l 1,31,-1
 800 1263 l 1,32,-1
 636 1167 l 2,33,34
 619 1157 619 1157 603.5 1150.5 c 128,-1,35
 588 1144 588 1144 571 1142 c 1,36,37
 588 1140 588 1140 603.5 1134.5 c 128,-1,38
 619 1129 619 1129 636 1119 c 2,39,-1
 801 1022 l 1,40,-1
 759 948 l 1,41,-1
 593 1045 l 2,42,43
 576 1055 576 1055 562.5 1065.5 c 128,-1,44
 549 1076 549 1076 538 1090 c 1,45,46
 552 1057 552 1057 552 1022 c 2,47,-1
 552 832 l 1,48,-1
 465 832 l 1,0,-1
EndSplineSet
Validated: 1
EndChar

StartChar: asciicircum
Encoding: 94 94 72
Width: 1020
GlyphClass: 2
Flags: W
LayerCount: 2
Fore
SplineSet
944 671 m 1,0,-1
 816 671 l 2,1,2
 799 671 799 671 787 680 c 128,-1,3
 775 689 775 689 768 703 c 2,4,-1
 549 1130 l 2,5,6
 523 1178 523 1178 509 1224 c 1,7,8
 501 1201 501 1201 492 1178.5 c 128,-1,9
 483 1156 483 1156 471 1131 c 2,10,-1
 261 704 l 2,11,12
 254 690 254 690 242 680.5 c 128,-1,13
 230 671 230 671 210 671 c 2,14,-1
 76 671 l 1,15,-1
 451 1383 l 1,16,-1
 564 1383 l 1,17,-1
 944 671 l 1,0,-1
EndSplineSet
Validated: 1
EndChar

StartChar: asciitilde
Encoding: 126 126 73
Width: 1020
GlyphClass: 2
Flags: W
LayerCount: 2
Fore
SplineSet
683 593 m 0,0,1
 746 593 746 593 780.5 633.5 c 128,-1,2
 815 674 815 674 816 742 c 1,3,-1
 958 742 l 1,4,5
 958 677 958 677 940 622.5 c 128,-1,6
 922 568 922 568 888.5 529 c 128,-1,7
 855 490 855 490 806 468.5 c 128,-1,8
 757 447 757 447 694 447 c 0,9,10
 643 447 643 447 594 463 c 128,-1,11
 545 479 545 479 499.5 497.5 c 128,-1,12
 454 516 454 516 413 532 c 128,-1,13
 372 548 372 548 337 548 c 0,14,15
 274 548 274 548 239.5 507.5 c 128,-1,16
 205 467 205 467 204 399 c 1,17,-1
 62 399 l 1,18,19
 62 464 62 464 80 518 c 128,-1,20
 98 572 98 572 131.5 611 c 128,-1,21
 165 650 165 650 214 671.5 c 128,-1,22
 263 693 263 693 326 693 c 0,23,24
 377 693 377 693 426 677.5 c 128,-1,25
 475 662 475 662 520.5 643 c 128,-1,26
 566 624 566 624 607 608.5 c 128,-1,27
 648 593 648 593 683 593 c 0,0,1
EndSplineSet
Validated: 1
EndChar

StartChar: quotesingle
Encoding: 39 39 74
Width: 452
GlyphClass: 2
Flags: W
LayerCount: 2
Fore
SplineSet
302 1383 m 1,0,-1
 302 1103 l 1,1,-1
 285 954 l 2,2,3
 282 923 282 923 269 905.5 c 128,-1,4
 256 888 256 888 225 888 c 0,5,6
 199 888 199 888 184.5 905 c 128,-1,7
 170 922 170 922 167 954 c 2,8,-1
 150 1103 l 1,9,-1
 150 1383 l 1,10,-1
 302 1383 l 1,0,-1
EndSplineSet
Validated: 1
EndChar

StartChar: ampersand
Encoding: 38 38 76
Width: 1397
GlyphClass: 2
Flags: W
LayerCount: 2
Fore
SplineSet
656 1399 m 0,0,1
 735 1399 735 1399 799.5 1374.5 c 128,-1,2
 864 1350 864 1350 911 1309 c 128,-1,3
 958 1268 958 1268 985.5 1214.5 c 128,-1,4
 1013 1161 1013 1161 1016 1103 c 1,5,-1
 907 1081 l 2,6,7
 891 1078 891 1078 878 1085 c 128,-1,8
 865 1092 865 1092 859 1111 c 0,9,10
 851 1136 851 1136 836 1163 c 128,-1,11
 821 1190 821 1190 796 1212 c 128,-1,12
 771 1234 771 1234 736.5 1248.5 c 128,-1,13
 702 1263 702 1263 656 1263 c 0,14,15
 606 1263 606 1263 566 1247.5 c 128,-1,16
 526 1232 526 1232 498 1204.5 c 128,-1,17
 470 1177 470 1177 454.5 1140 c 128,-1,18
 439 1103 439 1103 439 1060 c 0,19,20
 439 994 439 994 472.5 933.5 c 128,-1,21
 506 873 506 873 581 800 c 2,22,-1
 990 395 l 1,23,24
 1029 461 1029 461 1051.5 532 c 128,-1,25
 1074 603 1074 603 1082 675 c 0,26,27
 1085 715 1085 715 1122 715 c 2,28,-1
 1229 715 l 1,29,30
 1228 603 1228 603 1193 495.5 c 128,-1,31
 1158 388 1158 388 1093 294 c 1,32,-1
 1391 0 l 1,33,-1
 1221 0 l 2,34,35
 1192 0 1192 0 1174.5 7 c 128,-1,36
 1157 14 1157 14 1136 35 c 2,37,-1
 991 176 l 1,38,39
 898 88 898 88 776 36.5 c 128,-1,40
 654 -15 654 -15 508 -15 c 0,41,42
 429 -15 429 -15 352.5 11 c 128,-1,43
 276 37 276 37 216 86.5 c 128,-1,44
 156 136 156 136 119.5 207.5 c 128,-1,45
 83 279 83 279 83 369 c 0,46,47
 83 436 83 436 106.5 496.5 c 128,-1,48
 130 557 130 557 171 608 c 128,-1,49
 212 659 212 659 269 700 c 128,-1,50
 326 741 326 741 393 769 c 1,51,52
 332 844 332 844 303.5 914 c 128,-1,53
 275 984 275 984 275 1059 c 0,54,55
 275 1129 275 1129 301.5 1191 c 128,-1,56
 328 1253 328 1253 377.5 1299.5 c 128,-1,57
 427 1346 427 1346 497.5 1372.5 c 128,-1,58
 568 1399 568 1399 656 1399 c 0,0,1
538 127 m 0,59,60
 649 127 649 127 737.5 166.5 c 128,-1,61
 826 206 826 206 893 272 c 1,62,-1
 474 681 l 1,63,64
 368 627 368 627 315 550.5 c 128,-1,65
 262 474 262 474 262 383 c 0,66,67
 262 321 262 321 286 273.5 c 128,-1,68
 310 226 310 226 349 193.5 c 128,-1,69
 388 161 388 161 437.5 144 c 128,-1,70
 487 127 487 127 538 127 c 0,59,60
EndSplineSet
Validated: 1
EndChar

StartChar: at
Encoding: 64 64 77
Width: 1831
GlyphClass: 2
Flags: W
LayerCount: 2
Fore
SplineSet
1248 179 m 0,0,1
 1174 179 1174 179 1126.5 215 c 128,-1,2
 1079 251 1079 251 1065 326 c 1,3,4
 1009 249 1009 249 943.5 215.5 c 128,-1,5
 878 182 878 182 803 182 c 0,6,7
 746 182 746 182 703 202 c 128,-1,8
 660 222 660 222 631.5 257 c 128,-1,9
 603 292 603 292 589 340.5 c 128,-1,10
 575 389 575 389 575 445 c 0,11,12
 575 500 575 500 589 556 c 128,-1,13
 603 612 603 612 630.5 664 c 128,-1,14
 658 716 658 716 699.5 761.5 c 128,-1,15
 741 807 741 807 795.5 840.5 c 128,-1,16
 850 874 850 874 918 893.5 c 128,-1,17
 986 913 986 913 1067 913 c 0,18,19
 1132 913 1132 913 1181 903 c 128,-1,20
 1230 893 1230 893 1274 873 c 1,21,-1
 1184 525 l 2,22,23
 1165 454 1165 454 1165 409 c 0,24,25
 1165 408 1165 408 1166 406 c 0,26,27
 1166 361 1166 361 1180 335 c 128,-1,28
 1194 309 1194 309 1219 299.5 c 128,-1,29
 1244 290 1244 290 1274 290 c 0,30,31
 1320 290 1320 290 1362.5 317 c 128,-1,32
 1405 344 1405 344 1436.5 393.5 c 128,-1,33
 1468 443 1468 443 1487 511.5 c 128,-1,34
 1506 580 1506 580 1506 664 c 0,35,36
 1506 797 1506 797 1463.5 897 c 128,-1,37
 1421 997 1421 997 1346.5 1063.5 c 128,-1,38
 1272 1130 1272 1130 1170.5 1163.5 c 128,-1,39
 1069 1197 1069 1197 951 1197 c 0,40,41
 822 1197 822 1197 709.5 1148 c 128,-1,42
 597 1099 597 1099 513 1012 c 128,-1,43
 429 925 429 925 381 806.5 c 128,-1,44
 333 688 333 688 333 549 c 0,45,46
 333 385 333 385 384.5 261 c 128,-1,47
 436 137 436 137 525 53.5 c 128,-1,48
 614 -30 614 -30 734 -72.5 c 128,-1,49
 854 -115 854 -115 992 -115 c 0,50,51
 1139 -115 1139 -115 1251.5 -83.5 c 128,-1,52
 1364 -52 1364 -52 1445 -3 c 0,53,54
 1465 9 1465 9 1479.5 4 c 128,-1,55
 1494 -1 1494 -1 1501 -18 c 2,56,-1
 1526 -83 l 1,57,58
 1423 -151 1423 -151 1290.5 -191 c 128,-1,59
 1158 -231 1158 -231 992 -231 c 0,60,61
 824 -231 824 -231 680 -178 c 128,-1,62
 536 -125 536 -125 430.5 -24.5 c 128,-1,63
 325 76 325 76 264.5 221 c 128,-1,64
 204 366 204 366 204 549 c 0,65,66
 204 654 204 654 230.5 751.5 c 128,-1,67
 257 849 257 849 305 934 c 128,-1,68
 353 1019 353 1019 421 1088.5 c 128,-1,69
 489 1158 489 1158 572 1208 c 128,-1,70
 655 1258 655 1258 751 1285.5 c 128,-1,71
 847 1313 847 1313 951 1313 c 0,72,73
 1085 1313 1085 1313 1208 1269.5 c 128,-1,74
 1331 1226 1331 1226 1425.5 1143 c 128,-1,75
 1520 1060 1520 1060 1576.5 939 c 128,-1,76
 1633 818 1633 818 1633 664 c 0,77,78
 1633 560 1633 560 1603.5 471 c 128,-1,79
 1574 382 1574 382 1522 317 c 128,-1,80
 1470 252 1470 252 1400 215.5 c 128,-1,81
 1330 179 1330 179 1248 179 c 0,0,1
838 297 m 0,82,83
 867 297 867 297 897.5 306.5 c 128,-1,84
 928 316 928 316 955.5 340 c 128,-1,85
 983 364 983 364 1007 405 c 128,-1,86
 1031 446 1031 446 1047 508 c 2,87,-1
 1120 792 l 1,88,89
 1084 801 1084 801 1039 801 c 0,90,91
 968 801 968 801 908 771 c 128,-1,92
 848 741 848 741 804.5 691.5 c 128,-1,93
 761 642 761 642 736.5 578.5 c 128,-1,94
 712 515 712 515 712 449 c 0,95,96
 712 380 712 380 743.5 338.5 c 128,-1,97
 775 297 775 297 838 297 c 0,82,83
EndSplineSet
Validated: 1
EndChar

StartChar: numbersign
Encoding: 35 35 78
Width: 1020
GlyphClass: 2
Flags: W
LayerCount: 2
Fore
SplineSet
711 408 m 1,0,-1
 638 0 l 1,1,-1
 559 0 l 2,2,3
 533 0 533 0 516.5 21.5 c 128,-1,4
 500 43 500 43 506 75 c 2,5,-1
 566 408 l 1,6,-1
 361 408 l 1,7,-1
 302 67 l 2,8,9
 295 31 295 31 272.5 15.5 c 128,-1,10
 250 0 250 0 221 0 c 2,11,-1
 143 0 l 1,12,-1
 216 408 l 1,13,-1
 95 408 l 2,14,15
 68 408 68 408 56 424 c 128,-1,16
 44 440 44 440 50 480 c 2,17,-1
 58 536 l 1,18,-1
 233 536 l 1,19,-1
 287 848 l 1,20,-1
 88 848 l 1,21,-1
 101 921 l 2,22,23
 106 950 106 950 123.5 963.5 c 128,-1,24
 141 977 141 977 179 977 c 2,25,-1
 304 977 l 1,26,-1
 366 1321 l 2,27,28
 371 1350 371 1350 392.5 1366.5 c 128,-1,29
 414 1383 414 1383 443 1383 c 2,30,-1
 522 1383 l 1,31,-1
 449 977 l 1,32,-1
 655 977 l 1,33,-1
 728 1383 l 1,34,-1
 806 1383 l 2,35,36
 834 1383 834 1383 850.5 1365 c 128,-1,37
 867 1347 867 1347 862 1318 c 2,38,-1
 800 977 l 1,39,-1
 985 977 l 1,40,-1
 972 903 l 2,41,42
 967 874 967 874 949 861 c 128,-1,43
 931 848 931 848 893 848 c 2,44,-1
 783 848 l 1,45,-1
 728 536 l 1,46,-1
 876 536 l 2,47,48
 903 536 903 536 915.5 520 c 128,-1,49
 928 504 928 504 922 464 c 2,50,-1
 914 408 l 1,51,-1
 711 408 l 1,0,-1
378 536 m 1,52,-1
 583 536 l 1,53,-1
 638 848 l 1,54,-1
 432 848 l 1,55,-1
 378 536 l 1,52,-1
EndSplineSet
Validated: 1
EndChar

StartChar: zero
Encoding: 48 48 79
Width: 1038
GlyphClass: 2
Flags: W
LayerCount: 2
Fore
SplineSet
985 657 m 256,0,1
 985 485 985 485 949 358.5 c 128,-1,2
 913 232 913 232 850 149.5 c 128,-1,3
 787 67 787 67 701.5 26.5 c 128,-1,4
 616 -14 616 -14 518 -14 c 256,5,6
 420 -14 420 -14 335 26.5 c 128,-1,7
 250 67 250 67 187.5 149.5 c 128,-1,8
 125 232 125 232 89 358.5 c 128,-1,9
 53 485 53 485 53 657 c 256,10,11
 53 829 53 829 89 955.5 c 128,-1,12
 125 1082 125 1082 187.5 1165 c 128,-1,13
 250 1248 250 1248 335 1288.5 c 128,-1,14
 420 1329 420 1329 518 1329 c 256,15,16
 616 1329 616 1329 701.5 1288.5 c 128,-1,17
 787 1248 787 1248 850 1165 c 128,-1,18
 913 1082 913 1082 949 955.5 c 128,-1,19
 985 829 985 829 985 657 c 256,0,1
811 657 m 256,20,21
 811 807 811 807 787 908.5 c 128,-1,22
 763 1010 763 1010 722.5 1072 c 128,-1,23
 682 1134 682 1134 629 1161 c 128,-1,24
 576 1188 576 1188 518 1188 c 256,25,26
 460 1188 460 1188 407.5 1161 c 128,-1,27
 355 1134 355 1134 314.5 1072 c 128,-1,28
 274 1010 274 1010 250 908.5 c 128,-1,29
 226 807 226 807 226 657 c 256,30,31
 226 507 226 507 250 405.5 c 128,-1,32
 274 304 274 304 314.5 242 c 128,-1,33
 355 180 355 180 407.5 153.5 c 128,-1,34
 460 127 460 127 518 127 c 256,35,36
 576 127 576 127 629 153.5 c 128,-1,37
 682 180 682 180 722.5 242 c 128,-1,38
 763 304 763 304 787 405.5 c 128,-1,39
 811 507 811 507 811 657 c 256,20,21
EndSplineSet
Validated: 1
EndChar

StartChar: one
Encoding: 49 49 80
Width: 1038
GlyphClass: 2
Flags: W
LayerCount: 2
Fore
SplineSet
255 128 m 5,0,-1
 528 128 l 5,1,-1
 528 1015 l 6,2,3
 528 1054 528 1054 531 1096 c 5,4,-1
 308 900 l 6,5,6
 284 880 284 880 261.5 886.5 c 132,-1,7
 239 893 239 893 230 906 c 6,8,-1
 177 979 l 5,9,-1
 560 1318 l 5,10,-1
 696 1318 l 5,11,-1
 696 128 l 5,12,-1
 946 128 l 5,13,-1
 946 0 l 5,14,-1
 255 0 l 5,15,-1
 255 128 l 5,0,-1
EndSplineSet
Validated: 1
EndChar

StartChar: two
Encoding: 50 50 81
Width: 1038
GlyphClass: 2
Flags: W
LayerCount: 2
Fore
SplineSet
539 1329 m 256,0,1
 622 1329 622 1329 693 1304 c 0,2,3
 764 1279 764 1279 816 1232 c 0,4,5
 868 1185 868 1185 897.5 1117 c 0,6,7
 927 1049 927 1049 927 962 c 0,8,9
 927 889 927 889 905.5 826.5 c 0,10,11
 884 764 884 764 847.5 707 c 0,12,13
 811 650 811 650 763 595.5 c 0,14,15
 715 541 715 541 662 486 c 2,16,-1
 325 135 l 1,17,18
 363 146 363 146 401.5 152 c 0,19,20
 440 158 440 158 475 158 c 2,21,-1
 892 158 l 2,22,23
 919 158 919 158 935 142.5 c 0,24,25
 951 127 951 127 951 101 c 2,26,-1
 951 0 l 1,27,-1
 92 0 l 1,28,-1
 92 57 l 2,29,30
 92 74 92 74 99 93.5 c 0,31,32
 106 113 106 113 123 129 c 2,33,-1
 530 549 l 2,34,35
 582 602 582 602 623.5 651 c 0,36,37
 665 700 665 700 694 749.5 c 0,38,39
 723 799 723 799 739 850 c 0,40,41
 755 901 755 901 755 958 c 256,42,43
 755 1015 755 1015 737.5 1058 c 0,44,45
 720 1101 720 1101 690 1129.5 c 0,46,47
 660 1158 660 1158 619 1172 c 0,48,49
 578 1186 578 1186 530 1186 c 0,50,51
 483 1186 483 1186 443 1171.5 c 0,52,53
 403 1157 403 1157 372 1131.5 c 0,54,55
 341 1106 341 1106 319 1070.5 c 0,56,57
 297 1035 297 1035 287 993 c 0,58,59
 279 959 279 959 259.5 948.5 c 0,60,61
 240 938 240 938 205 943 c 2,62,-1
 118 957 l 1,63,64
 130 1048 130 1048 166.5 1117.5 c 0,65,66
 203 1187 203 1187 258 1234 c 0,67,68
 313 1281 313 1281 384.5 1305 c 0,69,70
 456 1329 456 1329 539 1329 c 256,0,1
EndSplineSet
Refer: 97 -1 N 1 0 0 1 92 0 0
Validated: 1
EndChar

StartChar: three
Encoding: 51 51 82
Width: 1038
GlyphClass: 2
Flags: W
LayerCount: 2
Fore
SplineSet
555 1329 m 256,0,1
 638 1329 638 1329 707 1305 c 0,2,3
 776 1281 776 1281 826 1237 c 0,4,5
 876 1193 876 1193 903.5 1131 c 0,6,7
 931 1069 931 1069 931 993 c 0,8,9
 931 930 931 930 915.5 881 c 0,10,11
 900 832 900 832 871 795 c 0,12,13
 842 758 842 758 801 732.5 c 0,14,15
 760 707 760 707 709 691 c 1,16,17
 834 657 834 657 897 577.5 c 0,18,19
 960 498 960 498 960 378 c 0,20,21
 960 287 960 287 926 214.5 c 0,22,23
 892 142 892 142 833.5 91 c 0,24,25
 775 40 775 40 697 13 c 0,26,27
 619 -14 619 -14 531 -14 c 0,28,29
 429 -14 429 -14 357 11.5 c 0,30,31
 285 37 285 37 234 83 c 0,32,33
 183 129 183 129 150 191 c 0,34,35
 117 253 117 253 95 327 c 1,36,-1
 167 358 l 2,37,38
 196 370 196 370 222.5 365 c 0,39,40
 249 360 249 360 261 335 c 0,41,42
 273 309 273 309 290.5 273.5 c 0,43,44
 308 238 308 238 338 205.5 c 0,45,46
 368 173 368 173 414 150.5 c 0,47,48
 460 128 460 128 529 128 c 0,49,50
 595 128 595 128 644 150.5 c 0,51,52
 693 173 693 173 726 208 c 0,53,54
 759 243 759 243 775.5 287 c 0,55,56
 792 331 792 331 792 373 c 0,57,58
 792 425 792 425 779 469.5 c 0,59,60
 766 514 766 514 730 545.5 c 0,61,62
 694 577 694 577 630.5 595 c 0,63,64
 567 613 567 613 467 613 c 1,65,-1
 467 734 l 1,66,67
 549 735 549 735 606 752.5 c 0,68,69
 663 770 663 770 699 800 c 0,70,71
 735 830 735 830 751 872 c 0,72,73
 767 914 767 914 767 964 c 0,74,75
 767 1020 767 1020 750.5 1061.5 c 0,76,77
 734 1103 734 1103 704.5 1131 c 0,78,79
 675 1159 675 1159 634.5 1172.5 c 0,80,81
 594 1186 594 1186 546 1186 c 256,82,83
 498 1186 498 1186 458.5 1171.5 c 0,84,85
 419 1157 419 1157 388 1131.5 c 0,86,87
 357 1106 357 1106 335.5 1070.5 c 0,88,89
 314 1035 314 1035 303 993 c 0,90,91
 295 959 295 959 275.5 948.5 c 0,92,93
 256 938 256 938 221 943 c 2,94,-1
 133 957 l 1,95,96
 146 1048 146 1048 182 1117.5 c 0,97,98
 218 1187 218 1187 273.5 1234 c 0,99,100
 329 1281 329 1281 400.5 1305 c 0,101,102
 472 1329 472 1329 555 1329 c 256,0,1
EndSplineSet
Refer: 97 -1 N 1 0 0 1 95 0 0
Validated: 1
EndChar

StartChar: four
Encoding: 52 52 83
Width: 1038
GlyphClass: 2
Flags: W
LayerCount: 2
Fore
SplineSet
814 475 m 1,0,-1
 1004 475 l 1,1,-1
 1004 380 l 2,2,3
 1004 365 1004 365 994.5 354.5 c 0,4,5
 985 344 985 344 967 344 c 2,6,-1
 814 344 l 1,7,-1
 814 0 l 1,8,-1
 667 0 l 1,9,-1
 667 344 l 1,10,-1
 102 344 l 2,11,12
 82 344 82 344 69 354.5 c 0,13,14
 56 365 56 365 52 382 c 2,15,-1
 35 466 l 1,16,-1
 657 1315 l 1,17,-1
 814 1315 l 1,18,-1
 814 475 l 1,0,-1
667 1011 m 2,19,20
 667 1059 667 1059 673 1116 c 1,21,-1
 214 475 l 1,22,-1
 667 475 l 1,23,-1
 667 1011 l 2,19,20
EndSplineSet
Refer: 97 -1 N 1 0 0 1 35 0 0
Validated: 1
EndChar

StartChar: five
Encoding: 53 53 84
Width: 1038
GlyphClass: 2
Flags: W
LayerCount: 2
Fore
SplineSet
877 1241 m 2,0,1
 877 1206 877 1206 854.5 1183 c 0,2,3
 832 1160 832 1160 779 1160 c 2,4,-1
 382 1160 l 1,5,-1
 325 820 l 1,6,7
 375 831 375 831 419.5 836 c 0,8,9
 464 841 464 841 506 841 c 0,10,11
 606 841 606 841 683 810.5 c 0,12,13
 760 780 760 780 812 727 c 0,14,15
 864 674 864 674 890.5 601.5 c 0,16,17
 917 529 917 529 917 444 c 0,18,19
 917 339 917 339 881.5 254.5 c 0,20,21
 846 170 846 170 783.5 110 c 0,22,23
 721 50 721 50 636 18 c 0,24,25
 551 -14 551 -14 453 -14 c 0,26,27
 396 -14 396 -14 344 -2.5 c 0,28,29
 292 9 292 9 246 28 c 0,30,31
 200 47 200 47 161.5 72 c 0,32,33
 123 97 123 97 93 125 c 1,34,-1
 144 196 l 2,35,36
 162 220 162 220 189 220 c 0,37,38
 207 220 207 220 229.5 206 c 0,39,40
 252 192 252 192 284 174.5 c 0,41,42
 316 157 316 157 359 143 c 0,43,44
 402 129 402 129 462 129 c 0,45,46
 528 129 528 129 581 151 c 0,47,48
 634 173 634 173 671 213 c 0,49,50
 708 253 708 253 728 309.5 c 0,51,52
 748 366 748 366 748 436 c 0,53,54
 748 497 748 497 730.5 546 c 0,55,56
 713 595 713 595 678.5 630 c 0,57,58
 644 665 644 665 592 684 c 0,59,60
 540 703 540 703 471 703 c 0,61,62
 374 703 374 703 265 667 c 1,63,-1
 161 699 l 1,64,-1
 265 1314 l 1,65,-1
 877 1314 l 1,66,-1
 877 1241 l 2,0,1
EndSplineSet
Refer: 97 -1 N 1 0 0 1 93 0 0
Validated: 1
EndChar

StartChar: seven
Encoding: 55 55 85
Width: 1038
GlyphClass: 2
Flags: W
LayerCount: 2
Fore
SplineSet
972 1314 m 1,0,-1
 972 1240 l 2,1,2
 972 1208 972 1208 965 1187.5 c 0,3,4
 958 1167 958 1167 951 1153 c 2,5,-1
 426 59 l 2,6,7
 414 35 414 35 392 17.5 c 0,8,9
 370 0 370 0 335 0 c 2,10,-1
 213 0 l 1,11,-1
 747 1079 l 2,12,13
 771 1126 771 1126 801 1160 c 1,14,-1
 139 1160 l 2,15,16
 122 1160 122 1160 110 1172 c 0,17,18
 98 1184 98 1184 98 1200 c 2,19,-1
 98 1314 l 1,20,-1
 972 1314 l 1,0,-1
EndSplineSet
Refer: 97 -1 N 1 0 0 1 98 0 0
Validated: 1
EndChar

StartChar: nine
Encoding: 57 57 86
Width: 1038
GlyphClass: 2
Flags: W
LayerCount: 2
Fore
SplineSet
660 523 m 2,0,1
 679 549 679 549 695.5 572 c 0,2,3
 712 595 712 595 727 618 c 1,4,5
 679 580 679 580 618.5 559.5 c 0,6,7
 558 539 558 539 490 539 c 0,8,9
 418 539 418 539 353 564 c 0,10,11
 288 589 288 589 238.5 637 c 0,12,13
 189 685 189 685 160 755 c 0,14,15
 131 825 131 825 131 916 c 0,16,17
 131 1002 131 1002 162.5 1077.5 c 0,18,19
 194 1153 194 1153 250.5 1209 c 0,20,21
 307 1265 307 1265 385.5 1297 c 0,22,23
 464 1329 464 1329 558 1329 c 0,24,25
 651 1329 651 1329 726.5 1298 c 0,26,27
 802 1267 802 1267 856 1210.5 c 0,28,29
 910 1154 910 1154 939 1075.5 c 0,30,31
 968 997 968 997 968 903 c 0,32,33
 968 846 968 846 957.5 795.5 c 0,34,35
 947 745 947 745 928 696 c 0,36,37
 909 647 909 647 881 599 c 0,38,39
 853 551 853 551 819 500 c 2,40,-1
 510 39 l 2,41,42
 498 22 498 22 475.5 11 c 0,43,44
 453 0 453 0 424 0 c 2,45,-1
 270 0 l 1,46,-1
 660 523 l 2,0,1
807 923 m 0,47,48
 807 984 807 984 788.5 1033.5 c 0,49,50
 770 1083 770 1083 736.5 1118 c 0,51,52
 703 1153 703 1153 657 1171.5 c 0,53,54
 611 1190 611 1190 556 1190 c 0,55,56
 498 1190 498 1190 450.5 1170.5 c 0,57,58
 403 1151 403 1151 369.5 1116.5 c 0,59,60
 336 1082 336 1082 317.5 1033.5 c 0,61,62
 299 985 299 985 299 928 c 0,63,64
 299 803 299 803 365 735 c 0,65,66
 431 667 431 667 546 667 c 0,67,68
 609 667 609 667 657.5 688 c 0,69,70
 706 709 706 709 739 744.5 c 0,71,72
 772 780 772 780 789.5 826.5 c 0,73,74
 807 873 807 873 807 923 c 0,47,48
EndSplineSet
Refer: 97 -1 N 1 0 0 1 131 0 0
Validated: 1
EndChar

StartChar: plus
Encoding: 43 43 87
Width: 1020
GlyphClass: 2
Flags: W
LayerCount: 2
Fore
SplineSet
580 1126 m 1,0,-1
 580 714 l 1,1,-1
 972 714 l 1,2,-1
 972 581 l 1,3,-1
 580 581 l 1,4,-1
 580 168 l 1,5,-1
 436 168 l 1,6,-1
 436 581 l 1,7,-1
 46 581 l 1,8,-1
 46 714 l 1,9,-1
 436 714 l 1,10,-1
 436 1126 l 1,11,-1
 580 1126 l 1,0,-1
EndSplineSet
Validated: 1
EndChar

StartChar: equal
Encoding: 61 61 88
Width: 1020
GlyphClass: 2
Flags: W
LayerCount: 2
Fore
SplineSet
94 554 m 1,0,-1
 925 554 l 1,1,-1
 925 422 l 1,2,-1
 94 422 l 1,3,-1
 94 554 l 1,0,-1
94 879 m 1,4,-1
 925 879 l 1,5,-1
 925 746 l 1,6,-1
 94 746 l 1,7,-1
 94 879 l 1,4,-1
EndSplineSet
Validated: 1
EndChar

StartChar: less
Encoding: 60 60 89
Width: 1020
GlyphClass: 2
Flags: W
LayerCount: 2
Fore
SplineSet
93 685 m 1,0,-1
 840 1073 l 1,1,-1
 840 948 l 2,2,3
 840 932 840 932 832.5 919.5 c 128,-1,4
 825 907 825 907 805 897 c 2,5,-1
 377 680 l 2,6,7
 339 661 339 661 289 649 c 1,8,9
 338 639 338 639 377 619 c 2,10,-1
 806 401 l 2,11,12
 825 391 825 391 832.5 378.5 c 128,-1,13
 840 366 840 366 840 350 c 2,14,-1
 840 225 l 1,15,-1
 93 613 l 1,16,-1
 93 685 l 1,0,-1
EndSplineSet
Validated: 1
EndChar

StartChar: greater
Encoding: 62 62 90
Width: 1020
GlyphClass: 2
Flags: W
LayerCount: 2
Fore
SplineSet
927 613 m 1,0,-1
 181 225 l 1,1,-1
 181 350 l 2,2,3
 181 383 181 383 215 401 c 2,4,-1
 644 619 l 2,5,6
 681 638 681 638 731 649 c 1,7,8
 681 661 681 661 643 680 c 2,9,-1
 216 898 l 2,10,11
 197 908 197 908 189 920 c 128,-1,12
 181 932 181 932 181 948 c 2,13,-1
 181 1073 l 1,14,-1
 927 685 l 1,15,-1
 927 613 l 1,0,-1
EndSplineSet
Validated: 1
EndChar

StartChar: l
Encoding: 108 108 91
Width: 2076
GlyphClass: 2
Flags: W
LayerCount: 2
Fore
SplineSet
1293 128 m 1,0,-1
 1566 128 l 1,1,-1
 1566 1015 l 2,2,3
 1566 1054 1566 1054 1569 1096 c 1,4,-1
 1346 900 l 2,5,6
 1323 880 1323 880 1300 886 c 0,7,8
 1277 893 1277 893 1268 906 c 2,9,-1
 1215 979 l 1,10,-1
 1598 1318 l 1,11,-1
 1734 1318 l 1,12,-1
 1734 128 l 1,13,-1
 1984 128 l 1,14,-1
 1984 0 l 1,15,-1
 1293 0 l 1,16,-1
 1293 128 l 1,0,-1
555 1329 m 256,17,18
 638 1329 638 1329 707 1305 c 0,19,20
 776 1281 776 1281 826 1237 c 0,21,22
 876 1193 876 1193 903.5 1131 c 0,23,24
 931 1069 931 1069 931 993 c 0,25,26
 931 930 931 930 915.5 881 c 0,27,28
 900 832 900 832 871 795 c 0,29,30
 842 758 842 758 801 732.5 c 0,31,32
 760 707 760 707 709 691 c 1,33,34
 834 657 834 657 897 577.5 c 0,35,36
 960 498 960 498 960 378 c 0,37,38
 960 287 960 287 926 214.5 c 0,39,40
 892 142 892 142 833.5 91 c 0,41,42
 775 40 775 40 697 13 c 0,43,44
 619 -14 619 -14 531 -14 c 0,45,46
 429 -14 429 -14 357 11.5 c 0,47,48
 285 37 285 37 234 83 c 0,49,50
 183 129 183 129 150 191 c 0,51,52
 117 253 117 253 95 327 c 1,53,-1
 167 358 l 2,54,55
 196 370 196 370 222.5 365 c 0,56,57
 249 360 249 360 261 335 c 0,58,59
 273 309 273 309 290.5 273.5 c 0,60,61
 308 238 308 238 338 205.5 c 0,62,63
 368 173 368 173 414 150.5 c 0,64,65
 460 128 460 128 529 128 c 0,66,67
 595 128 595 128 644 150.5 c 0,68,69
 693 173 693 173 726 208 c 0,70,71
 759 243 759 243 775.5 287 c 0,72,73
 792 331 792 331 792 373 c 0,74,75
 792 425 792 425 779 469.5 c 0,76,77
 766 514 766 514 730 545.5 c 0,78,79
 694 577 694 577 630.5 595 c 0,80,81
 567 613 567 613 467 613 c 1,82,-1
 467 734 l 1,83,84
 549 735 549 735 606 752.5 c 0,85,86
 663 770 663 770 699 800 c 0,87,88
 735 830 735 830 751 872 c 0,89,90
 767 914 767 914 767 964 c 0,91,92
 767 1020 767 1020 750.5 1061.5 c 0,93,94
 734 1103 734 1103 704.5 1131 c 0,95,96
 675 1159 675 1159 634.5 1172.5 c 0,97,98
 594 1186 594 1186 546 1186 c 256,99,100
 498 1186 498 1186 458.5 1171.5 c 0,101,102
 419 1157 419 1157 388 1131.5 c 0,103,104
 357 1106 357 1106 335.5 1070.5 c 0,105,106
 314 1035 314 1035 303 993 c 0,107,108
 295 959 295 959 275.5 948.5 c 0,109,110
 256 938 256 938 221 943 c 2,111,-1
 133 957 l 1,112,113
 146 1048 146 1048 182 1117.5 c 0,114,115
 218 1187 218 1187 273.5 1234 c 0,116,117
 329 1281 329 1281 400.5 1305 c 0,118,119
 472 1329 472 1329 555 1329 c 256,17,18
EndSplineSet
Refer: 97 -1 N 1 0 0 1 95 0 0
Validated: 1
EndChar

StartChar: six
Encoding: 54 54 92
Width: 1038
GlyphClass: 2
Flags: W
LayerCount: 2
Fore
SplineSet
437 866 m 2,0,1
 422 845 422 845 407.5 825.5 c 128,-1,2
 393 806 393 806 380 787 c 1,3,4
 423 816 423 816 475 832 c 128,-1,5
 527 848 527 848 587 848 c 0,6,7
 663 848 663 848 732 821 c 128,-1,8
 801 794 801 794 853.5 741.5 c 128,-1,9
 906 689 906 689 936.5 612 c 128,-1,10
 967 535 967 535 967 436 c 0,11,12
 967 341 967 341 934.5 258.5 c 128,-1,13
 902 176 902 176 843.5 115 c 128,-1,14
 785 54 785 54 703.5 19.5 c 128,-1,15
 622 -15 622 -15 523 -15 c 256,16,17
 424 -15 424 -15 344.5 18.5 c 128,-1,18
 265 52 265 52 209 113.5 c 128,-1,19
 153 175 153 175 122.5 262.5 c 128,-1,20
 92 350 92 350 92 458 c 0,21,22
 92 549 92 549 129.5 651 c 128,-1,23
 167 753 167 753 247 871 c 2,24,-1
 569 1341 l 2,25,26
 582 1359 582 1359 606.5 1371 c 128,-1,27
 631 1383 631 1383 663 1383 c 2,28,-1
 819 1383 l 1,29,-1
 437 866 l 2,0,1
262 427 m 0,30,31
 262 361 262 361 279 306.5 c 128,-1,32
 296 252 296 252 329 213 c 128,-1,33
 362 174 362 174 410 152 c 128,-1,34
 458 130 458 130 520 130 c 0,35,36
 581 130 581 130 631 152.5 c 128,-1,37
 681 175 681 175 716.5 214 c 128,-1,38
 752 253 752 253 771.5 306.5 c 128,-1,39
 791 360 791 360 791 423 c 0,40,41
 791 491 791 491 772 545 c 128,-1,42
 753 599 753 599 718.5 636.5 c 128,-1,43
 684 674 684 674 635.5 694 c 128,-1,44
 587 714 587 714 528 714 c 0,45,46
 467 714 467 714 417.5 690.5 c 128,-1,47
 368 667 368 667 333.5 627.5 c 128,-1,48
 299 588 299 588 280.5 536 c 128,-1,49
 262 484 262 484 262 427 c 0,30,31
EndSplineSet
Validated: 1
EndChar

StartChar: eight
Encoding: 56 56 93
Width: 1038
GlyphClass: 2
Flags: W
LayerCount: 2
Fore
SplineSet
519 -15 m 256,0,1
 422 -15 422 -15 341.5 12.5 c 128,-1,2
 261 40 261 40 203.5 91.5 c 128,-1,3
 146 143 146 143 114 216 c 128,-1,4
 82 289 82 289 82 379 c 0,5,6
 82 513 82 513 145.5 599 c 128,-1,7
 209 685 209 685 331 721 c 1,8,9
 229 761 229 761 177.5 842 c 128,-1,10
 126 923 126 923 126 1035 c 0,11,12
 126 1111 126 1111 154.5 1177.5 c 128,-1,13
 183 1244 183 1244 234.5 1293.5 c 128,-1,14
 286 1343 286 1343 358.5 1371 c 128,-1,15
 431 1399 431 1399 519 1399 c 256,16,17
 607 1399 607 1399 679.5 1371 c 128,-1,18
 752 1343 752 1343 803.5 1293.5 c 128,-1,19
 855 1244 855 1244 883.5 1177.5 c 128,-1,20
 912 1111 912 1111 912 1035 c 0,21,22
 912 923 912 923 860 842 c 128,-1,23
 808 761 808 761 706 721 c 1,24,25
 829 685 829 685 892.5 599 c 128,-1,26
 956 513 956 513 956 379 c 0,27,28
 956 289 956 289 924 216 c 128,-1,29
 892 143 892 143 834.5 91.5 c 128,-1,30
 777 40 777 40 696.5 12.5 c 128,-1,31
 616 -15 616 -15 519 -15 c 256,0,1
519 124 m 0,32,33
 579 124 579 124 626.5 143 c 128,-1,34
 674 162 674 162 707 196 c 128,-1,35
 740 230 740 230 757 277.5 c 128,-1,36
 774 325 774 325 774 382 c 0,37,38
 774 453 774 453 753.5 503 c 128,-1,39
 733 553 733 553 698.5 585 c 128,-1,40
 664 617 664 617 617.5 632 c 128,-1,41
 571 647 571 647 519 647 c 0,42,43
 466 647 466 647 419.5 632 c 128,-1,44
 373 617 373 617 338.5 585 c 128,-1,45
 304 553 304 553 283.5 503 c 128,-1,46
 263 453 263 453 263 382 c 0,47,48
 263 325 263 325 280 277.5 c 128,-1,49
 297 230 297 230 330 196 c 128,-1,50
 363 162 363 162 410.5 143 c 128,-1,51
 458 124 458 124 519 124 c 0,32,33
519 787 m 256,52,53
 579 787 579 787 621.5 807.5 c 128,-1,54
 664 828 664 828 690 862 c 128,-1,55
 716 896 716 896 728 940.5 c 128,-1,56
 740 985 740 985 740 1032 c 0,57,58
 740 1080 740 1080 726 1122 c 128,-1,59
 712 1164 712 1164 684.5 1195.5 c 128,-1,60
 657 1227 657 1227 615.5 1245.5 c 128,-1,61
 574 1264 574 1264 519 1264 c 256,62,63
 464 1264 464 1264 422.5 1245.5 c 128,-1,64
 381 1227 381 1227 353.5 1195.5 c 128,-1,65
 326 1164 326 1164 312 1122 c 128,-1,66
 298 1080 298 1080 298 1032 c 0,67,68
 298 985 298 985 310 940.5 c 128,-1,69
 322 896 322 896 348 862 c 128,-1,70
 374 828 374 828 416.5 807.5 c 128,-1,71
 459 787 459 787 519 787 c 256,52,53
EndSplineSet
Validated: 1
EndChar

StartChar: percent
Encoding: 37 37 94
Width: 1464
GlyphClass: 2
Flags: W
LayerCount: 2
Fore
SplineSet
659 1049 m 0,0,1
 659 968 659 968 635 904.5 c 128,-1,2
 611 841 611 841 570 796.5 c 128,-1,3
 529 752 529 752 475 729 c 128,-1,4
 421 706 421 706 362 706 c 0,5,6
 299 706 299 706 244.5 729 c 128,-1,7
 190 752 190 752 150.5 796.5 c 128,-1,8
 111 841 111 841 88.5 904.5 c 128,-1,9
 66 968 66 968 66 1049 c 0,10,11
 66 1132 66 1132 88.5 1197 c 128,-1,12
 111 1262 111 1262 150.5 1306.5 c 128,-1,13
 190 1351 190 1351 244.5 1374 c 128,-1,14
 299 1397 299 1397 362 1397 c 256,15,16
 425 1397 425 1397 479.5 1374 c 128,-1,17
 534 1351 534 1351 574 1306.5 c 128,-1,18
 614 1262 614 1262 636.5 1197 c 128,-1,19
 659 1132 659 1132 659 1049 c 0,0,1
522 1049 m 0,20,21
 522 1113 522 1113 509.5 1157 c 128,-1,22
 497 1201 497 1201 475.5 1229 c 128,-1,23
 454 1257 454 1257 424.5 1269.5 c 128,-1,24
 395 1282 395 1282 362 1282 c 256,25,26
 329 1282 329 1282 300 1269.5 c 128,-1,27
 271 1257 271 1257 249.5 1229 c 128,-1,28
 228 1201 228 1201 216 1157 c 128,-1,29
 204 1113 204 1113 204 1049 c 0,30,31
 204 987 204 987 216 943.5 c 128,-1,32
 228 900 228 900 249.5 873 c 128,-1,33
 271 846 271 846 300 834 c 128,-1,34
 329 822 329 822 362 822 c 256,35,36
 395 822 395 822 424.5 834 c 128,-1,37
 454 846 454 846 475.5 873 c 128,-1,38
 497 900 497 900 509.5 943.5 c 128,-1,39
 522 987 522 987 522 1049 c 0,20,21
1398 327 m 0,40,41
 1398 246 1398 246 1374 182 c 128,-1,42
 1350 118 1350 118 1309 73.5 c 128,-1,43
 1268 29 1268 29 1214 6 c 128,-1,44
 1160 -17 1160 -17 1101 -17 c 0,45,46
 1038 -17 1038 -17 983.5 6 c 128,-1,47
 929 29 929 29 889 73.5 c 128,-1,48
 849 118 849 118 826.5 182 c 128,-1,49
 804 246 804 246 804 327 c 0,50,51
 804 410 804 410 826.5 474.5 c 128,-1,52
 849 539 849 539 889 583.5 c 128,-1,53
 929 628 929 628 983.5 651.5 c 128,-1,54
 1038 675 1038 675 1101 675 c 256,55,56
 1164 675 1164 675 1218.5 651.5 c 128,-1,57
 1273 628 1273 628 1312.5 583.5 c 128,-1,58
 1352 539 1352 539 1375 474.5 c 128,-1,59
 1398 410 1398 410 1398 327 c 0,40,41
1261 327 m 256,60,61
 1261 390 1261 390 1248.5 434.5 c 128,-1,62
 1236 479 1236 479 1214 506.5 c 128,-1,63
 1192 534 1192 534 1163 546.5 c 128,-1,64
 1134 559 1134 559 1101 559 c 256,65,66
 1068 559 1068 559 1039 546.5 c 128,-1,67
 1010 534 1010 534 988.5 506.5 c 128,-1,68
 967 479 967 479 954.5 434.5 c 128,-1,69
 942 390 942 390 942 327 c 256,70,71
 942 264 942 264 954.5 220.5 c 128,-1,72
 967 177 967 177 988.5 150 c 128,-1,73
 1010 123 1010 123 1039 111 c 128,-1,74
 1068 99 1068 99 1101 99 c 256,75,76
 1134 99 1134 99 1163 111 c 128,-1,77
 1192 123 1192 123 1214 150 c 128,-1,78
 1236 177 1236 177 1248.5 220.5 c 128,-1,79
 1261 264 1261 264 1261 327 c 256,60,61
310 52 m 1,80,81
 292 21 292 21 269 10.5 c 128,-1,82
 246 0 246 0 217 0 c 2,83,-1
 142 0 l 1,84,-1
 1129 1323 l 2,85,86
 1146 1352 1146 1352 1168.5 1367.5 c 128,-1,87
 1191 1383 1191 1383 1225 1383 c 2,88,-1
 1302 1383 l 1,89,-1
 310 52 l 1,80,81
EndSplineSet
Validated: 1
EndChar

StartChar: dollar
Encoding: 36 36 95
Width: 1038
GlyphClass: 2
Flags: W
LayerCount: 2
Fore
SplineSet
443 -18 m 1,0,1
 342 -7 342 -7 257.5 33 c 128,-1,2
 173 73 173 73 116 135 c 1,3,-1
 154 194 l 2,4,5
 164 209 164 209 176 216.5 c 128,-1,6
 188 224 188 224 206 224 c 0,7,8
 219 224 219 224 238.5 210 c 128,-1,9
 258 196 258 196 287 178 c 128,-1,10
 316 160 316 160 356.5 142.5 c 128,-1,11
 397 125 397 125 453 118 c 1,12,-1
 479 479 l 1,13,14
 421 494 421 494 364 514.5 c 128,-1,15
 307 535 307 535 262 569 c 128,-1,16
 217 603 217 603 189.5 653.5 c 128,-1,17
 162 704 162 704 162 781 c 0,18,19
 162 836 162 836 184.5 889.5 c 128,-1,20
 207 943 207 943 252 986 c 128,-1,21
 297 1029 297 1029 365 1057 c 128,-1,22
 433 1085 433 1085 524 1090 c 1,23,-1
 539 1294 l 1,24,-1
 640 1294 l 1,25,-1
 625 1087 l 1,26,27
 709 1076 709 1076 778 1044 c 128,-1,28
 847 1012 847 1012 895 964 c 1,29,-1
 855 899 l 2,30,31
 847 887 847 887 838.5 879.5 c 128,-1,32
 830 872 830 872 816 872 c 0,33,34
 804 872 804 872 787.5 882.5 c 128,-1,35
 771 893 771 893 747.5 907 c 128,-1,36
 724 921 724 921 691.5 935 c 128,-1,37
 659 949 659 949 615 955 c 1,38,-1
 591 615 l 1,39,40
 650 598 650 598 708 577.5 c 128,-1,41
 766 557 766 557 812.5 524.5 c 128,-1,42
 859 492 859 492 887.5 442.5 c 128,-1,43
 916 393 916 393 916 320 c 0,44,45
 916 252 916 252 889.5 193 c 128,-1,46
 863 134 863 134 814 88.5 c 128,-1,47
 765 43 765 43 697 14.5 c 128,-1,48
 629 -14 629 -14 545 -20 c 1,49,-1
 530 -228 l 1,50,-1
 428 -228 l 1,51,-1
 443 -18 l 1,0,1
762 295 m 0,52,53
 762 329 762 329 747.5 353.5 c 128,-1,54
 733 378 733 378 708.5 396 c 128,-1,55
 684 414 684 414 650.5 427.5 c 128,-1,56
 617 441 617 441 579 452 c 1,57,-1
 555 117 l 1,58,59
 608 121 608 121 647 136.5 c 128,-1,60
 686 152 686 152 711.5 175.5 c 128,-1,61
 737 199 737 199 749.5 229.5 c 128,-1,62
 762 260 762 260 762 295 c 0,52,53
325 795 m 0,63,64
 325 764 325 764 337.5 740.5 c 128,-1,65
 350 717 350 717 372.5 699.5 c 128,-1,66
 395 682 395 682 425.5 668.5 c 128,-1,67
 456 655 456 655 491 644 c 1,68,-1
 514 957 l 1,69,70
 463 952 463 952 427 937.5 c 128,-1,71
 391 923 391 923 368.5 901 c 128,-1,72
 346 879 346 879 335.5 852 c 128,-1,73
 325 825 325 825 325 795 c 0,63,64
EndSplineSet
Validated: 1
EndChar

StartChar: glyph2781
Encoding: 66201 -1 97
Width: 1386
Flags: W
LayerCount: 2
Fore
SplineSet
0 0 m 1024,0,-1
EndSplineSet
Validated: 1
EndChar
